<?xml version="1.0" standalone="no"?>
<!DOCTYPE svg PUBLIC "-//W3C//DTD SVG 1.1//EN" "http://www.w3.org/Graphics/SVG/1.1/DTD/svg11.dtd" >
<svg>
<metadata>
Created by FontForge 20110222 at Tue Feb 18 00:36:43 2014
 By Orthosie Webhosting
Copyright (c) 2006-2009 Dalton Maag Ltd. All rights reserved. This font may not be altered in any way without prior permission of Dalton Maag Ltd.
</metadata>
<defs>
<font id="CoTextCorpRegular" horiz-adv-x="486" >
  <font-face 
    font-family="CoTextCorpRegular"
    font-weight="400"
    font-stretch="normal"
    units-per-em="1000"
    panose-1="2 11 5 3 6 2 2 2 2 4"
    ascent="800"
    descent="-200"
    x-height="502"
    cap-height="687"
    bbox="-230 -222 1330 938"
    underline-thickness="50"
    underline-position="-50"
    unicode-range="U+0008-FB04"
  />
<missing-glyph horiz-adv-x="500" 
d="M50 0v750h400v-750h-400zM400 50v650h-300v-650h300z" />
    <glyph glyph-name="f_f" unicode="ff" horiz-adv-x="714" 
d="M111 550q0 47 14 82t39.5 58.5t60 35t75.5 11.5q36 0 56.5 -5t32.5 -10q19 -8 30 -18t11 -28q0 -17 -8.5 -29.5t-17.5 -19.5q-8 8 -32.5 19.5t-61.5 11.5q-28 0 -46 -8.5t-29 -23.5t-15.5 -35.5t-4.5 -44.5v-44h238v48q0 47 14 82t39.5 58.5t61 35t77.5 11.5
q50 0 74 -7.5t34 -12.5t20 -14t10 -28q0 -16 -8.5 -29t-17.5 -21q-9 8 -33 20.5t-62 12.5q-31 0 -51.5 -8.5t-32.5 -23.5t-16.5 -35.5t-4.5 -44.5v-44h113q47 0 47 -43q0 -16 -4.5 -27.5t-6.5 -15.5h-149v-416h-104v416h-238v-416h-104v416h-46q-48 0 -48 43q0 16 5 27.5
t7 15.5h82v48z" />
    <glyph glyph-name="f_i" unicode="fi" horiz-adv-x="643" 
d="M111 543q0 51 17 88t47 60.5t71 34.5t89 11q59 0 91 -9.5t43 -15.5q10 -5 20 -14t10 -29q0 -15 -7.5 -27.5t-17.5 -20.5q-6 4 -18.5 10.5t-30.5 12.5t-39.5 10t-44.5 4q-67 0 -96.5 -31.5t-29.5 -89.5v-35h292q47 0 47 -43v-459h-104v416h-235v-416h-104v416h-46
q-48 0 -48 43q0 16 5 27.5t7 15.5h82v41z" />
    <glyph glyph-name="f_l" unicode="fl" horiz-adv-x="634" 
d="M441 645q-10 3 -36 8t-61 5q-66 0 -97.5 -30.5t-31.5 -88.5v-37h108q47 0 47 -43q0 -16 -4.5 -27.5t-6.5 -15.5h-144v-416h-104v416h-46q-48 0 -48 43q0 16 5 27.5t7 15.5h82v36q0 53 17.5 91t48.5 62t73 35t90 11q40 0 76 -5.5t63.5 -12t45 -13t20.5 -8.5v-698h-104v645
z" />
    <glyph glyph-name="f_f_i" unicode="ffi" horiz-adv-x="990" 
d="M111 550q0 47 14 82t39.5 58.5t60 35t75.5 11.5q36 0 56.5 -5t32.5 -10q19 -8 30 -18t11 -28q0 -17 -8.5 -29.5t-17.5 -19.5q-8 8 -32.5 19.5t-61.5 11.5q-28 0 -46 -8.5t-29 -23.5t-15.5 -35.5t-4.5 -44.5v-44h243v41q0 51 17 88t47 60.5t71 34.5t89 11q59 0 91 -9.5
t43 -15.5q10 -5 20 -14t10 -29q0 -15 -7.5 -27.5t-17.5 -20.5q-6 4 -18.5 10.5t-30.5 12.5t-39.5 10t-44.5 4q-67 0 -96.5 -31.5t-29.5 -89.5v-35h292q47 0 47 -43v-459h-104v416h-235v-416h-104v416h-243v-416h-104v416h-46q-48 0 -48 43q0 16 5 27.5t7 15.5h82v48z" />
    <glyph glyph-name="f_f_l" unicode="ffl" horiz-adv-x="976" 
d="M558 416v-416h-104v416h-239v-416h-104v416h-46q-48 0 -48 43q0 16 5 27.5t7 15.5h82v48q0 47 14 82t39.5 58.5t60 35t75.5 11.5q36 0 56.5 -5t32.5 -10q19 -8 30 -18t11 -28q0 -17 -8.5 -29.5t-17.5 -19.5q-8 8 -32.5 19.5t-61.5 11.5q-28 0 -46 -8.5t-29 -23.5
t-15.5 -35.5t-4.5 -44.5v-44h239v41q0 51 17 88t47 60.5t71 34.5t89 11q40 0 76.5 -5.5t64.5 -12t46 -13t22 -8.5v-698h-104v645q-5 2 -33.5 7.5t-65.5 5.5q-67 0 -96.5 -31.5t-29.5 -89.5v-35h107q47 0 47 -43q0 -16 -4.5 -27.5t-6.5 -15.5h-143z" />
    <glyph glyph-name=".notdef" horiz-adv-x="500" 
d="M50 0v750h400v-750h-400zM400 50v650h-300v-650h300z" />
    <glyph glyph-name=".null" horiz-adv-x="0" 
 />
    <glyph glyph-name=".null" horiz-adv-x="0" 
 />
    <glyph glyph-name=".null" horiz-adv-x="0" 
 />
    <glyph glyph-name="nonmarkingreturn" unicode="&#x9;" horiz-adv-x="241" 
 />
    <glyph glyph-name="nonmarkingreturn" unicode="&#xd;" horiz-adv-x="241" 
 />
    <glyph glyph-name="space" unicode=" " horiz-adv-x="241" 
 />
    <glyph glyph-name="exclam" unicode="!" horiz-adv-x="255" 
d="M75 638q0 49 55 49q17 0 30.5 -4t18.5 -7v-458h-104v420zM200 57q0 -30 -21 -51.5t-51 -21.5q-31 0 -52.5 21.5t-21.5 51.5t21.5 51.5t52.5 21.5q30 0 51 -21.5t21 -51.5z" />
    <glyph glyph-name="quotedbl" unicode="&#x22;" horiz-adv-x="506" 
d="M92 689q0 48 56 48q17 0 30.5 -4t18.5 -6v-302h-105v264zM309 689q0 48 55 48q17 0 31 -4t19 -6v-302h-105v264z" />
    <glyph glyph-name="numbersign" unicode="#" horiz-adv-x="781" 
d="M188 173h-80q-29 0 -40.5 12t-11.5 34q0 14 4.5 26t7.5 17h135l30 176h-80q-28 0 -39.5 12t-11.5 33q0 14 4 26t7 17h136l23 137q4 20 15 30.5t34 10.5q16 0 28 -5t16 -8l-28 -165h169l23 137q4 20 15 30.5t34 10.5q16 0 28 -5t16 -8l-28 -165h79q28 0 40 -12t12 -33
q0 -15 -4.5 -26.5t-7.5 -16.5h-134l-30 -176h78q29 0 40.5 -12t11.5 -33q0 -15 -4 -27t-7 -17h-134l-30 -173h-89l30 173h-168l-30 -173h-89zM292 262h168l30 176h-168z" />
    <glyph glyph-name="dollar" unicode="$" horiz-adv-x="652" 
d="M529 643q16 -11 22 -22t6 -24q0 -21 -11 -37t-22 -24q-8 9 -22 20.5t-35 22t-49.5 19.5t-64.5 12v-217q58 -12 102 -27t74 -37.5t45 -54t15 -75.5q0 -40 -13.5 -74.5t-42 -61t-73.5 -43.5t-107 -22v-110h-67v110q-50 3 -89.5 14t-70 24.5t-51 27t-31.5 21.5l49 70
q7 -6 23 -17t40 -22.5t56.5 -21t73.5 -13.5v224q-44 12 -85 25.5t-72.5 34.5t-50.5 53t-19 81q0 36 11.5 69t38.5 59t70.5 44t106.5 23v75q0 13 8.5 21t24.5 8q14 0 22.5 -2.5t11.5 -4.5v-98q39 -2 69 -8.5t51.5 -14t35.5 -15.5t20 -12zM479 186q0 25 -8 42t-23.5 29.5
t-39.5 20.5t-55 15v-213q66 8 96 35.5t30 70.5zM286 611q-68 -6 -96.5 -33t-28.5 -69q0 -37 29.5 -64t95.5 -39v205z" />
    <glyph glyph-name="percent" unicode="%" horiz-adv-x="995" 
d="M951 178q0 -40 -15.5 -75t-42 -61t-62.5 -41t-76 -15t-75.5 15t-62.5 41t-42.5 61t-15.5 75t15.5 75t42.5 61t62.5 41t75.5 15t76 -15t62.5 -41t42 -61t15.5 -75zM339 0h-99l406 702q8 13 18.5 24t36.5 11q20 0 32 -9t17 -18zM437 545q0 -40 -15.5 -75t-42.5 -60.5
t-63 -40.5t-76 -15t-75.5 15t-62.5 40.5t-42.5 60.5t-15.5 75t15.5 75t42.5 61t62.5 41t75.5 15t76 -15t63 -41t42.5 -61t15.5 -75zM868 178q0 24 -9 44.5t-24.5 36.5t-36 25t-43.5 9t-43.5 -9t-35.5 -25t-24 -36.5t-9 -44.5t9 -44.5t24 -36.5t35.5 -25t43.5 -9t43.5 9
t36 25t24.5 36.5t9 44.5zM352 545q0 24 -9 45t-24 37t-35.5 25t-43.5 9t-43.5 -9t-35.5 -25t-24 -37t-9 -45q0 -23 9 -44t24 -36.5t35.5 -24.5t43.5 -9t43.5 9t35.5 24.5t24 36.5t9 44z" />
    <glyph glyph-name="ampersand" unicode="&#x26;" horiz-adv-x="748" 
d="M526 307h-197q-74 0 -110 -31.5t-36 -87.5q0 -60 48.5 -89t155.5 -29q57 0 92.5 3.5t46.5 5.5v228zM630 307v-309q-27 -5 -87 -10t-155 -5q-87 0 -147 14.5t-96.5 41t-53 62.5t-16.5 80q0 55 29.5 101t95.5 70q-59 24 -84 66t-25 92q0 43 16.5 78.5t48.5 61t78 40
t105 14.5q38 0 67 -4.5t50 -11t33.5 -13t17.5 -9.5q27 -17 27 -44q0 -17 -9.5 -31.5t-17.5 -20.5q-5 4 -18 13t-33.5 17t-48.5 14.5t-62 6.5q-151 0 -151 -116q0 -59 42.5 -83t117.5 -24h301q50 0 50 -46q0 -16 -5 -28.5t-7 -16.5h-63z" />
    <glyph glyph-name="quotesingle" unicode="'" horiz-adv-x="280" 
d="M87 689q0 48 56 48q17 0 30.5 -4t18.5 -6v-302h-105v264z" />
    <glyph glyph-name="parenleft" unicode="(" horiz-adv-x="376" 
d="M175 302q0 -147 43 -232.5t120 -111.5v-90q-60 10 -110 42.5t-86 87.5t-56 131t-20 173t20 173.5t56 131t86 87t110 42.5v-89q-77 -27 -120 -112t-43 -233z" />
    <glyph glyph-name="parenright" unicode=")" horiz-adv-x="376" 
d="M201 302q0 148 -43 233t-120 112v89q60 -10 110 -42.5t86 -87t56 -131t20 -173.5t-20 -173t-56 -131t-86 -87.5t-110 -42.5v90q77 26 120 111.5t43 232.5z" />
    <glyph glyph-name="asterisk" unicode="*" horiz-adv-x="574" 
d="M433 597q12 5 21 8t20 3q17 0 32.5 -14t15.5 -54v-4l-167 -52l112 -147l-74 -51l-105 157l-105 -157l-75 51l111 147l-167 52q0 22 4.5 36t11.5 22t15.5 11t17.5 3q11 0 19.5 -3t20.5 -8l106 -46l-8 140v4q0 20 14 31t37 11q15 0 29 -4t16 -6l-8 -176z" />
    <glyph glyph-name="plus" unicode="+" horiz-adv-x="652" 
d="M125 295q-50 0 -50 46q0 17 5 30t7 17h190v158q0 45 51 45q16 0 29 -3.5t17 -5.5v-194h153q50 0 50 -47q0 -17 -5 -29.5t-7 -16.5h-191v-202h-97v202h-152z" />
    <glyph glyph-name="comma" unicode="," horiz-adv-x="280" 
d="M50 -152q3 3 15 17t25.5 34t26 44.5t15.5 47.5q-70 8 -70 73q0 32 21 52t54 20q31 0 56 -23t25 -77q0 -46 -17.5 -86.5t-39.5 -72t-40.5 -50.5t-21.5 -21z" />
    <glyph glyph-name="hyphen" unicode="-" horiz-adv-x="362" 
d="M107 221q-30 0 -42 15t-12 38q0 17 4.5 29.5t6.5 19.5h191q30 0 42 -15t12 -38q0 -17 -4.5 -29.5t-6.5 -19.5h-191z" />
    <glyph glyph-name="period" unicode="." horiz-adv-x="280" 
d="M215 59q0 -31 -21.5 -53t-52.5 -22q-32 0 -54 22t-22 53q0 32 22 54t54 22q31 0 52.5 -22t21.5 -54z" />
    <glyph glyph-name="slash" unicode="/" horiz-adv-x="364" 
d="M115 -17h-102l229 714q5 17 16 28.5t38 11.5q22 0 36 -7t18 -10z" />
    <glyph glyph-name="zero" unicode="0" horiz-adv-x="652" 
d="M602 334q0 -82 -18.5 -147t-54 -110.5t-87 -69.5t-116.5 -24t-116.5 24t-87 69.5t-54 110.5t-18.5 147t18.5 147t54 111t87 70.5t116.5 24.5t116.5 -24.5t87 -70.5t54 -111t18.5 -147zM492 334q0 55 -9.5 103.5t-30 84.5t-52 57t-74.5 21q-44 0 -75 -21t-51.5 -57
t-30 -84.5t-9.5 -103.5t9.5 -103t30 -84t51.5 -57t75 -21q43 0 74.5 21t52 57t30 84t9.5 103z" />
    <glyph glyph-name="one" unicode="1" horiz-adv-x="652" 
d="M325 0v546l-155 -118q-7 1 -16 5t-16.5 10.5t-12.5 15.5t-5 21q0 17 10 31t30 28l132 99q20 15 37.5 22.5t43.5 7.5t40 -5.5t17 -8.5v-654h-105z" />
    <glyph glyph-name="two" unicode="2" horiz-adv-x="652" 
d="M90 0v88q12 9 42 30.5t65.5 49t71.5 57t61 53.5q23 22 44 44.5t37 46.5t25.5 49.5t9.5 54.5q0 23 -7 46t-23.5 41t-44 29.5t-69.5 11.5q-38 0 -65 -11.5t-44.5 -27.5t-27.5 -32.5t-13 -25.5q-29 5 -45 19t-16 34q0 31 27 60q6 7 21 19t38.5 23t56.5 19.5t75 8.5
q61 0 107 -15.5t77 -43.5t47 -66.5t16 -84.5q0 -35 -9.5 -66t-24.5 -57t-33.5 -48.5t-36.5 -41.5q-20 -20 -50.5 -46.5t-62 -52t-58 -46t-37.5 -27.5h318v-92h-472z" />
    <glyph glyph-name="three" unicode="3" horiz-adv-x="652" 
d="M309 389q70 0 107 29t37 79t-35 79.5t-108 29.5q-41 0 -70 -11.5t-47.5 -27t-27.5 -30.5t-12 -22q-29 2 -44 17.5t-15 35.5q0 26 18 48q7 9 21.5 21t39 23t59.5 19t83 8q67 0 114 -15.5t76.5 -41t42.5 -57.5t13 -66q0 -33 -11 -59.5t-28 -46.5t-38 -34t-42 -22
q69 -18 101 -62.5t32 -101.5q0 -44 -16.5 -80t-49 -62.5t-80.5 -41t-110 -14.5q-51 0 -92.5 8.5t-72 19.5t-50.5 22t-28 16l44 78q9 -6 26.5 -16t42 -19t55.5 -16t67 -7q76 0 115 30t39 86q0 57 -42.5 84t-115.5 27h-59q-3 4 -8 17t-5 30q0 23 13 34.5t42 11.5h19z" />
    <glyph glyph-name="four" unicode="4" horiz-adv-x="652" 
d="M545 241q26 0 37 -11.5t11 -32.5q0 -16 -4 -28.5t-7 -17.5h-85v-151h-103v151h-177q-44 0 -74.5 6.5t-49 20t-26.5 34t-8 47.5q0 58 32.5 120t77.5 117q31 37 63 70t65 58t65.5 39.5t63.5 14.5q32 0 49 -7.5t22 -10.5v-419h48zM394 582q-25 -11 -64 -43.5t-81 -83.5
q-37 -45 -62 -91t-25 -81q0 -27 20.5 -34.5t49.5 -7.5h162v341z" />
    <glyph glyph-name="five" unicode="5" horiz-adv-x="652" 
d="M227 575l-6 -172q17 3 41.5 6t59.5 3q70 0 118 -18t77.5 -47.5t42 -67.5t12.5 -78q0 -48 -17 -88t-50.5 -69t-84.5 -45t-119 -16q-48 0 -86.5 7.5t-66.5 17t-45 19t-23 13.5l42 76q2 -1 14 -8.5t34 -16.5t54 -16t76 -7q87 0 125 36t38 91q0 26 -8.5 50t-29 42t-54.5 28.5
t-85 10.5q-57 0 -96.5 -9.5t-64.5 -17.5l10 309q1 26 16 43t47 17h289q55 0 55 -46q0 -17 -5.5 -29.5t-8.5 -17.5h-301z" />
    <glyph glyph-name="six" unicode="6" horiz-adv-x="652" 
d="M583 225q0 -53 -19.5 -97.5t-54 -76.5t-82 -50t-102.5 -18q-56 0 -103 17.5t-81.5 49t-53.5 74t-19 93.5q0 66 29 123.5t72 115.5l146 196q10 13 23.5 24t42.5 11q25 0 39.5 -10.5t19.5 -17.5l-172 -233q9 6 32.5 12.5t51.5 6.5q55 0 98 -17t72.5 -47t45 -70t15.5 -86z
M476 218q0 71 -42.5 112t-109.5 41q-33 0 -61 -11.5t-48 -31.5t-31.5 -48.5t-11.5 -61.5t11 -61.5t31.5 -49t48.5 -32t61 -11.5q34 0 62.5 11.5t48 32t30.5 49t11 61.5z" />
    <glyph glyph-name="seven" unicode="7" horiz-adv-x="652" 
d="M567 612q0 -14 -6 -34t-17 -45t-28.5 -64.5t-38.5 -87t-45 -100.5t-46.5 -104t-42.5 -97t-35 -80h-108q15 35 35 80.5t43 96.5t47 105t47 106.5t44.5 100t38.5 85.5h-331q-51 0 -51 46q0 17 5 30t8 18h410q71 0 71 -56z" />
    <glyph glyph-name="eight" unicode="8" horiz-adv-x="652" 
d="M595 178q0 -43 -17 -79t-51 -61.5t-84 -40t-117 -14.5t-117.5 14.5t-84 40t-50.5 61.5t-17 79q0 23 6.5 46.5t20.5 45.5t36.5 40t54.5 30q-28 13 -47.5 31.5t-32 39t-18 42.5t-5.5 43q0 42 16.5 77t49 60.5t79.5 39.5t109 14q61 0 108.5 -14t80 -39.5t49 -60.5t16.5 -77
q0 -21 -5.5 -43t-18 -42.5t-32 -39t-47.5 -31.5q33 -13 55.5 -31t36.5 -39.5t20 -45t6 -46.5zM477 492q0 50 -37 82.5t-114 32.5t-113.5 -32.5t-36.5 -82.5t36.5 -82.5t113.5 -32.5t114 32.5t37 82.5zM487 182q0 52 -40.5 84t-120.5 32t-120.5 -32t-40.5 -84t40.5 -84
t120.5 -32t120.5 32t40.5 84z" />
    <glyph glyph-name="nine" unicode="9" horiz-adv-x="652" 
d="M320 -8h-120l185 250q-10 -7 -31 -13.5t-56 -6.5q-54 0 -97 17t-72.5 47t-45 70t-15.5 86q0 53 19.5 98t54.5 77.5t82 51t103 18.5t103 -18t81.5 -49.5t53.5 -75t19 -94.5q0 -33 -8.5 -64.5t-22 -61t-31.5 -56.5t-36 -52zM174 450q0 -36 11.5 -64.5t32 -48.5t49 -30.5
t61.5 -10.5t61 11.5t48.5 32t32 48.5t11.5 62q0 33 -11.5 61.5t-32 49.5t-48.5 32.5t-61 11.5q-34 0 -62.5 -11.5t-48.5 -32.5t-31.5 -49.5t-11.5 -61.5z" />
    <glyph glyph-name="colon" unicode=":" horiz-adv-x="280" 
d="M215 426q0 -31 -21.5 -52.5t-52.5 -21.5q-32 0 -54 21.5t-22 52.5q0 32 22 54t54 22q31 0 52.5 -22t21.5 -54zM215 59q0 -31 -21.5 -53t-52.5 -22q-32 0 -54 22t-22 53q0 32 22 54t54 22q31 0 52.5 -22t21.5 -54z" />
    <glyph glyph-name="semicolon" unicode=";" horiz-adv-x="280" 
d="M215 426q0 -31 -21.5 -52.5t-52.5 -21.5q-32 0 -54 21.5t-22 52.5q0 32 22 54t54 22q31 0 52.5 -22t21.5 -54zM50 -152q3 3 15 17t25.5 34t26 44.5t15.5 47.5q-70 8 -70 73q0 32 21 52t54 20q31 0 56 -23t25 -77q0 -46 -17.5 -86.5t-39.5 -72t-40.5 -50.5t-21.5 -21z" />
    <glyph glyph-name="less" unicode="&#x3c;" horiz-adv-x="652" 
d="M128 279q-27 11 -36 26t-9 35q0 21 6.5 35t11.5 19l468 191v-103l-368 -139l368 -140v-104z" />
    <glyph glyph-name="equal" unicode="=" horiz-adv-x="652" 
d="M125 426q-50 0 -50 46q0 17 5 30t7 17h440q50 0 50 -47q0 -17 -5 -29.5t-7 -16.5h-440zM125 164q-50 0 -50 46q0 17 5 30t7 17h440q50 0 50 -47q0 -17 -5 -29.5t-7 -16.5h-440z" />
    <glyph glyph-name="greater" unicode="&#x3e;" horiz-adv-x="652" 
d="M524 406q27 -11 36 -26t9 -35q0 -21 -6.5 -35t-11.5 -19l-468 -191v103l368 140l-368 139v104z" />
    <glyph glyph-name="question" unicode="?" horiz-adv-x="560" 
d="M249 622q-42 0 -70 -12.5t-46 -28.5t-27 -31.5t-11 -21.5q-58 8 -58 55q0 7 5 27t26.5 41t66 37t123.5 16q64 0 109.5 -16t74 -43t41.5 -61t13 -70q0 -35 -8.5 -62.5t-22.5 -49t-32 -38t-37 -31.5q-27 -21 -47 -35t-33 -26.5t-19.5 -27t-6.5 -37.5h-103q0 34 6 58
t17.5 42t29 31.5t41.5 27.5q52 30 80 62t28 79q0 23 -7.5 44t-24.5 36.5t-43.5 25t-64.5 9.5zM311 56q0 -30 -21 -50.5t-51 -20.5t-51.5 20.5t-21.5 50.5q0 31 21.5 52t51.5 21t51 -21t21 -52z" />
    <glyph glyph-name="at" unicode="@" horiz-adv-x="1016" 
d="M832 96q2 5 6 19t8.5 35.5t7.5 48.5t3 57q0 77 -25.5 142.5t-71.5 113.5t-110 75t-142 27q-74 0 -138 -26.5t-111 -74.5t-74.5 -115.5t-27.5 -149.5t27.5 -149t76 -115t115.5 -74t145 -26q82 0 130 9t66 16l26 -81q-25 -9 -82 -20.5t-145 -11.5q-96 0 -179 33.5
t-144.5 93.5t-96.5 143t-35 182q0 100 35 184t96 144.5t142.5 94t173.5 33.5q97 0 178.5 -34t141 -93.5t93 -141t33.5 -177.5q0 -31 -4.5 -63.5t-11 -63.5t-15 -57t-15.5 -43q-23 -3 -117 -10t-242 -7q-132 0 -191.5 35.5t-59.5 113.5q0 71 48 107.5t152 36.5
q38 0 69.5 -2.5t39.5 -4.5v8q0 62 -34.5 85t-93.5 23q-45 0 -74.5 -11t-48.5 -22q-8 7 -14 19t-6 26q0 30 39.5 45.5t111.5 15.5q111 0 161.5 -48.5t50.5 -128.5v-223q6 0 23 0.5t37.5 1.5t40.5 2.5t32 2.5zM607 232q-11 2 -35.5 4.5t-63.5 2.5q-63 0 -89.5 -19.5
t-26.5 -59.5q0 -39 34 -55.5t109 -16.5h72v144z" />
    <glyph glyph-name="A" unicode="A" horiz-adv-x="737" 
d="M17 0q31 84 67 174t70.5 174t65.5 156t53 119q20 44 41.5 60.5t54.5 16.5q31 0 47 -10t24 -18q18 -31 43 -85.5t53 -120t56.5 -136.5t53.5 -135.5t44.5 -116t29.5 -78.5h-116q-5 11 -12.5 31.5t-16.5 45t-19 51t-19 50.5h-345q-23 -57 -40 -104t-27 -74h-108zM366 598
q-11 -23 -26.5 -58.5t-34 -79t-38.5 -92.5t-39 -98h273q-18 48 -38.5 98.5t-39 96t-33.5 81t-24 52.5z" />
    <glyph glyph-name="B" unicode="B" horiz-adv-x="679" 
d="M92 627q0 29 15.5 44.5t47.5 15.5h192q59 0 101.5 -14.5t69.5 -38.5t40 -56.5t13 -68.5q0 -35 -11 -61t-26 -44.5t-31 -30t-26 -15.5q26 -7 49 -21.5t40.5 -36t27.5 -49.5t10 -61q0 -30 -10.5 -63.5t-36.5 -61.5t-70.5 -46.5t-113.5 -18.5h-281v627zM462 501
q0 45 -30.5 71.5t-95.5 26.5h-138v-203h142q64 0 93 30.5t29 74.5zM493 197q0 22 -7.5 42.5t-23 35.5t-39.5 24t-57 9h-168v-220h167q66 0 97 30.5t31 78.5z" />
    <glyph glyph-name="C" unicode="C" horiz-adv-x="685" 
d="M642 602q0 -12 -5 -22.5t-11.5 -19t-14 -14.5t-12.5 -9q-9 10 -25 23t-40 24.5t-55 19.5t-68 8q-53 0 -97.5 -19t-77 -54t-50.5 -84.5t-18 -111.5q0 -65 19 -114.5t52 -83t78.5 -51t99.5 -17.5q37 0 68 6.5t54 15t38.5 17t23.5 13.5l47 -81q-8 -6 -28 -17t-50.5 -21.5
t-71 -18.5t-88.5 -8q-74 0 -138.5 23.5t-112.5 69.5t-75.5 112.5t-27.5 153.5q0 84 27.5 151.5t75.5 114t113 71.5t139 25q77 0 128 -18t71 -33q17 -13 24.5 -26t7.5 -25z" />
    <glyph glyph-name="D" unicode="D" horiz-adv-x="760" 
d="M698 344q0 -78 -25 -141.5t-72.5 -108.5t-115 -69.5t-151.5 -24.5h-242v627q0 29 16 44.5t48 15.5h178q84 0 151.5 -24.5t115 -69t72.5 -108t25 -141.5zM586 344q0 55 -17 101.5t-49.5 80.5t-80.5 52.5t-111 18.5h-128v-507h128q63 0 111 19t80.5 53t49.5 80.5t17 101.5z
" />
    <glyph glyph-name="E" unicode="E" horiz-adv-x="623" 
d="M200 303v-209h345v-94h-453v627q0 29 15.5 44.5t47.5 15.5h345q50 0 50 -47q0 -17 -5 -30t-8 -18h-337v-194h286q50 0 50 -47q0 -17 -5 -30t-8 -18h-323z" />
    <glyph glyph-name="F" unicode="F" horiz-adv-x="563" 
d="M92 0v627q0 29 15.5 44.5t47.5 15.5h312q51 0 51 -47q0 -17 -5 -30t-8 -18h-305v-204h238q50 0 50 -47q0 -17 -5 -30t-8 -18h-275v-293h-108z" />
    <glyph glyph-name="G" unicode="G" horiz-adv-x="743" 
d="M600 378q62 0 62 -59v-320q-4 -1 -22.5 -3.5t-47.5 -5.5t-66 -5t-79 -2q-84 0 -154.5 22.5t-121.5 67.5t-80 112.5t-29 157.5q0 84 28 150.5t77.5 113.5t117 72t147.5 25q39 0 71.5 -5t57.5 -12.5t43 -16.5t28 -16q17 -12 24.5 -25.5t7.5 -25.5t-5 -22t-12 -18
t-14.5 -13.5t-12.5 -8.5q-9 10 -25.5 23t-40.5 24t-55.5 19t-69.5 8q-55 0 -101.5 -18.5t-80.5 -53.5t-53 -85.5t-19 -114.5q0 -69 20.5 -120t57.5 -84t88.5 -49t112.5 -16q45 0 70 3t33 5v202h-115q-51 0 -51 46q0 17 5 30t8 18h196z" />
    <glyph glyph-name="H" unicode="H" horiz-adv-x="758" 
d="M558 636q0 51 56 51q18 0 32 -5t19 -7v-675h-107v310h-358v-310h-108v636q0 26 15 38.5t42 12.5q17 0 31.5 -4.5t19.5 -7.5v-272h358v233z" />
    <glyph glyph-name="I" unicode="I" horiz-adv-x="292" 
d="M92 636q0 26 15 38.5t42 12.5q17 0 31.5 -4.5t19.5 -7.5v-675h-108v636z" />
    <glyph glyph-name="J" unicode="J" horiz-adv-x="551" 
d="M354 636q0 26 15 38.5t42 12.5q17 0 31 -4.5t19 -7.5v-447q0 -55 -12 -100t-39.5 -77.5t-72 -50t-109.5 -17.5q-54 0 -93.5 13.5t-65.5 30.5t-39.5 32.5t-16.5 19.5l66 65q4 -6 15 -18.5t29 -24.5t43 -21.5t58 -9.5q66 0 98 35.5t32 120.5v410z" />
    <glyph glyph-name="K" unicode="K" horiz-adv-x="670" 
d="M200 391q25 24 62 57.5t77.5 70t80 71t68.5 59.5q20 18 36 28t43 10q15 0 27.5 -5t21 -11t13.5 -12t7 -8q-10 -9 -35 -30t-57 -49t-68 -59t-69 -60.5t-59 -53t-39 -36.5q102 -89 192 -180.5t159 -182.5h-134q-29 36 -68 78.5t-82.5 85.5t-89 83.5t-86.5 70.5v-318h-108
v636q0 26 15 38.5t42 12.5q17 0 31.5 -4.5t19.5 -7.5v-284z" />
    <glyph glyph-name="L" unicode="L" horiz-adv-x="560" 
d="M92 636q0 26 15 38.5t42 12.5q17 0 31.5 -4.5t19.5 -7.5v-581h335v-94h-443v636z" />
    <glyph glyph-name="M" unicode="M" horiz-adv-x="908" 
d="M720 0q-1 16 -3.5 58t-5.5 98t-6.5 118t-6.5 117t-5.5 97t-3.5 57q-10 -21 -25 -53t-33 -69t-37 -77.5t-37.5 -78.5t-35 -72t-28.5 -58h-79q-18 36 -43.5 89t-53 110.5t-54 113t-46.5 95.5q-1 -23 -3.5 -66t-5.5 -96t-6 -110.5t-6 -110t-5 -95.5t-3 -67h-106
q1 26 3.5 75.5t5.5 110t6.5 127t7 127.5t6 110t4.5 75q2 30 21 46t48 16t49 -8.5t30 -19.5q8 -17 22.5 -46.5t32 -66t37 -76.5t38 -78.5t35.5 -72t29 -57.5q16 31 40.5 82t51 105.5t50 103.5t36.5 76q12 25 30 41.5t55 16.5q29 0 45.5 -7.5t21.5 -11.5q2 -28 5 -80.5
t6.5 -117.5t7.5 -136t8 -136t6.5 -117.5t4.5 -80.5h-105z" />
    <glyph glyph-name="N" unicode="N" horiz-adv-x="761" 
d="M228 664q10 -13 32 -43.5t50 -71.5t61 -90.5t67 -101t66 -101.5t58 -92v472q0 26 15 38.5t41 12.5q18 0 32 -4.5t19 -7.5v-675h-113q-25 38 -55.5 85.5t-63.5 99t-67 103.5t-65.5 99t-59 86.5t-47.5 66.5v-540h-106v630q0 21 17 39t51 18q26 0 42.5 -8.5t25.5 -14.5z" />
    <glyph glyph-name="O" unicode="O" horiz-adv-x="829" 
d="M767 344q0 -77 -26 -143t-72.5 -114.5t-111.5 -76t-143 -27.5t-142.5 27.5t-111 76t-72.5 114.5t-26 143t26 143t72.5 114t111 75.5t142.5 27.5t143 -27.5t111.5 -75.5t72.5 -114t26 -143zM654 344q0 58 -17 107t-48.5 85t-75.5 56t-98 20t-98.5 -20t-76 -56t-48.5 -85
t-17 -107t17 -107.5t48.5 -85.5t76 -56.5t98.5 -20.5t98 20.5t75.5 56.5t48.5 85.5t17 107.5z" />
    <glyph glyph-name="P" unicode="P" horiz-adv-x="631" 
d="M467 464q0 28 -7.5 52.5t-24.5 43t-44.5 29t-68.5 10.5h-124v-260q9 -3 34.5 -7t59.5 -4q49 0 82.5 11t54 29.5t29.5 43t9 52.5zM346 687q58 0 102 -18t72.5 -48.5t43 -71t14.5 -85.5q0 -43 -15 -83.5t-47.5 -71.5t-83 -50t-120.5 -19q-48 0 -77 4.5t-37 6.5v-251h-106
v627q0 29 16 44.5t48 15.5h190z" />
    <glyph glyph-name="Q" unicode="Q" horiz-adv-x="829" 
d="M767 344q0 -85 -32.5 -156t-88.5 -120l89 -116l-78 -59l-94 123q-66 -33 -149 -33q-78 0 -142.5 27.5t-111 76t-72.5 114.5t-26 143t26 143t72.5 114t111 75.5t142.5 27.5t143 -27.5t111.5 -75.5t72.5 -114t26 -143zM654 344q0 58 -17 107t-48.5 85t-75.5 56t-98 20
t-98.5 -20t-76 -56t-48.5 -85t-17 -107t17 -107.5t48.5 -85.5t76 -56.5t98.5 -20.5q49 0 89 20l-72 94q-8 11 -12.5 20.5t-4.5 20.5q0 23 23 36t48 14l99 -130q32 35 50.5 85.5t18.5 109.5z" />
    <glyph glyph-name="R" unicode="R" horiz-adv-x="656" 
d="M314 256q-43 0 -69.5 2t-46.5 4v-262h-105v627q0 59 63 59h176q60 0 104.5 -17t74.5 -46t45 -68t15 -83q0 -60 -32 -112.5t-94 -79.5q23 -26 48.5 -63t50 -76t45.5 -76t35 -65h-125q-8 18 -25 49.5t-39.5 68t-47.5 73.5t-50 66q-7 -1 -12 -1h-11zM460 472
q0 54 -35.5 90.5t-112.5 36.5h-114v-248q5 -2 28.5 -4.5t63.5 -2.5q46 0 78.5 9.5t53 27t29.5 41t9 50.5z" />
    <glyph glyph-name="S" unicode="S" horiz-adv-x="647" 
d="M503 542q-9 11 -24.5 24.5t-39 25t-55 19.5t-72.5 8t-68.5 -8.5t-44.5 -23.5t-24.5 -34t-7.5 -40q0 -44 30 -67.5t93 -39.5l84 -21q49 -12 87 -28t64.5 -39t40.5 -54t14 -73q0 -46 -15 -84t-46.5 -65.5t-81 -43t-118.5 -15.5q-62 0 -109 10.5t-81 24.5t-54.5 27.5
t-27.5 19.5l50 77q8 -6 26 -18.5t45.5 -24.5t64.5 -21.5t84 -9.5q82 0 117 29.5t35 79.5q0 25 -9.5 43t-27 31t-40.5 21.5t-50 15.5l-89 23q-38 10 -72.5 25t-61.5 37.5t-43 54t-16 75.5q0 39 13 75t43 64t77.5 45t116.5 17q47 0 82 -5.5t59.5 -13.5t40 -16t23.5 -14
q17 -12 24.5 -25.5t7.5 -25.5t-5 -22t-12 -18t-14.5 -13.5t-12.5 -8.5z" />
    <glyph glyph-name="T" unicode="T" horiz-adv-x="622" 
d="M551 687q51 0 51 -47q0 -17 -5 -30t-8 -18h-232v-592h-108v592h-178q-51 0 -51 47q0 17 5 30t8 18h518z" />
    <glyph glyph-name="U" unicode="U" horiz-adv-x="774" 
d="M84 636q0 26 15 38.5t42 12.5q17 0 31 -4.5t19 -7.5v-363q0 -56 10 -100t33 -75t60.5 -47.5t92.5 -16.5t92.5 16.5t60.5 47.5t33 75t10 100v324q0 51 56 51q18 0 32 -4.5t19 -7.5v-373q0 -158 -74.5 -238.5t-228.5 -80.5t-228.5 80.5t-74.5 238.5v334z" />
    <glyph glyph-name="V" unicode="V" horiz-adv-x="700" 
d="M119 674q19 -56 46 -130t57.5 -153.5t62 -156.5t58.5 -139q10 23 26 61t34 85t38 99t39.5 103.5t37.5 99t32 85.5q12 32 27 45t46 13q22 0 37.5 -8t20.5 -10q-8 -21 -25 -65.5t-40.5 -102.5t-50.5 -125t-55.5 -134t-55.5 -129.5t-50 -111.5h-126q-35 69 -69.5 145.5
t-64.5 148.5t-55 133.5t-40 101.5q-6 16 -11 28.5t-9 23.5q-7 20 -9.5 32.5t-2.5 23.5q0 18 12 33.5t41 15.5q23 0 36 -5.5t13 -6.5z" />
    <glyph glyph-name="W" unicode="W" horiz-adv-x="1007" 
d="M432 625q8 32 24 47t47 15q24 0 37.5 -5t19.5 -9q12 -54 28.5 -125t35.5 -146.5t38.5 -150.5t37.5 -137q23 66 47 143t45 149t38 131.5t27 91.5q8 28 24 43t46 15q25 0 39.5 -8.5t17.5 -11.5q-18 -66 -43.5 -148.5t-55 -170.5t-62 -177.5t-64.5 -170.5h-126
q-6 16 -16 49.5t-22 77t-25.5 94.5t-26 102t-24.5 99t-20 87q-15 -60 -34 -133t-38.5 -144.5t-38 -133.5t-31.5 -98h-125q-15 36 -33.5 85.5t-38 104t-38.5 109.5t-35 102t-27.5 82.5t-16.5 50.5q-11 33 -18 58t-7 42q0 21 12.5 37t43.5 16q23 0 35 -5t14 -7q7 -29 19.5 -72
t27.5 -93t31.5 -104t33 -106.5t32.5 -100t29 -84.5q19 61 39 133t38 142t33 132t26 103z" />
    <glyph glyph-name="X" unicode="X" horiz-adv-x="662" 
d="M514 0q-13 19 -33.5 47t-46 62.5t-54.5 73.5t-60 79q-56 -78 -104.5 -148t-77.5 -114h-121q15 23 41.5 60t58.5 82.5t69 96.5t73 102q-29 37 -57 73t-52 66.5t-43 54.5t-30 39q-20 25 -28 39t-8 26q0 17 11.5 32.5t37.5 15.5q18 0 28.5 -4t14.5 -6l32.5 -42.5t44.5 -58
t53.5 -70t58.5 -77.5q27 37 51.5 72t44.5 63t34.5 48t21.5 29q19 23 36 34.5t45 11.5q26 0 42 -10.5t21 -15.5q-15 -19 -39.5 -51t-55.5 -73.5t-67 -89.5t-73 -99q41 -54 81 -106.5t75 -99t62.5 -83.5t43.5 -59h-131z" />
    <glyph glyph-name="Y" unicode="Y" horiz-adv-x="672" 
d="M54 558q-17 23 -28.5 42.5t-11.5 36.5t10.5 33.5t41.5 16.5q20 0 31 -5t15 -8q9 -13 34 -50.5t56.5 -85t66 -97.5t64.5 -88q26 37 52.5 77.5t50.5 78.5t44.5 70.5t34.5 53.5q16 24 31.5 39t44.5 15q12 0 22.5 -3t18.5 -7t13 -8t6 -5q-8 -15 -25 -43t-39.5 -63.5
t-48.5 -76t-53 -80.5t-52.5 -77t-47.5 -65v-259h-112v260q-27 33 -58.5 75t-61.5 84t-56.5 79t-42.5 60z" />
    <glyph glyph-name="Z" unicode="Z" horiz-adv-x="637" 
d="M521 687q76 0 76 -64q0 -26 -20.5 -52.5t-43.5 -55.5q-19 -24 -49 -58.5t-65 -75t-72.5 -83t-72 -81t-64 -71t-48.5 -52.5h431v-94h-561v103q16 17 48.5 53.5t73.5 83t87 98t89 100t79 89.5t57 65h-363q-51 0 -51 47q0 17 5 30t8 18h456z" />
    <glyph glyph-name="bracketleft" unicode="[" horiz-adv-x="384" 
d="M195 644v-683h151v-93h-254v813q0 56 59 56h149q52 0 52 -46q0 -17 -5.5 -29.5t-8.5 -17.5h-143z" />
    <glyph glyph-name="backslash" unicode="\" horiz-adv-x="364" 
d="M13 720q4 3 18.5 10t36.5 7q26 0 37.5 -11.5t16.5 -28.5l228 -714h-102z" />
    <glyph glyph-name="bracketright" unicode="]" horiz-adv-x="384" 
d="M45 644q-3 5 -8.5 17.5t-5.5 29.5q0 46 52 46h149q59 0 59 -56v-813h-254v93h151v683h-143z" />
    <glyph glyph-name="asciicircum" unicode="^" horiz-adv-x="518" 
d="M477 337h-100l-120 251l-120 -251h-96l146 298q17 34 36 43t40 9q17 0 29.5 -4t18.5 -8z" />
    <glyph glyph-name="underscore" unicode="_" horiz-adv-x="513" 
d="M11 -125v55h490v-55h-490z" />
    <glyph glyph-name="grave" unicode="`" horiz-adv-x="500" 
d="M146 663q0 4 3 13.5t10 19t17.5 16.5t27.5 7q13 0 23 -4.5t24 -15.5l103 -83l-35 -50z" />
    <glyph glyph-name="a" unicode="a" horiz-adv-x="595" 
d="M412 235q-3 1 -15 2t-29 2.5t-36.5 2.5t-37.5 1q-75 0 -107.5 -23t-32.5 -71q0 -20 6 -37t22 -29t43 -18.5t68 -6.5q51 0 80 4t39 7v166zM261 438q-29 0 -51.5 -5t-39 -11.5t-27.5 -14t-18 -12.5q-11 7 -19 20t-8 30t9.5 28.5t25.5 19.5q17 8 47 15.5t75 7.5
q60 0 108 -11t81.5 -36.5t51.5 -66.5t18 -100v-299q-18 -4 -75.5 -10.5t-149.5 -6.5q-75 0 -121.5 13.5t-72.5 36t-35 51.5t-9 60q0 39 12 70t39 52t71.5 32.5t109.5 11.5q45 0 81.5 -2t48.5 -4v5q0 16 -3 30q-8 47 -43.5 71.5t-105.5 24.5z" />
    <glyph glyph-name="b" unicode="b" horiz-adv-x="641" 
d="M477 254q0 82 -38 129t-110 47q-36 0 -63 -12.5t-45 -35t-27 -52.5t-9 -65v-187q8 -3 32 -7t67 -4q51 0 87.5 13.5t60 38.5t34.5 59.5t11 75.5zM82 690q0 47 55 47q16 0 29.5 -4t18.5 -6v-290q4 6 15 19t31 26.5t49.5 23.5t70.5 10q50 0 92.5 -17t74 -49.5t49.5 -80
t18 -107.5q0 -63 -19.5 -114t-58.5 -87t-98 -55.5t-138 -19.5q-39 0 -72 2t-58 4.5t-40 4.5t-19 3v690z" />
    <glyph glyph-name="c" unicode="c" horiz-adv-x="531" 
d="M329 431q-35 0 -65 -11.5t-52.5 -34t-35.5 -56t-13 -78.5q0 -47 13 -80.5t36 -56t53 -33t65 -10.5q25 0 46 5t37 11t26.5 12t14.5 9l44 -71q-9 -6 -25 -15t-38.5 -17t-51.5 -13.5t-65 -5.5q-55 0 -103 17.5t-83 51t-55.5 82.5t-20.5 112t20.5 112.5t56.5 84t84.5 52.5
t104.5 18q34 0 59.5 -4t44 -10t29.5 -12t17 -10q10 -8 17 -19t7 -26q0 -12 -8 -28.5t-24 -28.5q-6 6 -17 15t-28 17.5t-39.5 14.5t-50.5 6z" />
    <glyph glyph-name="d" unicode="d" horiz-adv-x="641" 
d="M164 254q0 -41 11 -75.5t34.5 -59.5t60 -38.5t86.5 -13.5q44 0 67.5 4t31.5 7v187q0 35 -9 65t-27 52.5t-44.5 35t-62.5 12.5q-73 0 -110.5 -47t-37.5 -129zM559 0q-4 -1 -19.5 -3t-40 -4.5t-57.5 -4.5t-72 -2q-80 0 -139 19.5t-98 55.5t-58 87t-19 114q0 60 18 107.5
t49 80t73.5 49.5t92.5 17q41 0 70.5 -10t49.5 -23.5t31 -26.5t15 -19v253q0 47 55 47q17 0 30.5 -4t18.5 -6v-727z" />
    <glyph glyph-name="e" unicode="e" horiz-adv-x="592" 
d="M540 326q0 -58 -32 -91t-109 -33h-234q9 -63 52.5 -97t117.5 -34q57 0 93.5 11.5t49.5 19.5l32 -75q-5 -3 -20.5 -10.5t-40 -14.5t-57 -12.5t-70.5 -5.5q-56 0 -104.5 16t-84.5 48t-56.5 81t-20.5 114q0 61 19.5 111.5t54.5 87t83 56.5t106 20q54 0 95.5 -14.5t69 -40
t42 -60.5t14.5 -77zM441 336q0 19 -6.5 38t-21.5 34t-38.5 24.5t-56.5 9.5q-38 0 -67 -15.5t-48.5 -39.5t-29.5 -53.5t-11 -58.5h211q36 0 52 13t16 48z" />
    <glyph glyph-name="f" unicode="f" horiz-adv-x="372" 
d="M65 416q-48 0 -48 43q0 16 5 27.5t7 15.5h82v48q0 47 14 82t39.5 58.5t61 35t77.5 11.5q50 0 74 -7.5t34 -12.5t20 -14t10 -28q0 -16 -8.5 -29t-17.5 -21q-9 8 -33 20.5t-62 12.5q-31 0 -51.5 -8.5t-32.5 -23.5t-16.5 -35.5t-4.5 -44.5v-44h113q47 0 47 -43
q0 -16 -4.5 -27.5t-6.5 -15.5h-149v-416h-104v416h-46z" />
    <glyph glyph-name="g" unicode="g" horiz-adv-x="631" 
d="M550 273q0 -57 -22 -100.5t-60 -75.5q27 -15 43.5 -32.5t25.5 -35.5t12 -34.5t3 -28.5q0 -41 -17.5 -73.5t-49.5 -55t-76.5 -35t-97.5 -12.5q-57 0 -100.5 8.5t-73 19.5t-46 21t-19.5 13l43 77q5 -4 19.5 -13t38 -18.5t55.5 -16.5t72 -7q30 0 56 5.5t45 17t30 30t11 44.5
q0 19 -12.5 42t-44.5 38q-16 -6 -40 -10t-43 -4q-54 0 -99.5 18t-78.5 50t-51.5 76t-18.5 97t19 97t52 76t78.5 49.5t98.5 17.5q24 0 47 -4t44 -12h156q26 0 36.5 -11.5t10.5 -31.5q0 -14 -5 -25t-8 -15h-90q32 -29 44.5 -69.5t12.5 -76.5zM446 278q0 72 -39.5 115.5
t-104.5 43.5q-66 0 -105.5 -44t-39.5 -115q0 -72 39.5 -116t105.5 -44q65 0 104.5 44t39.5 116z" />
    <glyph glyph-name="h" unicode="h" horiz-adv-x="636" 
d="M185 442q6 9 18.5 22t32.5 25t49.5 20.5t68.5 8.5q91 0 146 -51.5t55 -152.5v-314h-103v293q0 66 -28.5 102t-97.5 36q-35 0 -61.5 -12.5t-44 -34t-26.5 -50.5t-9 -62v-272h-103v690q0 47 55 47q16 0 29.5 -4t18.5 -6v-285z" />
    <glyph glyph-name="i" unicode="i" horiz-adv-x="282" 
d="M205 674q0 -26 -19 -44.5t-46 -18.5q-26 0 -45 18.5t-19 44.5t19 44.5t45 18.5q27 0 46 -18.5t19 -44.5zM89 455q0 25 14.5 36t40.5 11q17 0 30.5 -3.5t18.5 -5.5v-493h-104v455z" />
    <glyph glyph-name="j" unicode="j" horiz-adv-x="282" 
d="M205 674q0 -26 -19 -44.5t-46 -18.5q-26 0 -45 18.5t-19 44.5t19 44.5t45 18.5q27 0 46 -18.5t19 -44.5zM193 -30q0 -50 -14.5 -84.5t-38.5 -55.5t-56 -30.5t-67 -9.5q-21 0 -39.5 3t-34 7t-26 8.5t-14.5 6.5l28 69q5 -3 25 -9.5t48 -6.5q17 0 32.5 4.5t27 15t18.5 28.5
t7 44v495q0 25 14.5 36t40.5 11q17 0 30.5 -3.5t18.5 -5.5v-523z" />
    <glyph glyph-name="k" unicode="k" horiz-adv-x="565" 
d="M82 690q0 47 55 47q16 0 29.5 -4t18.5 -6v-421q10 8 32.5 25.5t50.5 39.5t58 45t56 43q29 23 47.5 32.5t44.5 9.5q15 0 26 -5t19.5 -11t13 -12t5.5 -8q-7 -7 -25.5 -21.5t-43.5 -34t-52.5 -40.5t-52.5 -39.5t-44.5 -33t-26.5 -19.5q43 -31 82.5 -67t74 -72.5t63.5 -72
t50 -65.5h-130q-22 30 -51.5 62t-62.5 63.5t-67.5 60.5t-66.5 52v-238h-103v690z" />
    <glyph glyph-name="l" unicode="l" horiz-adv-x="282" 
d="M89 690q0 24 14.5 35.5t40.5 11.5q17 0 30.5 -4t18.5 -6v-727h-104v690z" />
    <glyph glyph-name="m" unicode="m" horiz-adv-x="961" 
d="M297 518q64 0 114.5 -22.5t80.5 -70.5q26 42 72 67.5t109 25.5q43 0 81 -12t66 -35.5t44 -59t16 -83.5v-328h-104v293q0 72 -31 105t-88 33q-56 0 -91 -36.5t-35 -114.5v-280h-103v284q0 77 -35 112t-98 35q-49 0 -76 -9t-34 -13v-409h-103v474q4 2 20.5 9t44 15t65.5 14
t85 6z" />
    <glyph glyph-name="n" unicode="n" horiz-adv-x="633" 
d="M449 0v282q0 73 -35 111t-110 38q-51 0 -81 -9.5t-38 -13.5v-408h-103v474q4 2 22 9t48 15t70 14t88 6q55 0 100 -14.5t76.5 -41.5t48.5 -65t17 -86v-311h-103z" />
    <glyph glyph-name="o" unicode="o" horiz-adv-x="645" 
d="M589 251q0 -57 -19.5 -106t-54.5 -84.5t-84 -56t-108 -20.5t-108.5 20.5t-84.5 56t-54.5 84.5t-19.5 106t19.5 106t54.5 84.5t84.5 56t108.5 20.5t108 -20.5t84 -56t54.5 -84.5t19.5 -106zM482 251q0 40 -11 73.5t-31.5 58t-50 38t-66.5 13.5q-38 0 -67.5 -13.5t-50 -38
t-31.5 -58t-11 -73.5t11 -73.5t31.5 -58t50 -38t67.5 -13.5q37 0 66.5 13.5t50 38t31.5 58t11 73.5z" />
    <glyph glyph-name="p" unicode="p" horiz-adv-x="639" 
d="M82 473q4 2 21 9.5t45 15.5t65 14t82 6q70 0 124 -20.5t90.5 -57t55 -87.5t18.5 -111q0 -61 -18 -107.5t-49.5 -78t-74.5 -47.5t-93 -16q-41 0 -70.5 8.5t-49 19.5t-30 21t-13.5 14v-256h-103v673zM475 249q0 39 -11 73t-33 58.5t-55.5 39t-79.5 14.5q-50 0 -77 -9
t-34 -12v-246q5 -12 14.5 -27t26 -28.5t41.5 -23t63 -9.5q69 0 107 44t38 126z" />
    <glyph glyph-name="q" unicode="q" horiz-adv-x="641" 
d="M455 413q-6 3 -33.5 12t-77.5 9q-92 0 -136 -50.5t-44 -135.5q0 -82 37 -127.5t106 -45.5q37 0 65 12.5t46.5 34.5t27.5 52t9 65v174zM455 67q-4 -6 -15 -19t-31 -26t-49.5 -23t-70.5 -10q-50 0 -92.5 16.5t-74 49t-49 79.5t-17.5 108t19 111.5t55.5 87t91 57t125.5 20.5
q44 0 81 -6t64.5 -14t44.5 -15.5t22 -9.5v-673h-104v267z" />
    <glyph glyph-name="r" unicode="r" horiz-adv-x="424" 
d="M294 431q-25 0 -44 -3.5t-32.5 -8t-21.5 -9t-11 -6.5v-404h-103v457q3 3 18.5 12.5t42 20t62.5 19t81 8.5q40 0 65.5 -5t40.5 -13q28 -14 28 -41q0 -19 -8 -32t-14 -18q-10 7 -39 15t-65 8z" />
    <glyph glyph-name="s" unicode="s" horiz-adv-x="570" 
d="M277 438q-65 0 -92 -18t-27 -51q0 -27 23 -41t69 -21l86 -12q96 -14 136.5 -50.5t40.5 -95.5q0 -72 -56 -117.5t-171 -45.5q-53 0 -95.5 8.5t-72.5 19t-47.5 21t-21.5 13.5l41 72q4 -3 19.5 -11.5t40.5 -18t59 -16.5t76 -7q57 0 88 15.5t31 51.5q0 29 -22.5 44.5
t-81.5 23.5l-69 10q-84 12 -130 46.5t-46 101.5q0 31 11 59t36.5 49.5t67 34.5t102.5 13q69 0 110 -11t61 -21q41 -21 41 -51q0 -20 -11 -32.5t-22 -19.5q-2 2 -13.5 11.5t-32.5 19.5t-53 18t-75 8z" />
    <glyph glyph-name="t" unicode="t" horiz-adv-x="414" 
d="M215 416v-258q0 -50 22 -68.5t60 -18.5q16 0 30 3.5t25 8.5t18 9.5t10 6.5l40 -64q-4 -3 -15 -11.5t-29 -16.5t-43.5 -14.5t-57.5 -6.5q-43 0 -74 12t-51 33.5t-29.5 50.5t-9.5 63v271h-46q-48 0 -48 43q0 16 5 27.5t7 15.5h82v109q0 24 14.5 35.5t40.5 11.5
q17 0 30.5 -4t18.5 -6v-146h128q47 0 47 -43q0 -16 -4.5 -27.5t-6.5 -15.5h-164z" />
    <glyph glyph-name="u" unicode="u" horiz-adv-x="624" 
d="M439 455q0 24 14 35.5t40 11.5q17 0 30.5 -4t18.5 -6v-492q-7 -2 -24.5 -4t-42.5 -4.5t-55 -4t-61 -1.5q-91 0 -147.5 22t-89.5 64q-41 53 -41 141v242q0 24 14 35.5t40 11.5q17 0 30.5 -4t18.5 -6v-268q0 -76 38.5 -114t130.5 -38q35 0 56.5 2.5t29.5 4.5v376z" />
    <glyph glyph-name="v" unicode="v" horiz-adv-x="551" 
d="M543 480q-6 -22 -20.5 -58.5t-33.5 -81.5t-41.5 -94.5t-45 -96t-43 -87t-35.5 -67.5h-107q-18 32 -37.5 70.5t-39 78t-37.5 78.5t-33.5 72.5t-27 59.5t-17.5 40t-12 30t-6 30q0 18 12 33t41 15q20 0 31 -4t12 -5q17 -47 39.5 -103t46 -110.5t45.5 -104t39 -83.5
q12 23 31.5 65.5t41 93.5t43.5 105t39 99q8 22 20 34.5t40 12.5q24 0 38.5 -9t16.5 -13z" />
    <glyph glyph-name="w" unicode="w" horiz-adv-x="812" 
d="M27 393q-5 14 -10 30t-5 30q0 20 12 34.5t42 14.5q20 0 31.5 -4t13.5 -5q14 -53 31 -109t33.5 -108.5t31.5 -97.5t26 -76q20 60 45.5 144t59.5 204q8 29 23 40.5t43 11.5q21 0 33.5 -4.5t16.5 -7.5q15 -53 31 -109t32 -107.5t30 -96t24 -75.5q12 32 27.5 79.5t31.5 98.5
t31 98t24 79q7 22 19.5 33.5t40.5 11.5q23 0 37.5 -8.5t16.5 -10.5q-8 -33 -27 -91.5t-44 -126.5t-52.5 -138t-51.5 -127h-111q-8 22 -23.5 69t-32.5 100.5t-33.5 105.5t-25.5 86q-9 -36 -24.5 -88.5t-32.5 -106t-32 -99.5t-23 -67h-110q-24 58 -49 123.5t-46 122t-36 97
t-18 50.5z" />
    <glyph glyph-name="x" unicode="x" horiz-adv-x="548" 
d="M511 474q-3 -4 -19.5 -23.5t-42 -49.5t-58 -68.5t-66.5 -79.5q34 -38 67.5 -77.5t62.5 -74.5t50.5 -61.5t30.5 -39.5h-125q-20 27 -59.5 74.5t-87.5 103.5q-42 -50 -78 -97.5t-60 -80.5h-117q10 14 30 39.5t47 58.5t58 70.5t62 75.5q-25 28 -49 54t-44 47.5t-34.5 37.5
t-21.5 24q-10 11 -18 24t-8 27q0 17 11 30.5t36 13.5q19 0 28.5 -3.5t13.5 -5.5q6 -7 20 -23.5t33.5 -39t43.5 -50.5t51 -59q22 27 41 51t34.5 43.5t26 32.5t14.5 18q12 14 25.5 25t39.5 11t41.5 -10.5t20.5 -17.5z" />
    <glyph glyph-name="y" unicode="y" horiz-adv-x="545" 
d="M286 146q17 35 36.5 77.5t37.5 85t34 81.5t27 66q8 20 20.5 33t40.5 13q23 0 37.5 -9t17.5 -13q-7 -23 -19 -53.5t-26 -64.5t-30 -70t-32 -70q-32 -71 -66.5 -138.5t-73.5 -134.5q-21 -36 -41.5 -64t-44.5 -46.5t-52.5 -28.5t-64.5 -10q-25 0 -45 4t-34.5 9t-23 9.5
t-9.5 5.5l34 76q5 -4 25.5 -12t46.5 -8q20 0 36 6t31 19t29 34t30 50l26 50q-13 21 -32.5 54t-41.5 69.5t-44 74.5t-41 70.5t-32.5 56.5t-17.5 32q-7 14 -12 26.5t-5 26.5q0 19 11.5 34t40.5 15q21 0 31 -4t12 -5q5 -11 25.5 -51t47.5 -92t57 -107t54 -97z" />
    <glyph glyph-name="z" unicode="z" horiz-adv-x="541" 
d="M76 416q-47 0 -47 43q0 16 5 27.5t7 15.5h405q56 0 56 -50q0 -17 -9 -33.5t-36 -45.5q-14 -15 -38.5 -39.5t-54 -53.5t-61 -59.5t-60 -57.5t-50.5 -47.5t-32 -29.5h342v-86h-474v90q14 12 40.5 37t59.5 56.5t69 66.5t69 67t59 58.5t40 40.5h-290z" />
    <glyph glyph-name="braceleft" unicode="{" horiz-adv-x="386" 
d="M303 737q20 0 35 -10t15 -36q0 -15 -5.5 -28.5t-8.5 -18.5h-21q-40 0 -55.5 -19.5t-15.5 -53.5v-127q0 -36 -7 -60t-19 -39.5t-28 -25t-34 -16.5q18 -8 34 -17t28 -24.5t19 -39.5t7 -60v-129q0 -32 13.5 -52t57.5 -20h35v-93h-69q-38 0 -65 10.5t-44 29.5t-24.5 46
t-7.5 61v133q0 30 -8 50t-22 32t-33.5 17.5t-42.5 5.5h-5v97h5q23 0 42.5 5.5t33.5 18t22 32.5t8 50v129q0 21 3 41q6 55 42 83t96 28h19z" />
    <glyph glyph-name="bar" unicode="|" horiz-adv-x="287" 
d="M92 690q0 24 14.5 35.5t40.5 11.5q17 0 30.5 -4t18.5 -6v-859h-104v822z" />
    <glyph glyph-name="braceright" unicode="}" horiz-adv-x="386" 
d="M102 737q60 0 96 -28t42 -83q3 -20 3 -41v-129q0 -59 29.5 -82.5t76.5 -23.5h5v-97h-5q-47 0 -76.5 -23t-29.5 -82v-133q0 -68 -32.5 -107.5t-108.5 -39.5h-69v93h35q44 0 57.5 20t13.5 52v129q0 36 7 60t19 39.5t28 24.5t34 17q-18 7 -34 16.5t-28 25t-19 39.5t-7 60
v127q0 34 -15.5 53.5t-55.5 19.5h-21q-3 5 -8.5 18.5t-5.5 28.5q0 26 15 36t35 10h19z" />
    <glyph glyph-name="asciitilde" unicode="~" horiz-adv-x="625" 
d="M576 427q-3 -76 -37.5 -122t-104.5 -46q-29 0 -57.5 8t-53.5 17l-59 22q-19 7 -39.5 13t-41.5 6q-16 0 -27 -6t-18 -15.5t-11 -21.5t-5 -24h-81q4 79 39 123.5t107 44.5q26 0 52.5 -6.5t47.5 -14.5l64 -25q26 -11 43 -15t40 -4q34 0 47 20.5t16 45.5h79z" />
    <glyph glyph-name="uni00A0" unicode="&#xa0;" horiz-adv-x="241" 
 />
    <glyph glyph-name="exclamdown" unicode="&#xa1;" horiz-adv-x="255" 
d="M179 33q0 -49 -54 -49q-17 0 -31 4t-19 7v458h104v-420zM54 614q0 30 21 51.5t52 21.5q30 0 51.5 -21.5t21.5 -51.5t-21.5 -51.5t-51.5 -21.5q-31 0 -52 21.5t-21 51.5z" />
    <glyph glyph-name="cent" unicode="&#xa2;" horiz-adv-x="652" 
d="M330 80q-48 6 -88 26.5t-69.5 53.5t-46 78.5t-16.5 102.5q0 56 16.5 101.5t46 79t70 54.5t87.5 28v94q0 32 38 32q12 0 22 -2.5t12 -3.5v-117q55 -3 84 -15.5t40 -20.5q10 -8 17 -18.5t7 -25.5q0 -12 -8 -28.5t-24 -28.5q-11 11 -39.5 29t-76.5 22v-357q42 3 70 16.5
t36 19.5l22 -36t22 -35q-17 -12 -54 -28.5t-96 -21.5v-115h-72v116zM217 343q0 -75 31.5 -117t81.5 -56v345q-51 -14 -82 -57t-31 -115z" />
    <glyph glyph-name="sterling" unicode="&#xa3;" horiz-adv-x="652" 
d="M589 93v-93h-494l21 436q5 118 73 186t192 68q45 0 77.5 -6t54.5 -14t34.5 -16.5t18.5 -12.5q27 -21 27 -49q0 -20 -11.5 -35.5t-25.5 -22.5q-6 8 -18.5 20t-33.5 23.5t-49.5 19.5t-65.5 8q-47 0 -78.5 -14t-51 -38.5t-29 -56.5t-11.5 -68l-2 -44h236q48 0 48 -43
q0 -17 -5.5 -29t-7.5 -15h-275l-9 -204h385z" />
    <glyph glyph-name="currency" unicode="&#xa4;" horiz-adv-x="617" 
d="M454 343q0 31 -11.5 58t-31 47t-46 31.5t-56.5 11.5q-31 0 -57.5 -11.5t-46 -31.5t-31 -47t-11.5 -58t11.5 -58t31 -47t46 -31.5t57.5 -11.5q30 0 56.5 11.5t46 31.5t31 47t11.5 58zM498 81l-64 67q-29 -17 -59.5 -26.5t-65.5 -9.5q-34 0 -65 9.5t-60 26.5l-64 -67
l-15 15t-18 18.5t-18 18.5l-15 15l65 66q-20 29 -30.5 61t-10.5 68t10.5 68t30.5 61l-65 66l66 67l65 -67q28 17 59 26.5t65 9.5q67 0 124 -37l65 68l65 -67l-65 -66q20 -29 30.5 -61t10.5 -68q0 -35 -10.5 -67.5t-30.5 -61.5l65 -66z" />
    <glyph glyph-name="yen" unicode="&#xa5;" horiz-adv-x="646" 
d="M423 323q-14 -23 -26.5 -42.5t-21.5 -36.5h160q42 0 42 -38q0 -14 -4 -24.5t-6 -13.5h-193v-168h-111v168h-163q-42 0 -42 38q0 14 4.5 24.5t6.5 13.5h193q-10 17 -22.5 36.5t-28.5 42.5h-111q-42 0 -42 38q0 14 4.5 24.5t6.5 13.5h90q-13 18 -23.5 33t-20 29t-19.5 28
t-21 30q-21 29 -38.5 57t-17.5 54q0 19 12 33t38 14q20 0 31.5 -5.5t14.5 -7.5q14 -21 37.5 -58.5t51 -81.5t58.5 -90t60 -83q16 23 34.5 53.5t38.5 63t40.5 66t38.5 62.5q10 15 19.5 29.5t21 25.5t25.5 17.5t32 6.5q24 0 39 -9t17 -12q-29 -46 -68.5 -111.5t-87.5 -143.5
h63q42 0 42 -38q0 -14 -4 -24.5t-6 -13.5h-144z" />
    <glyph glyph-name="brokenbar" unicode="&#xa6;" horiz-adv-x="287" 
d="M92 690q0 24 14.5 35.5t40.5 11.5q17 0 30.5 -4t18.5 -6v-281h-104v244zM196 157v-289h-104v289h104z" />
    <glyph glyph-name="section" unicode="&#xa7;" horiz-adv-x="635" 
d="M357 166q24 0 45 7.5t37 21t25.5 32.5t9.5 42q0 35 -23 62t-86 38q-22 5 -42 6q-24 3 -52 3q-49 0 -82 -29t-33 -74q0 -34 25.5 -61.5t76.5 -36.5q22 -4 44 -7.5t55 -3.5zM145 404q-24 12 -42 28.5t-29.5 36.5t-17 42t-5.5 43q0 34 12.5 67t42 58.5t78 41.5t119.5 16
q72 0 124.5 -12t80.5 -28q35 -19 35 -49q0 -22 -11.5 -35t-20.5 -18q-7 5 -24 15t-42.5 19.5t-60 16.5t-76.5 7q-69 0 -107 -24t-38 -71q0 -72 103 -87q29 -4 59 -7.5t59 -8.5q106 -15 151 -58t45 -105q0 -29 -10 -54t-24.5 -44.5t-32 -33.5t-32.5 -20q46 -23 72.5 -58.5
t26.5 -89.5q0 -42 -16 -77t-48 -60.5t-80.5 -40t-113.5 -14.5q-60 0 -108 8.5t-82.5 20t-55.5 22t-26 14.5l42 78q7 -4 26 -13t48 -18.5t67.5 -17t85.5 -7.5q32 0 59 5.5t47 17t31.5 29.5t11.5 42q0 38 -27 62t-92 33l-105 15q-87 13 -140 55.5t-53 113.5q0 47 23.5 84
t70.5 60z" />
    <glyph glyph-name="dieresis" unicode="&#xa8;" horiz-adv-x="500" 
d="M152 573q-24 0 -43 18.5t-19 41.5t19 41t43 18q26 0 44 -18t18 -41t-18 -41.5t-44 -18.5zM348 573q-25 0 -43.5 18.5t-18.5 41.5t18.5 41t43.5 18q26 0 44 -18t18 -41t-18 -41.5t-44 -18.5z" />
    <glyph glyph-name="copyright" unicode="&#xa9;" horiz-adv-x="809" 
d="M422 482q-57 0 -94 -37.5t-37 -102.5q0 -66 39 -102t98 -36q32 0 57.5 9t39.5 18l32 -59q-16 -11 -50 -24t-88 -13q-42 0 -80.5 14t-67.5 40t-46 64.5t-17 88.5q0 49 17 87.5t45.5 65.5t66.5 41t81 14q40 0 72 -10.5t48 -22.5t16 -30q0 -15 -9.5 -27t-18.5 -17
q-13 13 -41 26t-63 13zM43 343q0 75 28.5 140.5t77.5 114.5t114.5 77.5t140.5 28.5t140.5 -28.5t114.5 -77.5t77.5 -114.5t28.5 -140.5t-28.5 -140.5t-77.5 -114.5t-114.5 -77.5t-140.5 -28.5t-140.5 28.5t-114.5 77.5t-77.5 114.5t-28.5 140.5zM124 343q0 -61 22 -114
t59.5 -92t88.5 -61.5t110 -22.5t110 22.5t89 61.5t60 92t22 114t-22 114t-60 92t-89 61.5t-110 22.5t-110 -22.5t-88.5 -61.5t-59.5 -92t-22 -114z" />
    <glyph glyph-name="ordfeminine" unicode="&#xaa;" horiz-adv-x="420" 
d="M182 636q-20 0 -36.5 -3.5t-29 -8.5t-21 -9.5t-11.5 -7.5q-5 3 -14.5 15t-9.5 24q0 14 6.5 21.5t14.5 13.5q8 7 33 15t68 8q91 0 140 -37.5t49 -118.5v-218q-25 -3 -68 -8t-92 -5q-60 0 -97 11t-56.5 28.5t-26 39.5t-6.5 44q0 27 8 49.5t28.5 38t54.5 24t85 8.5
q22 0 46 -2t40 -4q0 23 -8.5 38.5t-22.5 25.5t-33.5 14t-40.5 4zM214 383q30 0 47.5 1.5t25.5 3.5v105q-8 2 -30 4t-56 2q-43 0 -67.5 -13t-24.5 -46q0 -28 24 -42.5t81 -14.5z" />
    <glyph glyph-name="guillemotleft" unicode="&#xab;" horiz-adv-x="566" 
d="M391 251l139 -158l-64 -58l-161 167q-8 8 -14.5 21t-6.5 26q0 12 4.5 22t10.5 17l166 181l65 -58zM142 251l139 -158l-64 -58l-161 167q-8 8 -14.5 21t-6.5 26q0 12 4.5 22t10.5 17l166 181l65 -58z" />
    <glyph glyph-name="logicalnot" unicode="&#xac;" horiz-adv-x="633" 
d="M102 384q-29 0 -40.5 11.5t-11.5 34.5q0 17 4 28.5t6 16.5h459q29 0 41 -14.5t12 -40.5v-224h-95v188h-375z" />
    <glyph glyph-name="uni00AD" unicode="&#xad;" horiz-adv-x="362" 
d="M107 221q-30 0 -42 15t-12 38q0 17 4.5 29.5t6.5 19.5h191q30 0 42 -15t12 -38q0 -17 -4.5 -29.5t-6.5 -19.5h-191z" />
    <glyph glyph-name="registered" unicode="&#xae;" horiz-adv-x="809" 
d="M484 423q0 14 -5 27t-17 22.5t-32.5 15.5t-51.5 6q-25 0 -39.5 -0.5t-22.5 -1.5v-137q18 -3 65 -3q57 0 80 20.5t23 50.5zM559 424q0 -40 -19.5 -68t-52.5 -43q24 -35 47.5 -80t40.5 -83h-84q-5 11 -14.5 31t-20 41.5t-21.5 41.5t-19 31q-5 -1 -19.5 -1.5t-28.5 -0.5
t-28.5 0.5t-23.5 2.5v-146h-71v357q0 37 54 43q27 3 70 3q86 0 138 -29.5t52 -99.5zM43 343q0 75 28.5 140.5t77.5 114.5t114.5 77.5t140.5 28.5t140.5 -28.5t114.5 -77.5t77.5 -114.5t28.5 -140.5t-28.5 -140.5t-77.5 -114.5t-114.5 -77.5t-140.5 -28.5t-140.5 28.5
t-114.5 77.5t-77.5 114.5t-28.5 140.5zM123 343q0 -61 22 -114t60 -92.5t89 -62t110 -22.5t110 22.5t89 62t60 92.5t22 114t-22 114t-60 92t-89 61.5t-110 22.5t-110 -22.5t-89 -61.5t-60 -92t-22 -114z" />
    <glyph glyph-name="macron" unicode="&#xaf;" horiz-adv-x="500" 
d="M371 671q22 0 30 -10.5t8 -27.5q0 -13 -3 -23t-5 -13h-271q-21 0 -29.5 10.5t-8.5 28.5q0 13 3 22t5 13h271z" />
    <glyph glyph-name="degree" unicode="&#xb0;" horiz-adv-x="409" 
d="M387 557q0 -38 -14.5 -70.5t-39 -56.5t-58 -38t-71.5 -14t-71.5 14t-58 38t-39 56.5t-14.5 70.5t14.5 71t39 57t58 38t71.5 14t71.5 -14t58 -38t39 -57t14.5 -71zM309 557q0 22 -8.5 41t-22.5 33.5t-33 23t-41 8.5q-21 0 -39.5 -8.5t-33 -23t-22.5 -33.5t-8 -41
q0 -21 8 -40t22.5 -33t33 -22.5t39.5 -8.5q22 0 41 8.5t33 22.5t22.5 33t8.5 40z" />
    <glyph glyph-name="plusminus" unicode="&#xb1;" horiz-adv-x="645" 
d="M125 0q-50 0 -50 46q0 17 5 30t7 17h190v197h-152q-50 0 -50 46q0 17 5 30t7 17h190v158q0 45 51 45q16 0 29 -3.5t17 -5.5v-194h153q50 0 50 -47q0 -17 -5 -29.5t-7 -16.5h-191v-197h153q50 0 50 -47q0 -17 -5 -29.5t-7 -16.5h-440z" />
    <glyph glyph-name="twosuperior" unicode="&#xb2;" 
d="M398 603q0 -40 -17.5 -72t-46.5 -59t-66.5 -51t-78.5 -48h215v-74h-346v66q10 6 31 19.5t45.5 30t49.5 34t43 32.5q14 12 27.5 25t24.5 27t18 30t7 33q0 28 -21.5 49t-66.5 21q-24 0 -42.5 -7.5t-32 -18t-22 -20.5t-11.5 -16q-15 3 -31 13t-16 31q0 16 11 31q3 5 14 14.5
t30 19.5t45 17t59 7q85 0 131.5 -35.5t46.5 -98.5z" />
    <glyph glyph-name="threesuperior" unicode="&#xb3;" 
d="M59 658q0 20 16 36q5 5 16 12.5t29 14t43.5 11.5t60.5 5q50 0 84.5 -11t56 -27.5t31 -37.5t9.5 -40q0 -68 -72 -102q46 -17 62.5 -44.5t16.5 -60.5q0 -26 -12 -49t-35 -40t-57 -27t-78 -10q-67 0 -115.5 14.5t-68.5 24.5l28 65q18 -8 56 -20t88 -12q97 0 97 62
q0 28 -25 43.5t-76 15.5h-41q-3 2 -8 13t-5 25q0 33 42 33h13q93 0 93 59q0 25 -22 40.5t-70 15.5q-26 0 -45.5 -5.5t-34 -13t-23.5 -15.5t-13 -13q-14 3 -27.5 12t-13.5 26z" />
    <glyph glyph-name="acute" unicode="&#xb4;" horiz-adv-x="500" 
d="M182 566l-35 50l103 83q14 11 24 15.5t23 4.5q16 0 27 -7t18 -16.5t10 -19t3 -13.5z" />
    <glyph glyph-name="mu" unicode="&#xb5;" horiz-adv-x="624" 
d="M81 -201v656q0 24 14 35.5t40 11.5q17 0 30.5 -4t18.5 -6v-276q0 -72 39.5 -108t129.5 -36q35 0 56.5 2.5t29.5 4.5v376q0 24 14 35.5t40 11.5q17 0 30.5 -4t18.5 -6v-492q-7 -2 -24 -4t-41 -4.5t-53 -4t-60 -1.5q-129 0 -180 54v-241h-103z" />
    <glyph glyph-name="paragraph" unicode="&#xb6;" horiz-adv-x="662" 
d="M387 -200h-82v440q-70 5 -119.5 24t-80.5 48.5t-45 68.5t-14 84q0 51 19 93.5t58.5 73t99.5 47.5t141 17q72 0 112.5 -4.5t55.5 -6.5q21 -4 35.5 -16.5t14.5 -41.5v-827h-82v813q-16 2 -48.5 4t-64.5 2v-819z" />
    <glyph glyph-name="periodcentered" unicode="&#xb7;" horiz-adv-x="308" 
d="M229 338q0 -32 -21.5 -53.5t-52.5 -21.5q-32 0 -54 21.5t-22 53.5t22 54t54 22q31 0 52.5 -22t21.5 -54z" />
    <glyph glyph-name="cedilla" unicode="&#xb8;" horiz-adv-x="500" 
d="M243 -35q19 -1 39.5 -6t38 -15t29 -25.5t11.5 -38.5q0 -42 -30.5 -66t-84.5 -24q-51 0 -78.5 10.5t-29.5 12.5l23 51q1 -1 8 -4t18 -6t24 -5.5t26 -2.5q23 0 34.5 7t11.5 25q0 10 -6.5 16.5t-15.5 10t-19 5.5t-17 2z" />
    <glyph glyph-name="onesuperior" unicode="&#xb9;" 
d="M198 712q19 12 33 18.5t34 6.5q17 0 29.5 -5.5t19.5 -10.5v-422h-90v338l-102 -66q-10 4 -25 15t-15 29q0 25 30 44z" />
    <glyph glyph-name="ordmasculine" unicode="&#xba;" horiz-adv-x="457" 
d="M424 510q0 -40 -14 -75t-40 -61.5t-62 -41.5t-79 -15q-44 0 -80 15t-62 41.5t-40 61.5t-14 75q0 41 14.5 76.5t40 61.5t61.5 41t80 15q43 0 79 -15t62 -41t40 -61.5t14 -76.5zM335 510q0 53 -29 88t-77 35q-49 0 -77.5 -35.5t-28.5 -87.5q0 -24 7.5 -46t21 -38.5
t33.5 -26.5t44 -10t43.5 9.5t33.5 26t21.5 38.5t7.5 47z" />
    <glyph glyph-name="guillemotright" unicode="&#xbb;" horiz-adv-x="566" 
d="M285 411l65 58l160 -168q8 -8 14.5 -20.5t6.5 -25.5q0 -24 -15 -39l-167 -181l-64 58l140 163zM36 411l65 58l160 -168q8 -8 14.5 -20.5t6.5 -25.5q0 -24 -15 -39l-167 -181l-64 58l139 163z" />
    <glyph glyph-name="onequarter" unicode="&#xbc;" horiz-adv-x="995" 
d="M148 712q19 12 33 18.5t34 6.5q17 0 29.5 -5.5t19.5 -10.5v-422h-90v338l-102 -66q-10 4 -25 15t-15 29q0 25 30 44zM278 0h-99l406 702q8 13 18.5 24t36.5 11q20 0 32 -9t17 -18zM827 171h26q17 0 25 -9t8 -22q0 -12 -3.5 -22t-6.5 -15h-49v-98h-86v98h-146
q-51 0 -74 15.5t-23 51.5q0 38 23 77.5t51 71.5q22 25 48 47.5t53 39.5t52.5 27t46.5 10q24 0 37 -5t18 -8v-259zM589 196q0 -16 11.5 -20t28.5 -4h112v188q-26 -12 -54 -33t-48 -44q-19 -20 -34.5 -44t-15.5 -43z" />
    <glyph glyph-name="onehalf" unicode="&#xbd;" horiz-adv-x="995" 
d="M139 712q19 12 33 18.5t34 6.5q17 0 29.5 -5.5t19.5 -10.5v-422h-90v338l-102 -66q-10 4 -25 15t-15 29q0 25 30 44zM269 0h-99l406 702q8 13 18.5 24t36.5 11q20 0 32 -9t17 -18zM878 309q0 -40 -17.5 -72t-46.5 -59t-66.5 -51t-78.5 -48h215v-74h-346v66q10 6 31 19.5
t45.5 30t49.5 34t43 32.5q14 12 27.5 25t24.5 27t18 30t7 33q0 28 -21.5 49t-66.5 21q-24 0 -42.5 -7.5t-32 -18t-22 -20.5t-11.5 -16q-15 3 -31 13t-16 31q0 16 11 31q3 5 14 14.5t30 19.5t45 17t59 7q85 0 131.5 -35.5t46.5 -98.5z" />
    <glyph glyph-name="threequarters" unicode="&#xbe;" horiz-adv-x="995" 
d="M57 658q0 20 16 36q5 5 16 12.5t29 14t43.5 11.5t60.5 5q50 0 84.5 -11t56 -27.5t31 -37.5t9.5 -40q0 -68 -72 -102q46 -17 62.5 -44.5t16.5 -60.5q0 -26 -12 -49t-35 -40t-57 -27t-78 -10q-67 0 -115.5 14.5t-68.5 24.5l28 65q18 -8 56 -20t88 -12q97 0 97 62
q0 28 -25 43.5t-76 15.5h-41q-3 2 -8 13t-5 25q0 33 42 33h13q93 0 93 59q0 25 -22 40.5t-70 15.5q-26 0 -45.5 -5.5t-34 -13t-23.5 -15.5t-13 -13q-14 3 -27.5 12t-13.5 26zM342 0h-99l406 702q8 13 18.5 24t36.5 11q20 0 32 -9t17 -18zM891 171h26q17 0 25 -9t8 -22
q0 -12 -3.5 -22t-6.5 -15h-49v-98h-86v98h-146q-51 0 -74 15.5t-23 51.5q0 38 23 77.5t51 71.5q22 25 48 47.5t53 39.5t52.5 27t46.5 10q24 0 37 -5t18 -8v-259zM653 196q0 -16 11.5 -20t28.5 -4h112v188q-26 -12 -54 -33t-48 -44q-19 -20 -34.5 -44t-15.5 -43z" />
    <glyph glyph-name="questiondown" unicode="&#xbf;" horiz-adv-x="560" 
d="M310 66q42 0 70 12.5t46 28.5t27 31.5t11 21.5q58 -8 58 -52q0 -15 -6 -27.5t-16 -24.5q-4 -5 -17 -17t-37 -24t-60 -21t-85 -9q-65 0 -110 16t-73.5 42.5t-41.5 60.5t-13 70q0 35 8.5 62.5t22.5 49t32 38.5t37 31q12 10 23 17.5t21 14.5q34 22 47 41t15 52h103v-18
t-2 -18q-2 -23 -9 -41t-19 -32t-28.5 -26t-35.5 -23q-52 -30 -80 -62t-28 -79q0 -23 8 -44t24.5 -36.5t43 -25t64.5 -9.5zM248 632q0 30 21 51t51 21t51.5 -21t21.5 -51q0 -31 -21.5 -52t-51.5 -21t-51 21t-21 52z" />
    <glyph glyph-name="Agrave" unicode="&#xc0;" horiz-adv-x="737" 
d="M17 0q31 84 67 174t70.5 174t65.5 156t53 119q20 44 41.5 60.5t54.5 16.5q31 0 47 -10t24 -18q18 -31 43 -85.5t53 -120t56.5 -136.5t53.5 -135.5t44.5 -116t29.5 -78.5h-116q-5 11 -12.5 31.5t-16.5 45t-19 51t-19 50.5h-345q-23 -57 -40 -104t-27 -74h-108zM366 598
q-11 -23 -26.5 -58.5t-34 -79t-38.5 -92.5t-39 -98h273q-18 48 -38.5 98.5t-39 96t-33.5 81t-24 52.5zM229 831q0 6 3.5 16.5t11.5 20.5t21 17.5t32 7.5q13 0 23.5 -3.5t25.5 -13.5l119 -79l-35 -55z" />
    <glyph glyph-name="Aacute" unicode="&#xc1;" horiz-adv-x="737" 
d="M17 0q31 84 67 174t70.5 174t65.5 156t53 119q20 44 41.5 60.5t54.5 16.5q31 0 47 -10t24 -18q18 -31 43 -85.5t53 -120t56.5 -136.5t53.5 -135.5t44.5 -116t29.5 -78.5h-116q-5 11 -12.5 31.5t-16.5 45t-19 51t-19 50.5h-345q-23 -57 -40 -104t-27 -74h-108zM366 598
q-11 -23 -26.5 -58.5t-34 -79t-38.5 -92.5t-39 -98h273q-18 48 -38.5 98.5t-39 96t-33.5 81t-24 52.5zM310 742l-35 55l119 79q15 10 25.5 13.5t23.5 3.5q19 0 32 -7.5t21 -17.5t11.5 -20.5t3.5 -16.5z" />
    <glyph glyph-name="Acircumflex" unicode="&#xc2;" horiz-adv-x="737" 
d="M17 0q31 84 67 174t70.5 174t65.5 156t53 119q20 44 41.5 60.5t54.5 16.5q31 0 47 -10t24 -18q18 -31 43 -85.5t53 -120t56.5 -136.5t53.5 -135.5t44.5 -116t29.5 -78.5h-116q-5 11 -12.5 31.5t-16.5 45t-19 51t-19 50.5h-345q-23 -57 -40 -104t-27 -74h-108zM366 598
q-11 -23 -26.5 -58.5t-34 -79t-38.5 -92.5t-39 -98h273q-18 48 -38.5 98.5t-39 96t-33.5 81t-24 52.5zM369 893q18 0 34 -10t31 -22l97 -77l-41 -42l-121 68l-123 -68l-40 42l97 77q17 14 31.5 23t34.5 9z" />
    <glyph glyph-name="Atilde" unicode="&#xc3;" horiz-adv-x="737" 
d="M17 0q31 84 67 174t70.5 174t65.5 156t53 119q20 44 41.5 60.5t54.5 16.5q31 0 47 -10t24 -18q18 -31 43 -85.5t53 -120t56.5 -136.5t53.5 -135.5t44.5 -116t29.5 -78.5h-116q-5 11 -12.5 31.5t-16.5 45t-19 51t-19 50.5h-345q-23 -57 -40 -104t-27 -74h-108zM366 598
q-11 -23 -26.5 -58.5t-34 -79t-38.5 -92.5t-39 -98h273q-18 48 -38.5 98.5t-39 96t-33.5 81t-24 52.5zM342 787q-11 4 -21 6.5t-21 2.5q-15 0 -23.5 -9t-13.5 -28l-68 13q4 18 11.5 36.5t19.5 32.5t30 23t42 9q23 0 42 -4.5t36 -10.5l18 -6q9 -2 20.5 -5.5t22.5 -3.5
q16 0 24.5 9t13.5 27l68 -12q-4 -19 -11.5 -37t-20 -32.5t-30.5 -23t-42 -8.5q-21 0 -38.5 4.5t-34.5 9.5z" />
    <glyph glyph-name="Adieresis" unicode="&#xc4;" horiz-adv-x="737" 
d="M17 0q31 84 67 174t70.5 174t65.5 156t53 119q20 44 41.5 60.5t54.5 16.5q31 0 47 -10t24 -18q18 -31 43 -85.5t53 -120t56.5 -136.5t53.5 -135.5t44.5 -116t29.5 -78.5h-116q-5 11 -12.5 31.5t-16.5 45t-19 51t-19 50.5h-345q-23 -57 -40 -104t-27 -74h-108zM366 598
q-11 -23 -26.5 -58.5t-34 -79t-38.5 -92.5t-39 -98h273q-18 48 -38.5 98.5t-39 96t-33.5 81t-24 52.5zM472 747q-26 0 -45 19t-19 42q0 12 5 23t14 19.5t20.5 13.5t24.5 5q26 0 45 -19t19 -42q0 -11 -5 -22t-14 -19.5t-20.5 -14t-24.5 -5.5zM263 747q-25 0 -44 19t-19 42
q0 12 5 23t14 19.5t20.5 13.5t23.5 5q26 0 45 -19t19 -42q0 -11 -5 -22t-14 -19.5t-20.5 -14t-24.5 -5.5z" />
    <glyph glyph-name="Aring" unicode="&#xc5;" horiz-adv-x="737" 
d="M265 755q0 21 8 39t22 32t33 22t40 8t40 -8t33 -22t22 -32t8 -39q0 -23 -10.5 -43.5t-28.5 -34.5q4 -2 8 -5q18 -31 43 -85.5t53 -120t56.5 -136.5t53.5 -135.5t44.5 -116t28.5 -78.5h-115q-5 11 -12.5 31.5t-16.5 45t-19 51t-19 50.5h-345q-23 -57 -40.5 -104t-27.5 -74
h-107q31 83 66.5 173t70 174t66 156t53.5 120q17 37 33 53q-19 13 -30 34t-11 45zM365 598q-11 -23 -26.5 -58.5t-33.5 -79t-38 -93t-39 -98.5h273q-18 48 -38.5 99t-39 96.5t-34 81t-24.5 52.5zM320 755q0 -21 13.5 -35.5t34.5 -14.5q23 0 36 14.5t13 35.5q0 23 -13 37
t-36 14q-21 0 -34.5 -14t-13.5 -37z" />
    <glyph glyph-name="AE" unicode="&#xc6;" horiz-adv-x="1071" 
d="M547 0v195h-310q-35 -58 -65 -109t-49 -86h-111q60 105 119.5 205t111 183t91 144.5t59.5 89.5q24 35 47 50t56 15h452q50 0 50 -47q0 -17 -5 -30t-8 -18h-328v-194h277q50 0 50 -47q0 -17 -5 -30t-8 -18h-314v-209h336v-94h-446zM484 592q-10 -13 -29.5 -43.5t-46 -71.5
t-56.5 -90t-61 -99h256v304h-63z" />
    <glyph glyph-name="Ccedilla" unicode="&#xc7;" horiz-adv-x="685" 
d="M642 602q0 -12 -5 -22.5t-11.5 -19t-14 -14.5t-12.5 -9q-9 10 -25 23t-40 24.5t-55 19.5t-68 8q-53 0 -97.5 -19t-77 -54t-50.5 -84.5t-18 -111.5q0 -65 19 -114.5t52 -83t78.5 -51t99.5 -17.5q37 0 68 6.5t54 15t38.5 17t23.5 13.5l47 -81q-8 -6 -28 -17t-50.5 -21.5
t-71 -18.5t-88.5 -8q-74 0 -138.5 23.5t-112.5 69.5t-75.5 112.5t-27.5 153.5q0 84 27.5 151.5t75.5 114t113 71.5t139 25q77 0 128 -18t71 -33q17 -13 24.5 -26t7.5 -25zM348 -35q19 -1 40.5 -6t39.5 -15t29.5 -26t11.5 -39q0 -43 -31 -67.5t-85 -24.5q-26 0 -46 3.5t-34 8
t-21.5 8.5t-8.5 5l24 54q1 -1 8.5 -4t18.5 -6.5t24 -6t26 -2.5q21 0 32 6.5t11 23.5q0 9 -6.5 15t-15.5 9.5t-19 5t-17 1.5z" />
    <glyph glyph-name="Egrave" unicode="&#xc8;" horiz-adv-x="623" 
d="M200 303v-209h345v-94h-453v627q0 29 15.5 44.5t47.5 15.5h345q50 0 50 -47q0 -17 -5 -30t-8 -18h-337v-194h286q50 0 50 -47q0 -17 -5 -30t-8 -18h-323zM203 831q0 6 3.5 16.5t11.5 20.5t21 17.5t32 7.5q13 0 23.5 -3.5t25.5 -13.5l119 -79l-35 -55z" />
    <glyph glyph-name="Eacute" unicode="&#xc9;" horiz-adv-x="623" 
d="M200 303v-209h345v-94h-453v627q0 29 15.5 44.5t47.5 15.5h345q50 0 50 -47q0 -17 -5 -30t-8 -18h-337v-194h286q50 0 50 -47q0 -17 -5 -30t-8 -18h-323zM260 742l-35 55l119 79q15 10 25.5 13.5t23.5 3.5q19 0 32 -7.5t21 -17.5t11.5 -20.5t3.5 -16.5z" />
    <glyph glyph-name="Ecircumflex" unicode="&#xca;" horiz-adv-x="623" 
d="M200 303v-209h345v-94h-453v627q0 29 15.5 44.5t47.5 15.5h345q50 0 50 -47q0 -17 -5 -30t-8 -18h-337v-194h286q50 0 50 -47q0 -17 -5 -30t-8 -18h-323zM338 893q18 0 34 -10t31 -22l97 -77l-41 -42l-121 68l-123 -68l-40 42l97 77q17 14 31.5 23t34.5 9z" />
    <glyph glyph-name="Edieresis" unicode="&#xcb;" horiz-adv-x="623" 
d="M200 303v-209h345v-94h-453v627q0 29 15.5 44.5t47.5 15.5h345q50 0 50 -47q0 -17 -5 -30t-8 -18h-337v-194h286q50 0 50 -47q0 -17 -5 -30t-8 -18h-323zM447 747q-26 0 -45 19t-19 42q0 12 5 23t14 19.5t20.5 13.5t24.5 5q26 0 45 -19t19 -42q0 -11 -5 -22t-14 -19.5
t-20.5 -14t-24.5 -5.5zM238 747q-25 0 -44 19t-19 42q0 12 5 23t14 19.5t20.5 13.5t23.5 5q26 0 45 -19t19 -42q0 -11 -5 -22t-14 -19.5t-20.5 -14t-24.5 -5.5z" />
    <glyph glyph-name="Igrave" unicode="&#xcc;" horiz-adv-x="292" 
d="M92 636q0 26 15 38.5t42 12.5q17 0 31.5 -4.5t19.5 -7.5v-675h-108v636zM41 831q0 6 3.5 16.5t11.5 20.5t21 17.5t32 7.5q13 0 23.5 -3.5t25.5 -13.5l119 -79l-35 -55z" />
    <glyph glyph-name="Iacute" unicode="&#xcd;" horiz-adv-x="292" 
d="M92 636q0 26 15 38.5t42 12.5q17 0 31.5 -4.5t19.5 -7.5v-675h-108v636zM62 742l-35 55l119 79q15 10 25.5 13.5t23.5 3.5q19 0 32 -7.5t21 -17.5t11.5 -20.5t3.5 -16.5z" />
    <glyph glyph-name="Icircumflex" unicode="&#xce;" horiz-adv-x="292" 
d="M92 636q0 26 15 38.5t42 12.5q17 0 31.5 -4.5t19.5 -7.5v-675h-108v636zM152 893q18 0 34 -10t31 -22l97 -77l-41 -42l-121 68l-123 -68l-40 42l97 77q17 14 31.5 23t34.5 9z" />
    <glyph glyph-name="Idieresis" unicode="&#xcf;" horiz-adv-x="292" 
d="M92 636q0 26 15 38.5t42 12.5q17 0 31.5 -4.5t19.5 -7.5v-675h-108v636zM255 747q-26 0 -45 19t-19 42q0 12 5 23t14 19.5t20.5 13.5t24.5 5q26 0 45 -19t19 -42q0 -11 -5 -22t-14 -19.5t-20.5 -14t-24.5 -5.5zM46 747q-25 0 -44 19t-19 42q0 12 5 23t14 19.5t20.5 13.5
t23.5 5q26 0 45 -19t19 -42q0 -11 -5 -22t-14 -19.5t-20.5 -14t-24.5 -5.5z" />
    <glyph glyph-name="Eth" unicode="&#xd0;" horiz-adv-x="793" 
d="M125 305h-44q-25 0 -35.5 13t-10.5 36q0 15 4 26t6 16h80v231q0 29 16 44.5t48 15.5h178q84 0 151.5 -24.5t115 -69t72.5 -108t25 -141.5t-25 -141.5t-72.5 -108.5t-115 -69.5t-151.5 -24.5h-242v305zM233 305v-215h128q63 0 111 19t80.5 53t49.5 80.5t17 101.5
t-17 101.5t-49.5 80.5t-80.5 52.5t-111 18.5h-128v-201h139q26 0 36 -13t10 -35q0 -16 -4 -27t-6 -16h-175z" />
    <glyph glyph-name="Ntilde" unicode="&#xd1;" horiz-adv-x="761" 
d="M228 664q10 -13 32 -43.5t50 -71.5t61 -90.5t67 -101t66 -101.5t58 -92v472q0 26 15 38.5t41 12.5q18 0 32 -4.5t19 -7.5v-675h-113q-25 38 -55.5 85.5t-63.5 99t-67 103.5t-65.5 99t-59 86.5t-47.5 66.5v-540h-106v630q0 21 17 39t51 18q26 0 42.5 -8.5t25.5 -14.5z
M369 777q-9 3 -18.5 5.5t-20.5 2.5q-14 0 -22 -9t-13 -28l-71 13q4 19 11 37.5t19.5 33.5t30.5 24t43 9q23 0 42.5 -4.5t36.5 -10.5l26 -9q8 -2 16.5 -4t16.5 -2q15 0 23 9t13 27l72 -12q-4 -20 -11.5 -38.5t-20.5 -33t-31 -23.5t-43 -9q-22 0 -39.5 4.5t-33.5 9.5z" />
    <glyph glyph-name="Ograve" unicode="&#xd2;" horiz-adv-x="829" 
d="M767 344q0 -77 -26 -143t-72.5 -114.5t-111.5 -76t-143 -27.5t-142.5 27.5t-111 76t-72.5 114.5t-26 143t26 143t72.5 114t111 75.5t142.5 27.5t143 -27.5t111.5 -75.5t72.5 -114t26 -143zM654 344q0 58 -17 107t-48.5 85t-75.5 56t-98 20t-98.5 -20t-76 -56t-48.5 -85
t-17 -107t17 -107.5t48.5 -85.5t76 -56.5t98.5 -20.5t98 20.5t75.5 56.5t48.5 85.5t17 107.5zM294 831q0 6 3.5 16.5t11.5 20.5t21 17.5t32 7.5q13 0 23.5 -3.5t25.5 -13.5l119 -79l-35 -55z" />
    <glyph glyph-name="Oacute" unicode="&#xd3;" horiz-adv-x="829" 
d="M767 344q0 -77 -26 -143t-72.5 -114.5t-111.5 -76t-143 -27.5t-142.5 27.5t-111 76t-72.5 114.5t-26 143t26 143t72.5 114t111 75.5t142.5 27.5t143 -27.5t111.5 -75.5t72.5 -114t26 -143zM654 344q0 58 -17 107t-48.5 85t-75.5 56t-98 20t-98.5 -20t-76 -56t-48.5 -85
t-17 -107t17 -107.5t48.5 -85.5t76 -56.5t98.5 -20.5t98 20.5t75.5 56.5t48.5 85.5t17 107.5zM340 742l-35 55l119 79q15 10 25.5 13.5t23.5 3.5q19 0 32 -7.5t21 -17.5t11.5 -20.5t3.5 -16.5z" />
    <glyph glyph-name="Ocircumflex" unicode="&#xd4;" horiz-adv-x="829" 
d="M767 344q0 -77 -26 -143t-72.5 -114.5t-111.5 -76t-143 -27.5t-142.5 27.5t-111 76t-72.5 114.5t-26 143t26 143t72.5 114t111 75.5t142.5 27.5t143 -27.5t111.5 -75.5t72.5 -114t26 -143zM654 344q0 58 -17 107t-48.5 85t-75.5 56t-98 20t-98.5 -20t-76 -56t-48.5 -85
t-17 -107t17 -107.5t48.5 -85.5t76 -56.5t98.5 -20.5t98 20.5t75.5 56.5t48.5 85.5t17 107.5zM415 893q18 0 34 -10t31 -22l97 -77l-41 -42l-121 68l-123 -68l-40 42l97 77q17 14 31.5 23t34.5 9z" />
    <glyph glyph-name="Otilde" unicode="&#xd5;" horiz-adv-x="829" 
d="M767 344q0 -77 -26 -143t-72.5 -114.5t-111.5 -76t-143 -27.5t-142.5 27.5t-111 76t-72.5 114.5t-26 143t26 143t72.5 114t111 75.5t142.5 27.5t143 -27.5t111.5 -75.5t72.5 -114t26 -143zM654 344q0 58 -17 107t-48.5 85t-75.5 56t-98 20t-98.5 -20t-76 -56t-48.5 -85
t-17 -107t17 -107.5t48.5 -85.5t76 -56.5t98.5 -20.5t98 20.5t75.5 56.5t48.5 85.5t17 107.5zM390 777q-9 3 -18.5 5.5t-20.5 2.5q-14 0 -22 -9t-13 -28l-71 13q4 19 11 37.5t19.5 33.5t30.5 24t43 9q23 0 42.5 -4.5t36.5 -10.5l26 -9q8 -2 16.5 -4t16.5 -2q15 0 23 9t13 27
l72 -12q-4 -20 -11.5 -38.5t-20.5 -33t-31 -23.5t-43 -9q-22 0 -39.5 4.5t-33.5 9.5z" />
    <glyph glyph-name="Odieresis" unicode="&#xd6;" horiz-adv-x="829" 
d="M767 344q0 -77 -26 -143t-72.5 -114.5t-111.5 -76t-143 -27.5t-142.5 27.5t-111 76t-72.5 114.5t-26 143t26 143t72.5 114t111 75.5t142.5 27.5t143 -27.5t111.5 -75.5t72.5 -114t26 -143zM654 344q0 58 -17 107t-48.5 85t-75.5 56t-98 20t-98.5 -20t-76 -56t-48.5 -85
t-17 -107t17 -107.5t48.5 -85.5t76 -56.5t98.5 -20.5t98 20.5t75.5 56.5t48.5 85.5t17 107.5zM518 747q-26 0 -45 19t-19 42q0 12 5 23t14 19.5t20.5 13.5t24.5 5q26 0 45 -19t19 -42q0 -11 -5 -22t-14 -19.5t-20.5 -14t-24.5 -5.5zM309 747q-25 0 -44 19t-19 42q0 12 5 23
t14 19.5t20.5 13.5t23.5 5q26 0 45 -19t19 -42q0 -11 -5 -22t-14 -19.5t-20.5 -14t-24.5 -5.5z" />
    <glyph glyph-name="multiply" unicode="&#xd7;" horiz-adv-x="652" 
d="M328 274l-109 -114q-11 -11 -19.5 -15.5t-17.5 -4.5q-17 0 -32 15q-12 11 -18 22.5t-8 16.5l137 142l-120 114q-17 17 -17 32q0 17 18 35q11 11 22 18t16 9l144 -139l111 116q19 20 37 20q14 0 32 -16q12 -11 18 -22t8 -17l-139 -143l120 -113q16 -16 16 -32
q0 -18 -17 -35q-11 -11 -22 -18t-16 -9z" />
    <glyph glyph-name="Oslash" unicode="&#xd8;" horiz-adv-x="829" 
d="M147 -88l65 131q-70 48 -110 126t-40 175q0 77 26 143t72.5 114t111 75.5t142.5 27.5q66 0 122 -21l27 52q8 17 19.5 28.5t37.5 11.5q22 0 38 -7t19 -10l-58 -115q69 -48 108.5 -125.5t39.5 -173.5q0 -77 -26 -143t-72.5 -114.5t-111.5 -76t-143 -27.5q-64 0 -119 20
l-46 -91h-102zM175 344q0 -66 22 -120t61 -90l236 463q-36 15 -79 15q-54 0 -98.5 -20t-76 -56t-48.5 -85t-17 -107zM654 344q0 64 -21.5 117.5t-59.5 89.5l-236 -463q37 -14 78 -14q54 0 98 20.5t75.5 56.5t48.5 85.5t17 107.5z" />
    <glyph glyph-name="Ugrave" unicode="&#xd9;" horiz-adv-x="774" 
d="M84 636q0 26 15 38.5t42 12.5q17 0 31 -4.5t19 -7.5v-363q0 -56 10 -100t33 -75t60.5 -47.5t92.5 -16.5t92.5 16.5t60.5 47.5t33 75t10 100v324q0 51 56 51q18 0 32 -4.5t19 -7.5v-373q0 -158 -74.5 -238.5t-228.5 -80.5t-228.5 80.5t-74.5 238.5v334zM267 831
q0 6 3.5 16.5t11.5 20.5t21 17.5t32 7.5q13 0 23.5 -3.5t25.5 -13.5l119 -79l-35 -55z" />
    <glyph glyph-name="Uacute" unicode="&#xda;" horiz-adv-x="774" 
d="M84 636q0 26 15 38.5t42 12.5q17 0 31 -4.5t19 -7.5v-363q0 -56 10 -100t33 -75t60.5 -47.5t92.5 -16.5t92.5 16.5t60.5 47.5t33 75t10 100v324q0 51 56 51q18 0 32 -4.5t19 -7.5v-373q0 -158 -74.5 -238.5t-228.5 -80.5t-228.5 80.5t-74.5 238.5v334zM333 742l-35 55
l119 79q15 10 25.5 13.5t23.5 3.5q19 0 32 -7.5t21 -17.5t11.5 -20.5t3.5 -16.5z" />
    <glyph glyph-name="Ucircumflex" unicode="&#xdb;" horiz-adv-x="774" 
d="M84 636q0 26 15 38.5t42 12.5q17 0 31 -4.5t19 -7.5v-363q0 -56 10 -100t33 -75t60.5 -47.5t92.5 -16.5t92.5 16.5t60.5 47.5t33 75t10 100v324q0 51 56 51q18 0 32 -4.5t19 -7.5v-373q0 -158 -74.5 -238.5t-228.5 -80.5t-228.5 80.5t-74.5 238.5v334zM402 893
q18 0 34 -10t31 -22l97 -77l-41 -42l-121 68l-123 -68l-40 42l97 77q17 14 31.5 23t34.5 9z" />
    <glyph glyph-name="Udieresis" unicode="&#xdc;" horiz-adv-x="774" 
d="M84 636q0 26 15 38.5t42 12.5q17 0 31 -4.5t19 -7.5v-363q0 -56 10 -100t33 -75t60.5 -47.5t92.5 -16.5t92.5 16.5t60.5 47.5t33 75t10 100v324q0 51 56 51q18 0 32 -4.5t19 -7.5v-373q0 -158 -74.5 -238.5t-228.5 -80.5t-228.5 80.5t-74.5 238.5v334zM505 747
q-26 0 -45 19t-19 42q0 12 5 23t14 19.5t20.5 13.5t24.5 5q26 0 45 -19t19 -42q0 -11 -5 -22t-14 -19.5t-20.5 -14t-24.5 -5.5zM296 747q-25 0 -44 19t-19 42q0 12 5 23t14 19.5t20.5 13.5t23.5 5q26 0 45 -19t19 -42q0 -11 -5 -22t-14 -19.5t-20.5 -14t-24.5 -5.5z" />
    <glyph glyph-name="Yacute" unicode="&#xdd;" horiz-adv-x="672" 
d="M54 558q-17 23 -28.5 42.5t-11.5 36.5t10.5 33.5t41.5 16.5q20 0 31 -5t15 -8q9 -13 34 -50.5t56.5 -85t66 -97.5t64.5 -88q26 37 52.5 77.5t50.5 78.5t44.5 70.5t34.5 53.5q16 24 31.5 39t44.5 15q12 0 22.5 -3t18.5 -7t13 -8t6 -5q-8 -15 -25 -43t-39.5 -63.5
t-48.5 -76t-53 -80.5t-52.5 -77t-47.5 -65v-259h-112v260q-27 33 -58.5 75t-61.5 84t-56.5 79t-42.5 60zM284 752l-35 50l103 83q14 11 24 15.5t23 4.5q16 0 27 -7t18 -16.5t10 -19t3 -13.5z" />
    <glyph glyph-name="Thorn" unicode="&#xde;" horiz-adv-x="631" 
d="M199 568h147q58 0 102 -18t72.5 -48.5t43 -71t14.5 -85.5q0 -43 -15 -83.5t-47.5 -71.5t-83 -50t-120.5 -19q-48 0 -76.5 4.5t-36.5 6.5v-132h-107v636q0 26 15 38.5t42 12.5q17 0 31 -4.5t19 -7.5v-107zM467 345q0 28 -7.5 52.5t-24.5 43t-44.5 29t-68.5 10.5h-123v-262
q12 -2 37 -5.5t56 -3.5q49 0 82.5 11t54 29.5t29.5 43t9 52.5z" />
    <glyph glyph-name="germandbls" unicode="&#xdf;" horiz-adv-x="633" 
d="M265 443h34q56 0 85 31t29 80q0 21 -7.5 40t-22.5 33.5t-37.5 23t-52.5 8.5q-37 0 -61.5 -11t-39 -30t-20.5 -45t-6 -56v-517h-103v522q0 46 12.5 85.5t40.5 68t72 45t107 16.5t105.5 -16.5t68 -42.5t36.5 -57t11 -61q0 -26 -7 -48.5t-18.5 -41.5t-26.5 -32.5t-31 -20.5
q32 -8 60 -23.5t49 -41t33 -60.5t12 -81q0 -52 -17.5 -93.5t-48.5 -70t-74 -43.5t-93 -15q-49 0 -82.5 9t-40.5 12l20 79q3 -2 11.5 -4.5t21.5 -5t27.5 -4.5t29.5 -2q34 0 59.5 11t43 29.5t26.5 43.5t9 53q0 70 -41 108.5t-121 38.5h-52v86z" />
    <glyph glyph-name="agrave" unicode="&#xe0;" horiz-adv-x="595" 
d="M412 235q-3 1 -15 2t-29 2.5t-36.5 2.5t-37.5 1q-75 0 -107.5 -23t-32.5 -71q0 -20 6 -37t22 -29t43 -18.5t68 -6.5q51 0 80 4t39 7v166zM261 438q-29 0 -51.5 -5t-39 -11.5t-27.5 -14t-18 -12.5q-11 7 -19 20t-8 30t9.5 28.5t25.5 19.5q17 8 47 15.5t75 7.5
q60 0 108 -11t81.5 -36.5t51.5 -66.5t18 -100v-299q-18 -4 -75.5 -10.5t-149.5 -6.5q-75 0 -121.5 13.5t-72.5 36t-35 51.5t-9 60q0 39 12 70t39 52t71.5 32.5t109.5 11.5q45 0 81.5 -2t48.5 -4v5q0 16 -3 30q-8 47 -43.5 71.5t-105.5 24.5zM181 663q0 4 3 13.5t10 19
t17.5 16.5t27.5 7q13 0 23 -4.5t24 -15.5l103 -83l-35 -50z" />
    <glyph glyph-name="aacute" unicode="&#xe1;" horiz-adv-x="595" 
d="M412 235q-3 1 -15 2t-29 2.5t-36.5 2.5t-37.5 1q-75 0 -107.5 -23t-32.5 -71q0 -20 6 -37t22 -29t43 -18.5t68 -6.5q51 0 80 4t39 7v166zM261 438q-29 0 -51.5 -5t-39 -11.5t-27.5 -14t-18 -12.5q-11 7 -19 20t-8 30t9.5 28.5t25.5 19.5q17 8 47 15.5t75 7.5
q60 0 108 -11t81.5 -36.5t51.5 -66.5t18 -100v-299q-18 -4 -75.5 -10.5t-149.5 -6.5q-75 0 -121.5 13.5t-72.5 36t-35 51.5t-9 60q0 39 12 70t39 52t71.5 32.5t109.5 11.5q45 0 81.5 -2t48.5 -4v5q0 16 -3 30q-8 47 -43.5 71.5t-105.5 24.5zM268 566l-35 50l103 83
q14 11 24 15.5t23 4.5q16 0 27 -7t18 -16.5t10 -19t3 -13.5z" />
    <glyph glyph-name="acircumflex" unicode="&#xe2;" horiz-adv-x="595" 
d="M412 235q-3 1 -15 2t-29 2.5t-36.5 2.5t-37.5 1q-75 0 -107.5 -23t-32.5 -71q0 -20 6 -37t22 -29t43 -18.5t68 -6.5q51 0 80 4t39 7v166zM261 438q-29 0 -51.5 -5t-39 -11.5t-27.5 -14t-18 -12.5q-11 7 -19 20t-8 30t9.5 28.5t25.5 19.5q17 8 47 15.5t75 7.5
q60 0 108 -11t81.5 -36.5t51.5 -66.5t18 -100v-299q-18 -4 -75.5 -10.5t-149.5 -6.5q-75 0 -121.5 13.5t-72.5 36t-35 51.5t-9 60q0 39 12 70t39 52t71.5 32.5t109.5 11.5q45 0 81.5 -2t48.5 -4v5q0 16 -3 30q-8 47 -43.5 71.5t-105.5 24.5zM305 721q18 0 31.5 -9.5
t27.5 -22.5l87 -81l-41 -42l-105 75l-105 -75l-41 42l87 81q14 14 27.5 23t31.5 9z" />
    <glyph glyph-name="atilde" unicode="&#xe3;" horiz-adv-x="595" 
d="M412 235q-3 1 -15 2t-29 2.5t-36.5 2.5t-37.5 1q-75 0 -107.5 -23t-32.5 -71q0 -20 6 -37t22 -29t43 -18.5t68 -6.5q51 0 80 4t39 7v166zM261 438q-29 0 -51.5 -5t-39 -11.5t-27.5 -14t-18 -12.5q-11 7 -19 20t-8 30t9.5 28.5t25.5 19.5q17 8 47 15.5t75 7.5
q60 0 108 -11t81.5 -36.5t51.5 -66.5t18 -100v-299q-18 -4 -75.5 -10.5t-149.5 -6.5q-75 0 -121.5 13.5t-72.5 36t-35 51.5t-9 60q0 39 12 70t39 52t71.5 32.5t109.5 11.5q45 0 81.5 -2t48.5 -4v5q0 16 -3 30q-8 47 -43.5 71.5t-105.5 24.5zM276 601q-11 4 -21 6.5t-21 2.5
q-15 0 -23.5 -9t-13.5 -28l-68 13q4 18 11.5 36.5t19.5 32.5t30 23t42 9q23 0 42 -4.5t36 -10.5l18 -6q9 -2 20.5 -5.5t22.5 -3.5q16 0 24.5 9t13.5 27l68 -12q-4 -19 -11.5 -37t-20 -32.5t-30.5 -23t-42 -8.5q-21 0 -38.5 4.5t-34.5 9.5z" />
    <glyph glyph-name="adieresis" unicode="&#xe4;" horiz-adv-x="595" 
d="M412 235q-3 1 -15 2t-29 2.5t-36.5 2.5t-37.5 1q-75 0 -107.5 -23t-32.5 -71q0 -20 6 -37t22 -29t43 -18.5t68 -6.5q51 0 80 4t39 7v166zM261 438q-29 0 -51.5 -5t-39 -11.5t-27.5 -14t-18 -12.5q-11 7 -19 20t-8 30t9.5 28.5t25.5 19.5q17 8 47 15.5t75 7.5
q60 0 108 -11t81.5 -36.5t51.5 -66.5t18 -100v-299q-18 -4 -75.5 -10.5t-149.5 -6.5q-75 0 -121.5 13.5t-72.5 36t-35 51.5t-9 60q0 39 12 70t39 52t71.5 32.5t109.5 11.5q45 0 81.5 -2t48.5 -4v5q0 16 -3 30q-8 47 -43.5 71.5t-105.5 24.5zM205 573q-24 0 -43 18.5
t-19 41.5t19 41t43 18q26 0 44 -18t18 -41t-18 -41.5t-44 -18.5zM401 573q-25 0 -43.5 18.5t-18.5 41.5t18.5 41t43.5 18q26 0 44 -18t18 -41t-18 -41.5t-44 -18.5z" />
    <glyph glyph-name="aring" unicode="&#xe5;" horiz-adv-x="595" 
d="M412 235q-3 1 -15 2t-29 2.5t-36.5 2.5t-37.5 1q-75 0 -107.5 -23t-32.5 -71q0 -20 6 -37t22 -29t43 -18.5t68 -6.5q51 0 80 4t39 7v166zM261 438q-29 0 -51.5 -5t-39 -11.5t-27.5 -14t-18 -12.5q-11 7 -19 20t-8 30t9.5 28.5t25.5 19.5q17 8 47 15.5t75 7.5
q60 0 108 -11t81.5 -36.5t51.5 -66.5t18 -100v-299q-18 -4 -75.5 -10.5t-149.5 -6.5q-75 0 -121.5 13.5t-72.5 36t-35 51.5t-9 60q0 39 12 70t39 52t71.5 32.5t109.5 11.5q45 0 81.5 -2t48.5 -4v5q0 16 -3 30q-8 47 -43.5 71.5t-105.5 24.5zM204 660q0 21 8 39t22 32t33 22
t40 8t40 -8t33 -22t22 -32t8 -39t-8 -39t-22 -32t-33 -22t-40 -8t-40 8t-33 22t-22 32t-8 39zM256 660q0 -23 14 -38.5t37 -15.5t37 15.5t14 38.5t-14 38t-37 15t-37 -15t-14 -38z" />
    <glyph glyph-name="ae" unicode="&#xe6;" horiz-adv-x="944" 
d="M440 105q-10 16 -20 45.5t-10 64.5v21q-6 1 -18.5 2t-28.5 2t-34 2t-35 1q-75 0 -107.5 -23t-32.5 -71q0 -41 28 -66t103 -25q33 0 59.5 6t46 14t32 16t17.5 11zM488 47q-9 -6 -26 -16.5t-43.5 -20t-61.5 -17t-79 -7.5q-70 0 -114 13.5t-69 36t-34.5 51.5t-9.5 60
q0 39 12 70t39 52t71.5 32.5t109.5 11.5q45 0 81.5 -2t48.5 -4q0 18 -3 35q-7 47 -43 71.5t-106 24.5q-29 0 -51.5 -5t-39 -11.5t-27.5 -14t-18 -12.5q-11 7 -19 20t-8 30t9.5 28.5t26.5 19.5t47.5 15.5t77.5 7.5q80 0 134 -21t83 -72q31 44 83 69t116 25q52 0 92.5 -14
t68 -39.5t41.5 -60.5t14 -77q0 -58 -31.5 -91t-108.5 -33h-235q10 -63 53.5 -97t116.5 -34q57 0 93.5 11.5t49.5 18.5q8 -18 16.5 -36.5t16.5 -37.5q-5 -3 -21 -10t-40.5 -14t-56.5 -12.5t-71 -5.5q-34 0 -62.5 6.5t-52 15.5t-41 20t-29.5 20zM725 275q36 0 52 13t16 48
q0 19 -6.5 38t-20.5 34t-37.5 24.5t-56.5 9.5q-39 0 -68.5 -15.5t-49 -39.5t-29.5 -53.5t-11 -58.5h211z" />
    <glyph glyph-name="ccedilla" unicode="&#xe7;" horiz-adv-x="531" 
d="M329 431q-35 0 -65 -11.5t-52.5 -34t-35.5 -56t-13 -78.5q0 -47 13 -80.5t36 -56t53 -33t65 -10.5q25 0 46 5t37 11t26.5 12t14.5 9l44 -71q-9 -6 -25 -15t-38.5 -17t-51.5 -13.5t-65 -5.5q-55 0 -103 17.5t-83 51t-55.5 82.5t-20.5 112t20.5 112.5t56.5 84t84.5 52.5
t104.5 18q34 0 59.5 -4t44 -10t29.5 -12t17 -10q10 -8 17 -19t7 -26q0 -12 -8 -28.5t-24 -28.5q-6 6 -17 15t-28 17.5t-39.5 14.5t-50.5 6zM266 -35q19 -1 39.5 -6t38 -15t29 -25.5t11.5 -38.5q0 -42 -30.5 -66t-84.5 -24q-51 0 -78.5 10.5t-29.5 12.5l23 51q1 -1 8 -4
t18 -6t24 -5.5t26 -2.5q23 0 34.5 7t11.5 25q0 10 -6.5 16.5t-15.5 10t-19 5.5t-17 2z" />
    <glyph glyph-name="egrave" unicode="&#xe8;" horiz-adv-x="592" 
d="M540 326q0 -58 -32 -91t-109 -33h-234q9 -63 52.5 -97t117.5 -34q57 0 93.5 11.5t49.5 19.5l32 -75q-5 -3 -20.5 -10.5t-40 -14.5t-57 -12.5t-70.5 -5.5q-56 0 -104.5 16t-84.5 48t-56.5 81t-20.5 114q0 61 19.5 111.5t54.5 87t83 56.5t106 20q54 0 95.5 -14.5t69 -40
t42 -60.5t14.5 -77zM441 336q0 19 -6.5 38t-21.5 34t-38.5 24.5t-56.5 9.5q-38 0 -67 -15.5t-48.5 -39.5t-29.5 -53.5t-11 -58.5h211q36 0 52 13t16 48zM207 663q0 4 3 13.5t10 19t17.5 16.5t27.5 7q13 0 23 -4.5t24 -15.5l103 -83l-35 -50z" />
    <glyph glyph-name="eacute" unicode="&#xe9;" horiz-adv-x="592" 
d="M540 326q0 -58 -32 -91t-109 -33h-234q9 -63 52.5 -97t117.5 -34q57 0 93.5 11.5t49.5 19.5l32 -75q-5 -3 -20.5 -10.5t-40 -14.5t-57 -12.5t-70.5 -5.5q-56 0 -104.5 16t-84.5 48t-56.5 81t-20.5 114q0 61 19.5 111.5t54.5 87t83 56.5t106 20q54 0 95.5 -14.5t69 -40
t42 -60.5t14.5 -77zM441 336q0 19 -6.5 38t-21.5 34t-38.5 24.5t-56.5 9.5q-38 0 -67 -15.5t-48.5 -39.5t-29.5 -53.5t-11 -58.5h211q36 0 52 13t16 48zM288 566l-35 50l103 83q14 11 24 15.5t23 4.5q16 0 27 -7t18 -16.5t10 -19t3 -13.5z" />
    <glyph glyph-name="ecircumflex" unicode="&#xea;" horiz-adv-x="592" 
d="M540 326q0 -58 -32 -91t-109 -33h-234q9 -63 52.5 -97t117.5 -34q57 0 93.5 11.5t49.5 19.5l32 -75q-5 -3 -20.5 -10.5t-40 -14.5t-57 -12.5t-70.5 -5.5q-56 0 -104.5 16t-84.5 48t-56.5 81t-20.5 114q0 61 19.5 111.5t54.5 87t83 56.5t106 20q54 0 95.5 -14.5t69 -40
t42 -60.5t14.5 -77zM441 336q0 19 -6.5 38t-21.5 34t-38.5 24.5t-56.5 9.5q-38 0 -67 -15.5t-48.5 -39.5t-29.5 -53.5t-11 -58.5h211q36 0 52 13t16 48zM323 721q18 0 31.5 -9.5t27.5 -22.5l87 -81l-41 -42l-105 75l-105 -75l-41 42l87 81q14 14 27.5 23t31.5 9z" />
    <glyph glyph-name="edieresis" unicode="&#xeb;" horiz-adv-x="592" 
d="M540 326q0 -58 -32 -91t-109 -33h-234q9 -63 52.5 -97t117.5 -34q57 0 93.5 11.5t49.5 19.5l32 -75q-5 -3 -20.5 -10.5t-40 -14.5t-57 -12.5t-70.5 -5.5q-56 0 -104.5 16t-84.5 48t-56.5 81t-20.5 114q0 61 19.5 111.5t54.5 87t83 56.5t106 20q54 0 95.5 -14.5t69 -40
t42 -60.5t14.5 -77zM441 336q0 19 -6.5 38t-21.5 34t-38.5 24.5t-56.5 9.5q-38 0 -67 -15.5t-48.5 -39.5t-29.5 -53.5t-11 -58.5h211q36 0 52 13t16 48zM226 573q-24 0 -43 18.5t-19 41.5t19 41t43 18q26 0 44 -18t18 -41t-18 -41.5t-44 -18.5zM422 573q-25 0 -43.5 18.5
t-18.5 41.5t18.5 41t43.5 18q26 0 44 -18t18 -41t-18 -41.5t-44 -18.5z" />
    <glyph glyph-name="igrave" unicode="&#xec;" horiz-adv-x="282" 
d="M89 455q0 25 14.5 36t40.5 11q17 0 30.5 -3.5t18.5 -5.5v-493h-104v455zM19 663q0 4 3 13.5t10 19t17.5 16.5t27.5 7q13 0 23 -4.5t24 -15.5l103 -83l-35 -50z" />
    <glyph glyph-name="iacute" unicode="&#xed;" horiz-adv-x="282" 
d="M89 455q0 25 14.5 36t40.5 11q17 0 30.5 -3.5t18.5 -5.5v-493h-104v455zM100 566l-35 50l103 83q14 11 24 15.5t23 4.5q16 0 27 -7t18 -16.5t10 -19t3 -13.5z" />
    <glyph glyph-name="icircumflex" unicode="&#xee;" horiz-adv-x="282" 
d="M89 455q0 25 14.5 36t40.5 11q17 0 30.5 -3.5t18.5 -5.5v-493h-104v455zM146 721q18 0 31.5 -9.5t27.5 -22.5l87 -81l-41 -42l-105 75l-105 -75l-41 42l87 81q14 14 27.5 23t31.5 9z" />
    <glyph glyph-name="idieresis" unicode="&#xef;" horiz-adv-x="282" 
d="M89 455q0 25 14.5 36t40.5 11q17 0 30.5 -3.5t18.5 -5.5v-493h-104v455zM48 573q-24 0 -43 18.5t-19 41.5t19 41t43 18q26 0 44 -18t18 -41t-18 -41.5t-44 -18.5zM244 573q-25 0 -43.5 18.5t-18.5 41.5t18.5 41t43.5 18q26 0 44 -18t18 -41t-18 -41.5t-44 -18.5z" />
    <glyph glyph-name="eth" unicode="&#xf0;" horiz-adv-x="645" 
d="M173 571l105 59q-37 21 -84 37l31 70q74 -23 137 -60l108 60l31 -59l-79 -44q44 -36 75.5 -79t52 -89.5t30 -95.5t9.5 -97q0 -72 -19 -126.5t-53.5 -90.5t-83.5 -54t-110 -18q-60 0 -109.5 18t-84.5 50t-54 77.5t-19 99.5q0 55 18.5 100t51 76.5t76.5 49t94 17.5
q31 0 57.5 -6t47.5 -15t36.5 -20t23.5 -21q-9 38 -39 87t-82 91l-134 -75zM482 229q0 72 -42 117t-117 45q-38 0 -67.5 -12t-50 -33.5t-31.5 -51t-11 -65.5q0 -35 11 -64t32 -50.5t50.5 -33.5t66.5 -12t66.5 12t50 33.5t31.5 50.5t11 64z" />
    <glyph glyph-name="ntilde" unicode="&#xf1;" horiz-adv-x="633" 
d="M449 0v282q0 73 -35 111t-110 38q-51 0 -81 -9.5t-38 -13.5v-408h-103v474q4 2 22 9t48 15t70 14t88 6q55 0 100 -14.5t76.5 -41.5t48.5 -65t17 -86v-311h-103zM297 601q-11 4 -21 6.5t-21 2.5q-15 0 -23.5 -9t-13.5 -28l-68 13q4 18 11.5 36.5t19.5 32.5t30 23t42 9
q23 0 42 -4.5t36 -10.5l18 -6q9 -2 20.5 -5.5t22.5 -3.5q16 0 24.5 9t13.5 27l68 -12q-4 -19 -11.5 -37t-20 -32.5t-30.5 -23t-42 -8.5q-21 0 -38.5 4.5t-34.5 9.5z" />
    <glyph glyph-name="ograve" unicode="&#xf2;" horiz-adv-x="645" 
d="M589 251q0 -57 -19.5 -106t-54.5 -84.5t-84 -56t-108 -20.5t-108.5 20.5t-84.5 56t-54.5 84.5t-19.5 106t19.5 106t54.5 84.5t84.5 56t108.5 20.5t108 -20.5t84 -56t54.5 -84.5t19.5 -106zM482 251q0 40 -11 73.5t-31.5 58t-50 38t-66.5 13.5q-38 0 -67.5 -13.5t-50 -38
t-31.5 -58t-11 -73.5t11 -73.5t31.5 -58t50 -38t67.5 -13.5q37 0 66.5 13.5t50 38t31.5 58t11 73.5zM206 663q0 4 3 13.5t10 19t17.5 16.5t27.5 7q13 0 23 -4.5t24 -15.5l103 -83l-35 -50z" />
    <glyph glyph-name="oacute" unicode="&#xf3;" horiz-adv-x="645" 
d="M589 251q0 -57 -19.5 -106t-54.5 -84.5t-84 -56t-108 -20.5t-108.5 20.5t-84.5 56t-54.5 84.5t-19.5 106t19.5 106t54.5 84.5t84.5 56t108.5 20.5t108 -20.5t84 -56t54.5 -84.5t19.5 -106zM482 251q0 40 -11 73.5t-31.5 58t-50 38t-66.5 13.5q-38 0 -67.5 -13.5t-50 -38
t-31.5 -58t-11 -73.5t11 -73.5t31.5 -58t50 -38t67.5 -13.5q37 0 66.5 13.5t50 38t31.5 58t11 73.5zM296 566l-35 50l103 83q14 11 24 15.5t23 4.5q16 0 27 -7t18 -16.5t10 -19t3 -13.5z" />
    <glyph glyph-name="ocircumflex" unicode="&#xf4;" horiz-adv-x="645" 
d="M589 251q0 -57 -19.5 -106t-54.5 -84.5t-84 -56t-108 -20.5t-108.5 20.5t-84.5 56t-54.5 84.5t-19.5 106t19.5 106t54.5 84.5t84.5 56t108.5 20.5t108 -20.5t84 -56t54.5 -84.5t19.5 -106zM482 251q0 40 -11 73.5t-31.5 58t-50 38t-66.5 13.5q-38 0 -67.5 -13.5t-50 -38
t-31.5 -58t-11 -73.5t11 -73.5t31.5 -58t50 -38t67.5 -13.5q37 0 66.5 13.5t50 38t31.5 58t11 73.5zM322 721q18 0 31.5 -9.5t27.5 -22.5l87 -81l-41 -42l-105 75l-105 -75l-41 42l87 81q14 14 27.5 23t31.5 9z" />
    <glyph glyph-name="otilde" unicode="&#xf5;" horiz-adv-x="645" 
d="M589 251q0 -57 -19.5 -106t-54.5 -84.5t-84 -56t-108 -20.5t-108.5 20.5t-84.5 56t-54.5 84.5t-19.5 106t19.5 106t54.5 84.5t84.5 56t108.5 20.5t108 -20.5t84 -56t54.5 -84.5t19.5 -106zM482 251q0 40 -11 73.5t-31.5 58t-50 38t-66.5 13.5q-38 0 -67.5 -13.5t-50 -38
t-31.5 -58t-11 -73.5t11 -73.5t31.5 -58t50 -38t67.5 -13.5q37 0 66.5 13.5t50 38t31.5 58t11 73.5zM296 601q-11 4 -21 6.5t-21 2.5q-15 0 -23.5 -9t-13.5 -28l-68 13q4 18 11.5 36.5t19.5 32.5t30 23t42 9q23 0 42 -4.5t36 -10.5l18 -6q9 -2 20.5 -5.5t22.5 -3.5
q16 0 24.5 9t13.5 27l68 -12q-4 -19 -11.5 -37t-20 -32.5t-30.5 -23t-42 -8.5q-21 0 -38.5 4.5t-34.5 9.5z" />
    <glyph glyph-name="odieresis" unicode="&#xf6;" horiz-adv-x="645" 
d="M589 251q0 -57 -19.5 -106t-54.5 -84.5t-84 -56t-108 -20.5t-108.5 20.5t-84.5 56t-54.5 84.5t-19.5 106t19.5 106t54.5 84.5t84.5 56t108.5 20.5t108 -20.5t84 -56t54.5 -84.5t19.5 -106zM482 251q0 40 -11 73.5t-31.5 58t-50 38t-66.5 13.5q-38 0 -67.5 -13.5t-50 -38
t-31.5 -58t-11 -73.5t11 -73.5t31.5 -58t50 -38t67.5 -13.5q37 0 66.5 13.5t50 38t31.5 58t11 73.5zM227 573q-24 0 -43 18.5t-19 41.5t19 41t43 18q26 0 44 -18t18 -41t-18 -41.5t-44 -18.5zM423 573q-25 0 -43.5 18.5t-18.5 41.5t18.5 41t43.5 18q26 0 44 -18t18 -41
t-18 -41.5t-44 -18.5z" />
    <glyph glyph-name="divide" unicode="&#xf7;" horiz-adv-x="645" 
d="M253 147q0 29 20.5 49.5t49.5 20.5t49.5 -20.5t20.5 -49.5t-20.5 -49.5t-49.5 -20.5t-49.5 20.5t-20.5 49.5zM253 533q0 29 20.5 49.5t49.5 20.5t49.5 -20.5t20.5 -49.5t-20.5 -49.5t-49.5 -20.5t-49.5 20.5t-20.5 49.5zM117 293q-28 0 -39.5 12.5t-11.5 34.5
q0 17 4 28.5t7 17.5h451q28 0 39.5 -13t11.5 -34q0 -17 -4.5 -29t-6.5 -17h-451z" />
    <glyph glyph-name="oslash" unicode="&#xf8;" horiz-adv-x="645" 
d="M589 251q0 -57 -19.5 -106t-54.5 -84.5t-84 -56t-108 -20.5q-45 0 -87 14l-33 -67h-83l49 97q-54 36 -83.5 93.5t-29.5 129.5q0 57 19.5 106t54.5 84.5t84.5 56t108.5 20.5q43 0 85 -14l18 36q8 15 17.5 23.5t27.5 8.5q17 0 30.5 -7t16.5 -10l-42 -82q53 -35 83 -92.5
t30 -129.5zM482 251q0 86 -48 136l-160 -311q20 -8 49 -8q37 0 66.5 13.5t50 38t31.5 58t11 73.5zM163 251q0 -86 48 -137l158 312q-22 8 -46 8q-38 0 -67.5 -13.5t-50 -38t-31.5 -58t-11 -73.5z" />
    <glyph glyph-name="ugrave" unicode="&#xf9;" horiz-adv-x="624" 
d="M439 455q0 24 14 35.5t40 11.5q17 0 30.5 -4t18.5 -6v-492q-7 -2 -24.5 -4t-42.5 -4.5t-55 -4t-61 -1.5q-91 0 -147.5 22t-89.5 64q-41 53 -41 141v242q0 24 14 35.5t40 11.5q17 0 30.5 -4t18.5 -6v-268q0 -76 38.5 -114t130.5 -38q35 0 56.5 2.5t29.5 4.5v376zM187 663
q0 4 3 13.5t10 19t17.5 16.5t27.5 7q13 0 23 -4.5t24 -15.5l103 -83l-35 -50z" />
    <glyph glyph-name="uacute" unicode="&#xfa;" horiz-adv-x="624" 
d="M439 455q0 24 14 35.5t40 11.5q17 0 30.5 -4t18.5 -6v-492q-7 -2 -24.5 -4t-42.5 -4.5t-55 -4t-61 -1.5q-91 0 -147.5 22t-89.5 64q-41 53 -41 141v242q0 24 14 35.5t40 11.5q17 0 30.5 -4t18.5 -6v-268q0 -76 38.5 -114t130.5 -38q35 0 56.5 2.5t29.5 4.5v376zM295 566
l-35 50l103 83q14 11 24 15.5t23 4.5q16 0 27 -7t18 -16.5t10 -19t3 -13.5z" />
    <glyph glyph-name="ucircumflex" unicode="&#xfb;" horiz-adv-x="624" 
d="M439 455q0 24 14 35.5t40 11.5q17 0 30.5 -4t18.5 -6v-492q-7 -2 -24.5 -4t-42.5 -4.5t-55 -4t-61 -1.5q-91 0 -147.5 22t-89.5 64q-41 53 -41 141v242q0 24 14 35.5t40 11.5q17 0 30.5 -4t18.5 -6v-268q0 -76 38.5 -114t130.5 -38q35 0 56.5 2.5t29.5 4.5v376zM319 721
q18 0 31.5 -9.5t27.5 -22.5l87 -81l-41 -42l-105 75l-105 -75l-41 42l87 81q14 14 27.5 23t31.5 9z" />
    <glyph glyph-name="udieresis" unicode="&#xfc;" horiz-adv-x="624" 
d="M439 455q0 24 14 35.5t40 11.5q17 0 30.5 -4t18.5 -6v-492q-7 -2 -24.5 -4t-42.5 -4.5t-55 -4t-61 -1.5q-91 0 -147.5 22t-89.5 64q-41 53 -41 141v242q0 24 14 35.5t40 11.5q17 0 30.5 -4t18.5 -6v-268q0 -76 38.5 -114t130.5 -38q35 0 56.5 2.5t29.5 4.5v376zM215 573
q-24 0 -43 18.5t-19 41.5t19 41t43 18q26 0 44 -18t18 -41t-18 -41.5t-44 -18.5zM411 573q-25 0 -43.5 18.5t-18.5 41.5t18.5 41t43.5 18q26 0 44 -18t18 -41t-18 -41.5t-44 -18.5z" />
    <glyph glyph-name="yacute" unicode="&#xfd;" horiz-adv-x="545" 
d="M286 146q17 35 36.5 77.5t37.5 85t34 81.5t27 66q8 20 20.5 33t40.5 13q23 0 37.5 -9t17.5 -13q-7 -23 -19 -53.5t-26 -64.5t-30 -70t-32 -70q-32 -71 -66.5 -138.5t-73.5 -134.5q-21 -36 -41.5 -64t-44.5 -46.5t-52.5 -28.5t-64.5 -10q-25 0 -45 4t-34.5 9t-23 9.5
t-9.5 5.5l34 76q5 -4 25.5 -12t46.5 -8q20 0 36 6t31 19t29 34t30 50l26 50q-13 21 -32.5 54t-41.5 69.5t-44 74.5t-41 70.5t-32.5 56.5t-17.5 32q-7 14 -12 26.5t-5 26.5q0 19 11.5 34t40.5 15q21 0 31 -4t12 -5q5 -11 25.5 -51t47.5 -92t57 -107t54 -97zM235 566l-35 50
l103 83q14 11 24 15.5t23 4.5q16 0 27 -7t18 -16.5t10 -19t3 -13.5z" />
    <glyph glyph-name="thorn" unicode="&#xfe;" horiz-adv-x="639" 
d="M82 690q0 47 55 47q16 0 29.5 -4t18.5 -6v-222q23 5 51 9t59 4q70 0 124 -20.5t90.5 -57t55 -87.5t18.5 -111q0 -61 -18 -107.5t-49.5 -78t-74.5 -47.5t-93 -16q-41 0 -70.5 8.5t-49 19.5t-30 21t-13.5 14v-256h-103v890zM475 249q0 39 -11 73t-33 58.5t-55.5 39
t-79.5 14.5q-50 0 -77 -9t-34 -12v-246q5 -12 14.5 -27t26 -28.5t41.5 -23t63 -9.5q69 0 107 44t38 126z" />
    <glyph glyph-name="ydieresis" unicode="&#xff;" horiz-adv-x="545" 
d="M286 146q17 35 36.5 77.5t37.5 85t34 81.5t27 66q8 20 20.5 33t40.5 13q23 0 37.5 -9t17.5 -13q-7 -23 -19 -53.5t-26 -64.5t-30 -70t-32 -70q-32 -71 -66.5 -138.5t-73.5 -134.5q-21 -36 -41.5 -64t-44.5 -46.5t-52.5 -28.5t-64.5 -10q-25 0 -45 4t-34.5 9t-23 9.5
t-9.5 5.5l34 76q5 -4 25.5 -12t46.5 -8q20 0 36 6t31 19t29 34t30 50l26 50q-13 21 -32.5 54t-41.5 69.5t-44 74.5t-41 70.5t-32.5 56.5t-17.5 32q-7 14 -12 26.5t-5 26.5q0 19 11.5 34t40.5 15q21 0 31 -4t12 -5q5 -11 25.5 -51t47.5 -92t57 -107t54 -97zM177 573
q-24 0 -43 18.5t-19 41.5t19 41t43 18q26 0 44 -18t18 -41t-18 -41.5t-44 -18.5zM373 573q-25 0 -43.5 18.5t-18.5 41.5t18.5 41t43.5 18q26 0 44 -18t18 -41t-18 -41.5t-44 -18.5z" />
    <glyph glyph-name="Amacron" unicode="&#x100;" horiz-adv-x="737" 
d="M17 0q31 84 67 174t70.5 174t65.5 156t53 119q20 44 41.5 60.5t54.5 16.5q31 0 47 -10t24 -18q18 -31 43 -85.5t53 -120t56.5 -136.5t53.5 -135.5t44.5 -116t29.5 -78.5h-116q-5 11 -12.5 31.5t-16.5 45t-19 51t-19 50.5h-345q-23 -57 -40 -104t-27 -74h-108zM366 598
q-11 -23 -26.5 -58.5t-34 -79t-38.5 -92.5t-39 -98h273q-18 48 -38.5 98.5t-39 96t-33.5 81t-24 52.5zM498 852q26 0 35 -12t9 -32q0 -15 -3.5 -24.5t-5.5 -14.5h-295q-23 0 -33.5 11.5t-10.5 30.5q0 16 3 24.5t5 16.5h296z" />
    <glyph glyph-name="amacron" unicode="&#x101;" horiz-adv-x="595" 
d="M412 235q-3 1 -15 2t-29 2.5t-36.5 2.5t-37.5 1q-75 0 -107.5 -23t-32.5 -71q0 -20 6 -37t22 -29t43 -18.5t68 -6.5q51 0 80 4t39 7v166zM261 438q-29 0 -51.5 -5t-39 -11.5t-27.5 -14t-18 -12.5q-11 7 -19 20t-8 30t9.5 28.5t25.5 19.5q17 8 47 15.5t75 7.5
q60 0 108 -11t81.5 -36.5t51.5 -66.5t18 -100v-299q-18 -4 -75.5 -10.5t-149.5 -6.5q-75 0 -121.5 13.5t-72.5 36t-35 51.5t-9 60q0 39 12 70t39 52t71.5 32.5t109.5 11.5q45 0 81.5 -2t48.5 -4v5q0 16 -3 30q-8 47 -43.5 71.5t-105.5 24.5zM435 671q22 0 30 -10.5t8 -27.5
q0 -13 -3 -23t-5 -13h-271q-21 0 -29.5 10.5t-8.5 28.5q0 13 3 22t5 13h271z" />
    <glyph glyph-name="Abreve" unicode="&#x102;" horiz-adv-x="737" 
d="M17 0q31 84 67 174t70.5 174t65.5 156t53 119q20 44 41.5 60.5t54.5 16.5q31 0 47 -10t24 -18q18 -31 43 -85.5t53 -120t56.5 -136.5t53.5 -135.5t44.5 -116t29.5 -78.5h-116q-5 11 -12.5 31.5t-16.5 45t-19 51t-19 50.5h-345q-23 -57 -40 -104t-27 -74h-108zM366 598
q-11 -23 -26.5 -58.5t-34 -79t-38.5 -92.5t-39 -98h273q-18 48 -38.5 98.5t-39 96t-33.5 81t-24 52.5zM369 819q36 0 55 19t29 55l74 -8q-1 -21 -8.5 -46t-25.5 -46.5t-48 -36t-76 -14.5t-76.5 14.5t-48.5 36t-25.5 46.5t-8.5 46l74 8q10 -36 29 -55t56 -19z" />
    <glyph glyph-name="abreve" unicode="&#x103;" horiz-adv-x="595" 
d="M412 235q-3 1 -15 2t-29 2.5t-36.5 2.5t-37.5 1q-75 0 -107.5 -23t-32.5 -71q0 -20 6 -37t22 -29t43 -18.5t68 -6.5q51 0 80 4t39 7v166zM261 438q-29 0 -51.5 -5t-39 -11.5t-27.5 -14t-18 -12.5q-11 7 -19 20t-8 30t9.5 28.5t25.5 19.5q17 8 47 15.5t75 7.5
q60 0 108 -11t81.5 -36.5t51.5 -66.5t18 -100v-299q-18 -4 -75.5 -10.5t-149.5 -6.5q-75 0 -121.5 13.5t-72.5 36t-35 51.5t-9 60q0 39 12 70t39 52t71.5 32.5t109.5 11.5q45 0 81.5 -2t48.5 -4v5q0 16 -3 30q-8 47 -43.5 71.5t-105.5 24.5zM287 637q35 0 52.5 18.5
t25.5 52.5l64 -8q-1 -19 -8 -42t-23 -42.5t-43 -33t-68 -13.5t-68 13.5t-43 33t-23 42.5t-8 42l64 8q8 -34 25.5 -52.5t52.5 -18.5z" />
    <glyph glyph-name="Aogonek" unicode="&#x104;" horiz-adv-x="737" 
d="M17 0q31 84 67 174t70.5 174t65.5 156t53 119q20 44 41.5 60.5t54.5 16.5q31 0 47 -10t24 -18q18 -31 43 -85.5t53 -120t56.5 -136.5t53.5 -135.5t44.5 -116t29.5 -78.5h-10q-16 -3 -32.5 -9t-30.5 -15.5t-23 -22t-9 -28.5q0 -19 13.5 -26.5t31.5 -7.5q25 0 43 8t21 10
l25 -57q-11 -6 -38.5 -15.5t-68.5 -9.5q-49 0 -80 19t-31 63q0 22 8.5 38.5t20 27.5t23.5 17.5t20 9.5q-5 12 -12.5 32l-16.5 44t-18.5 50t-18.5 50h-345q-23 -57 -40 -104t-27 -74h-108zM366 598q-11 -23 -26.5 -58.5t-34 -79t-38.5 -92.5t-39 -98h273q-18 48 -38.5 98.5
t-39 96t-33.5 81t-24 52.5z" />
    <glyph glyph-name="aogonek" unicode="&#x105;" horiz-adv-x="595" 
d="M514 3q-8 -2 -22.5 -4t-36.5 -4q-28 -9 -51.5 -27t-23.5 -45q0 -21 14 -29t34 -8q25 0 42.5 7.5t20.5 9.5l23 -53q-11 -6 -37.5 -15t-67.5 -9q-48 0 -78.5 18.5t-30.5 61.5q0 32 16 51.5t33 29.5q-14 0 -29 -0.5t-31 -0.5q-75 0 -121.5 13.5t-72.5 36t-35 51.5t-9 60
q0 39 12 70t39 52t71.5 32.5t109.5 11.5q45 0 81.5 -2t48.5 -4v5q0 16 -3 30q-8 47 -43.5 71.5t-105.5 24.5q-29 0 -51.5 -5t-39 -11.5t-27.5 -14t-18 -12.5q-11 7 -19 20t-8 30t9.5 28.5t25.5 19.5q17 8 47 15.5t75 7.5q60 0 108 -11t81.5 -36.5t51.5 -66.5t18 -100v-299z
M412 235q-3 1 -15 2t-29 2.5t-36.5 2.5t-37.5 1q-75 0 -107.5 -23t-32.5 -71q0 -20 6 -37t22 -29t43 -18.5t68 -6.5q51 0 80 4t39 7v166z" />
    <glyph glyph-name="Cacute" unicode="&#x106;" horiz-adv-x="685" 
d="M642 602q0 -12 -5 -22.5t-11.5 -19t-14 -14.5t-12.5 -9q-9 10 -25 23t-40 24.5t-55 19.5t-68 8q-53 0 -97.5 -19t-77 -54t-50.5 -84.5t-18 -111.5q0 -65 19 -114.5t52 -83t78.5 -51t99.5 -17.5q37 0 68 6.5t54 15t38.5 17t23.5 13.5l47 -81q-8 -6 -28 -17t-50.5 -21.5
t-71 -18.5t-88.5 -8q-74 0 -138.5 23.5t-112.5 69.5t-75.5 112.5t-27.5 153.5q0 84 27.5 151.5t75.5 114t113 71.5t139 25q77 0 128 -18t71 -33q17 -13 24.5 -26t7.5 -25zM333 742l-35 55l119 79q15 10 25.5 13.5t23.5 3.5q19 0 32 -7.5t21 -17.5t11.5 -20.5t3.5 -16.5z" />
    <glyph glyph-name="cacute" unicode="&#x107;" horiz-adv-x="531" 
d="M329 431q-35 0 -65 -11.5t-52.5 -34t-35.5 -56t-13 -78.5q0 -47 13 -80.5t36 -56t53 -33t65 -10.5q25 0 46 5t37 11t26.5 12t14.5 9l44 -71q-9 -6 -25 -15t-38.5 -17t-51.5 -13.5t-65 -5.5q-55 0 -103 17.5t-83 51t-55.5 82.5t-20.5 112t20.5 112.5t56.5 84t84.5 52.5
t104.5 18q34 0 59.5 -4t44 -10t29.5 -12t17 -10q10 -8 17 -19t7 -26q0 -12 -8 -28.5t-24 -28.5q-6 6 -17 15t-28 17.5t-39.5 14.5t-50.5 6zM257 566l-35 50l103 83q14 11 24 15.5t23 4.5q16 0 27 -7t18 -16.5t10 -19t3 -13.5z" />
    <glyph glyph-name="Ccircumflex" unicode="&#x108;" horiz-adv-x="685" 
d="M642 602q0 -12 -5 -22.5t-11.5 -19t-14 -14.5t-12.5 -9q-9 10 -25 23t-40 24.5t-55 19.5t-68 8q-53 0 -97.5 -19t-77 -54t-50.5 -84.5t-18 -111.5q0 -65 19 -114.5t52 -83t78.5 -51t99.5 -17.5q37 0 68 6.5t54 15t38.5 17t23.5 13.5l47 -81q-8 -6 -28 -17t-50.5 -21.5
t-71 -18.5t-88.5 -8q-74 0 -138.5 23.5t-112.5 69.5t-75.5 112.5t-27.5 153.5q0 84 27.5 151.5t75.5 114t113 71.5t139 25q77 0 128 -18t71 -33q17 -13 24.5 -26t7.5 -25zM414 893q18 0 34 -10t31 -22l97 -77l-41 -42l-121 68l-123 -68l-40 42l97 77q17 14 31.5 23t34.5 9z
" />
    <glyph glyph-name="ccircumflex" unicode="&#x109;" horiz-adv-x="531" 
d="M329 431q-35 0 -65 -11.5t-52.5 -34t-35.5 -56t-13 -78.5q0 -47 13 -80.5t36 -56t53 -33t65 -10.5q25 0 46 5t37 11t26.5 12t14.5 9l44 -71q-9 -6 -25 -15t-38.5 -17t-51.5 -13.5t-65 -5.5q-55 0 -103 17.5t-83 51t-55.5 82.5t-20.5 112t20.5 112.5t56.5 84t84.5 52.5
t104.5 18q34 0 59.5 -4t44 -10t29.5 -12t17 -10q10 -8 17 -19t7 -26q0 -12 -8 -28.5t-24 -28.5q-6 6 -17 15t-28 17.5t-39.5 14.5t-50.5 6zM325 721q18 0 31.5 -9.5t27.5 -22.5l87 -81l-41 -42l-105 75l-105 -75l-41 42l87 81q14 14 27.5 23t31.5 9z" />
    <glyph glyph-name="Cdotaccent" unicode="&#x10a;" horiz-adv-x="685" 
d="M642 602q0 -12 -5 -22.5t-11.5 -19t-14 -14.5t-12.5 -9q-9 10 -25 23t-40 24.5t-55 19.5t-68 8q-53 0 -97.5 -19t-77 -54t-50.5 -84.5t-18 -111.5q0 -65 19 -114.5t52 -83t78.5 -51t99.5 -17.5q37 0 68 6.5t54 15t38.5 17t23.5 13.5l47 -81q-8 -6 -28 -17t-50.5 -21.5
t-71 -18.5t-88.5 -8q-74 0 -138.5 23.5t-112.5 69.5t-75.5 112.5t-27.5 153.5q0 84 27.5 151.5t75.5 114t113 71.5t139 25q77 0 128 -18t71 -33q17 -13 24.5 -26t7.5 -25zM412 745q-13 0 -25 5.5t-21 14.5t-14.5 20t-5.5 23t5.5 23t14.5 20t21 14.5t25 5.5t24.5 -5.5
t20.5 -14.5t14 -20t5 -23t-5 -23t-14 -20t-20.5 -14.5t-24.5 -5.5z" />
    <glyph glyph-name="cdotaccent" unicode="&#x10b;" horiz-adv-x="531" 
d="M329 431q-35 0 -65 -11.5t-52.5 -34t-35.5 -56t-13 -78.5q0 -47 13 -80.5t36 -56t53 -33t65 -10.5q25 0 46 5t37 11t26.5 12t14.5 9l44 -71q-9 -6 -25 -15t-38.5 -17t-51.5 -13.5t-65 -5.5q-55 0 -103 17.5t-83 51t-55.5 82.5t-20.5 112t20.5 112.5t56.5 84t84.5 52.5
t104.5 18q34 0 59.5 -4t44 -10t29.5 -12t17 -10q10 -8 17 -19t7 -26q0 -12 -8 -28.5t-24 -28.5q-6 6 -17 15t-28 17.5t-39.5 14.5t-50.5 6zM321 571q-12 0 -23.5 5.5t-20.5 14t-14.5 19.5t-5.5 23q0 23 19.5 42t44.5 19q26 0 44.5 -19t18.5 -42q0 -12 -5 -23t-13.5 -19.5
t-20 -14t-24.5 -5.5z" />
    <glyph glyph-name="Ccaron" unicode="&#x10c;" horiz-adv-x="685" 
d="M642 602q0 -12 -5 -22.5t-11.5 -19t-14 -14.5t-12.5 -9q-9 10 -25 23t-40 24.5t-55 19.5t-68 8q-53 0 -97.5 -19t-77 -54t-50.5 -84.5t-18 -111.5q0 -65 19 -114.5t52 -83t78.5 -51t99.5 -17.5q37 0 68 6.5t54 15t38.5 17t23.5 13.5l47 -81q-8 -6 -28 -17t-50.5 -21.5
t-71 -18.5t-88.5 -8q-74 0 -138.5 23.5t-112.5 69.5t-75.5 112.5t-27.5 153.5q0 84 27.5 151.5t75.5 114t113 71.5t139 25q77 0 128 -18t71 -33q17 -13 24.5 -26t7.5 -25zM410 742q-19 0 -34.5 9.5t-30.5 21.5q-23 17 -49 38t-49 40l40 42l123 -69l121 69l41 -42l-97 -78
q-15 -12 -31 -21.5t-34 -9.5z" />
    <glyph glyph-name="ccaron" unicode="&#x10d;" horiz-adv-x="531" 
d="M329 431q-35 0 -65 -11.5t-52.5 -34t-35.5 -56t-13 -78.5q0 -47 13 -80.5t36 -56t53 -33t65 -10.5q25 0 46 5t37 11t26.5 12t14.5 9l44 -71q-9 -6 -25 -15t-38.5 -17t-51.5 -13.5t-65 -5.5q-55 0 -103 17.5t-83 51t-55.5 82.5t-20.5 112t20.5 112.5t56.5 84t84.5 52.5
t104.5 18q34 0 59.5 -4t44 -10t29.5 -12t17 -10q10 -8 17 -19t7 -26q0 -12 -8 -28.5t-24 -28.5q-6 6 -17 15t-28 17.5t-39.5 14.5t-50.5 6zM320 566q-18 0 -31 9t-27 22l-88 82l41 42l105 -75l105 75l41 -42l-87 -82q-14 -13 -27.5 -22t-31.5 -9z" />
    <glyph glyph-name="Dcaron" unicode="&#x10e;" horiz-adv-x="760" 
d="M698 344q0 -78 -25 -141.5t-72.5 -108.5t-115 -69.5t-151.5 -24.5h-242v627q0 29 16 44.5t48 15.5h178q84 0 151.5 -24.5t115 -69t72.5 -108t25 -141.5zM586 344q0 55 -17 101.5t-49.5 80.5t-80.5 52.5t-111 18.5h-128v-507h128q63 0 111 19t80.5 53t49.5 80.5t17 101.5z
M360 742q-19 0 -34.5 9.5t-30.5 21.5q-23 17 -49 38t-49 40l40 42l123 -69l121 69l41 -42l-97 -78q-15 -12 -31 -21.5t-34 -9.5z" />
    <glyph glyph-name="dcaron" unicode="&#x10f;" horiz-adv-x="641" 
d="M164 254q0 -41 11 -75.5t34.5 -59.5t60 -38.5t86.5 -13.5q44 0 67.5 4t31.5 7v187q0 35 -9 65t-27 52.5t-44.5 35t-62.5 12.5q-73 0 -110.5 -47t-37.5 -129zM559 0q-4 -1 -19.5 -3t-40 -4.5t-57.5 -4.5t-72 -2q-80 0 -139 19.5t-98 55.5t-58 87t-19 114q0 60 18 107.5
t49 80t73.5 49.5t92.5 17q41 0 70.5 -10t49.5 -23.5t31 -26.5t15 -19v253q0 47 55 47q17 0 30.5 -4t18.5 -6v-727zM648 689q0 48 56 48q17 0 30.5 -4t18.5 -6l-40 -205h-65v167z" />
    <glyph glyph-name="Dcroat" unicode="&#x110;" horiz-adv-x="793" 
d="M125 305h-44q-25 0 -35.5 13t-10.5 36q0 15 4 26t6 16h80v231q0 29 16 44.5t48 15.5h178q84 0 151.5 -24.5t115 -69t72.5 -108t25 -141.5t-25 -141.5t-72.5 -108.5t-115 -69.5t-151.5 -24.5h-242v305zM233 305v-215h128q63 0 111 19t80.5 53t49.5 80.5t17 101.5
t-17 101.5t-49.5 80.5t-80.5 52.5t-111 18.5h-128v-201h139q26 0 36 -13t10 -35q0 -16 -4 -27t-6 -16h-175z" />
    <glyph glyph-name="dcroat" unicode="&#x111;" horiz-adv-x="653" 
d="M455 643v47q0 47 55 47q17 0 30.5 -4t18.5 -6v-84h43q23 0 32 -11.5t9 -30.5q0 -14 -3.5 -23t-5.5 -14h-75v-564q-4 -1 -19.5 -3t-40 -4.5t-57.5 -4.5t-72 -2q-80 0 -139 19.5t-98 55.5t-58 87t-19 114q0 60 18 107.5t49 80t73.5 49.5t92.5 17q41 0 70.5 -10t49.5 -23.5
t31 -26.5t15 -19v127h-110q-23 0 -32.5 11.5t-9.5 31.5q0 14 3.5 22.5t5.5 13.5h143zM164 254q0 -41 11 -75.5t34.5 -59.5t60 -38.5t86.5 -13.5q44 0 67.5 4t31.5 7v187q0 35 -9 65t-27 52.5t-44.5 35t-62.5 12.5q-73 0 -110.5 -47t-37.5 -129z" />
    <glyph glyph-name="Emacron" unicode="&#x112;" horiz-adv-x="623" 
d="M200 303v-209h345v-94h-453v627q0 29 15.5 44.5t47.5 15.5h345q50 0 50 -47q0 -17 -5 -30t-8 -18h-337v-194h286q50 0 50 -47q0 -17 -5 -30t-8 -18h-323zM453 852q26 0 35 -12t9 -32q0 -15 -3.5 -24.5t-5.5 -14.5h-295q-23 0 -33.5 11.5t-10.5 30.5q0 16 3 24.5t5 16.5
h296z" />
    <glyph glyph-name="emacron" unicode="&#x113;" horiz-adv-x="592" 
d="M540 326q0 -58 -32 -91t-109 -33h-234q9 -63 52.5 -97t117.5 -34q57 0 93.5 11.5t49.5 19.5l32 -75q-5 -3 -20.5 -10.5t-40 -14.5t-57 -12.5t-70.5 -5.5q-56 0 -104.5 16t-84.5 48t-56.5 81t-20.5 114q0 61 19.5 111.5t54.5 87t83 56.5t106 20q54 0 95.5 -14.5t69 -40
t42 -60.5t14.5 -77zM441 336q0 19 -6.5 38t-21.5 34t-38.5 24.5t-56.5 9.5q-38 0 -67 -15.5t-48.5 -39.5t-29.5 -53.5t-11 -58.5h211q36 0 52 13t16 48zM437 671q22 0 30 -10.5t8 -27.5q0 -13 -3 -23t-5 -13h-271q-21 0 -29.5 10.5t-8.5 28.5q0 13 3 22t5 13h271z" />
    <glyph glyph-name="Ebreve" unicode="&#x114;" horiz-adv-x="623" 
d="M200 303v-209h345v-94h-453v627q0 29 15.5 44.5t47.5 15.5h345q50 0 50 -47q0 -17 -5 -30t-8 -18h-337v-194h286q50 0 50 -47q0 -17 -5 -30t-8 -18h-323zM328 819q36 0 55 19t29 55l74 -8q-1 -21 -8.5 -46t-25.5 -46.5t-48 -36t-76 -14.5t-76.5 14.5t-48.5 36t-25.5 46.5
t-8.5 46l74 8q10 -36 29 -55t56 -19z" />
    <glyph glyph-name="ebreve" unicode="&#x115;" horiz-adv-x="592" 
d="M540 326q0 -58 -32 -91t-109 -33h-234q9 -63 52.5 -97t117.5 -34q57 0 93.5 11.5t49.5 19.5l32 -75q-5 -3 -20.5 -10.5t-40 -14.5t-57 -12.5t-70.5 -5.5q-56 0 -104.5 16t-84.5 48t-56.5 81t-20.5 114q0 61 19.5 111.5t54.5 87t83 56.5t106 20q54 0 95.5 -14.5t69 -40
t42 -60.5t14.5 -77zM441 336q0 19 -6.5 38t-21.5 34t-38.5 24.5t-56.5 9.5q-38 0 -67 -15.5t-48.5 -39.5t-29.5 -53.5t-11 -58.5h211q36 0 52 13t16 48zM319 637q35 0 52.5 18.5t25.5 52.5l64 -8q-1 -19 -8 -42t-23 -42.5t-43 -33t-68 -13.5t-68 13.5t-43 33t-23 42.5t-8 42
l64 8q8 -34 25.5 -52.5t52.5 -18.5z" />
    <glyph glyph-name="Edotaccent" unicode="&#x116;" horiz-adv-x="623" 
d="M200 303v-209h345v-94h-453v627q0 29 15.5 44.5t47.5 15.5h345q50 0 50 -47q0 -17 -5 -30t-8 -18h-337v-194h286q50 0 50 -47q0 -17 -5 -30t-8 -18h-323zM332 745q-13 0 -25 5.5t-21 14.5t-14.5 20t-5.5 23t5.5 23t14.5 20t21 14.5t25 5.5t24.5 -5.5t20.5 -14.5t14 -20
t5 -23t-5 -23t-14 -20t-20.5 -14.5t-24.5 -5.5z" />
    <glyph glyph-name="edotaccent" unicode="&#x117;" horiz-adv-x="592" 
d="M540 326q0 -58 -32 -91t-109 -33h-234q9 -63 52.5 -97t117.5 -34q57 0 93.5 11.5t49.5 19.5l32 -75q-5 -3 -20.5 -10.5t-40 -14.5t-57 -12.5t-70.5 -5.5q-56 0 -104.5 16t-84.5 48t-56.5 81t-20.5 114q0 61 19.5 111.5t54.5 87t83 56.5t106 20q54 0 95.5 -14.5t69 -40
t42 -60.5t14.5 -77zM441 336q0 19 -6.5 38t-21.5 34t-38.5 24.5t-56.5 9.5q-38 0 -67 -15.5t-48.5 -39.5t-29.5 -53.5t-11 -58.5h211q36 0 52 13t16 48zM322 571q-12 0 -23.5 5.5t-20.5 14t-14.5 19.5t-5.5 23q0 23 19.5 42t44.5 19q26 0 44.5 -19t18.5 -42q0 -12 -5 -23
t-13.5 -19.5t-20 -14t-24.5 -5.5z" />
    <glyph glyph-name="Eogonek" unicode="&#x118;" horiz-adv-x="623" 
d="M200 303v-209h345v-94h-39q-16 -3 -32.5 -9t-30.5 -15.5t-23 -22t-9 -28.5q0 -19 13.5 -26.5t31.5 -7.5q25 0 43 8t21 10l25 -57q-11 -6 -38.5 -15.5t-68.5 -9.5q-49 0 -80 19t-31 63q0 21 7 36.5t17.5 26.5t22 18t20.5 10h-302v627q0 29 15.5 44.5t47.5 15.5h345
q50 0 50 -47q0 -17 -5 -30t-8 -18h-337v-194h286q50 0 50 -47q0 -17 -5 -30t-8 -18h-323z" />
    <glyph glyph-name="eogonek" unicode="&#x119;" horiz-adv-x="592" 
d="M540 326q0 -58 -32 -91t-109 -33h-234q9 -63 52.5 -97t117.5 -34q57 0 93.5 11.5t49.5 19.5l32 -75q-7 -5 -31.5 -15t-62.5 -18q-28 -9 -50.5 -27t-22.5 -44q0 -21 14 -29t34 -8q25 0 42.5 7.5t20.5 9.5l23 -53q-11 -6 -37.5 -15t-67.5 -9q-48 0 -78.5 18.5t-30.5 61.5
q0 30 14 48.5t30 29.5q-54 2 -99.5 19t-79.5 49.5t-53 80t-19 110.5q0 61 19.5 111.5t54.5 87t83 56.5t106 20q54 0 95.5 -14.5t69 -40t42 -60.5t14.5 -77zM441 336q0 19 -6.5 38t-21.5 34t-38.5 24.5t-56.5 9.5q-38 0 -67 -15.5t-48.5 -39.5t-29.5 -53.5t-11 -58.5h211
q36 0 52 13t16 48z" />
    <glyph glyph-name="Ecaron" unicode="&#x11a;" horiz-adv-x="623" 
d="M200 303v-209h345v-94h-453v627q0 29 15.5 44.5t47.5 15.5h345q50 0 50 -47q0 -17 -5 -30t-8 -18h-337v-194h286q50 0 50 -47q0 -17 -5 -30t-8 -18h-323zM334 742q-19 0 -34.5 9.5t-30.5 21.5q-23 17 -49 38t-49 40l40 42l123 -69l121 69l41 -42l-97 -78
q-15 -12 -31 -21.5t-34 -9.5z" />
    <glyph glyph-name="ecaron" unicode="&#x11b;" horiz-adv-x="592" 
d="M540 326q0 -58 -32 -91t-109 -33h-234q9 -63 52.5 -97t117.5 -34q57 0 93.5 11.5t49.5 19.5l32 -75q-5 -3 -20.5 -10.5t-40 -14.5t-57 -12.5t-70.5 -5.5q-56 0 -104.5 16t-84.5 48t-56.5 81t-20.5 114q0 61 19.5 111.5t54.5 87t83 56.5t106 20q54 0 95.5 -14.5t69 -40
t42 -60.5t14.5 -77zM441 336q0 19 -6.5 38t-21.5 34t-38.5 24.5t-56.5 9.5q-38 0 -67 -15.5t-48.5 -39.5t-29.5 -53.5t-11 -58.5h211q36 0 52 13t16 48zM322 566q-18 0 -31 9t-27 22l-88 82l41 42l105 -75l105 75l41 -42l-87 -82q-14 -13 -27.5 -22t-31.5 -9z" />
    <glyph glyph-name="Gcircumflex" unicode="&#x11c;" horiz-adv-x="743" 
d="M600 378q62 0 62 -59v-320q-4 -1 -22.5 -3.5t-47.5 -5.5t-66 -5t-79 -2q-84 0 -154.5 22.5t-121.5 67.5t-80 112.5t-29 157.5q0 84 28 150.5t77.5 113.5t117 72t147.5 25q39 0 71.5 -5t57.5 -12.5t43 -16.5t28 -16q17 -12 24.5 -25.5t7.5 -25.5t-5 -22t-12 -18
t-14.5 -13.5t-12.5 -8.5q-9 10 -25.5 23t-40.5 24t-55.5 19t-69.5 8q-55 0 -101.5 -18.5t-80.5 -53.5t-53 -85.5t-19 -114.5q0 -69 20.5 -120t57.5 -84t88.5 -49t112.5 -16q45 0 70 3t33 5v202h-115q-51 0 -51 46q0 17 5 30t8 18h196zM431 893q18 0 34 -10t31 -22l97 -77
l-41 -42l-121 68l-123 -68l-40 42l97 77q17 14 31.5 23t34.5 9z" />
    <glyph glyph-name="gcircumflex" unicode="&#x11d;" horiz-adv-x="631" 
d="M550 273q0 -57 -22 -100.5t-60 -75.5q27 -15 43.5 -32.5t25.5 -35.5t12 -34.5t3 -28.5q0 -41 -17.5 -73.5t-49.5 -55t-76.5 -35t-97.5 -12.5q-57 0 -100.5 8.5t-73 19.5t-46 21t-19.5 13l43 77q5 -4 19.5 -13t38 -18.5t55.5 -16.5t72 -7q30 0 56 5.5t45 17t30 30t11 44.5
q0 19 -12.5 42t-44.5 38q-16 -6 -40 -10t-43 -4q-54 0 -99.5 18t-78.5 50t-51.5 76t-18.5 97t19 97t52 76t78.5 49.5t98.5 17.5q24 0 47 -4t44 -12h156q26 0 36.5 -11.5t10.5 -31.5q0 -14 -5 -25t-8 -15h-90q32 -29 44.5 -69.5t12.5 -76.5zM446 278q0 72 -39.5 115.5
t-104.5 43.5q-66 0 -105.5 -44t-39.5 -115q0 -72 39.5 -116t105.5 -44q65 0 104.5 44t39.5 116zM324 721q18 0 31.5 -9.5t27.5 -22.5l87 -81l-41 -42l-105 75l-105 -75l-41 42l87 81q14 14 27.5 23t31.5 9z" />
    <glyph glyph-name="Gbreve" unicode="&#x11e;" horiz-adv-x="743" 
d="M600 378q62 0 62 -59v-320q-4 -1 -22.5 -3.5t-47.5 -5.5t-66 -5t-79 -2q-84 0 -154.5 22.5t-121.5 67.5t-80 112.5t-29 157.5q0 84 28 150.5t77.5 113.5t117 72t147.5 25q39 0 71.5 -5t57.5 -12.5t43 -16.5t28 -16q17 -12 24.5 -25.5t7.5 -25.5t-5 -22t-12 -18
t-14.5 -13.5t-12.5 -8.5q-9 10 -25.5 23t-40.5 24t-55.5 19t-69.5 8q-55 0 -101.5 -18.5t-80.5 -53.5t-53 -85.5t-19 -114.5q0 -69 20.5 -120t57.5 -84t88.5 -49t112.5 -16q45 0 70 3t33 5v202h-115q-51 0 -51 46q0 17 5 30t8 18h196zM430 819q36 0 55 19t29 55l74 -8
q-1 -21 -8.5 -46t-25.5 -46.5t-48 -36t-76 -14.5t-76.5 14.5t-48.5 36t-25.5 46.5t-8.5 46l74 8q10 -36 29 -55t56 -19z" />
    <glyph glyph-name="gbreve" unicode="&#x11f;" horiz-adv-x="631" 
d="M550 273q0 -57 -22 -100.5t-60 -75.5q27 -15 43.5 -32.5t25.5 -35.5t12 -34.5t3 -28.5q0 -41 -17.5 -73.5t-49.5 -55t-76.5 -35t-97.5 -12.5q-57 0 -100.5 8.5t-73 19.5t-46 21t-19.5 13l43 77q5 -4 19.5 -13t38 -18.5t55.5 -16.5t72 -7q30 0 56 5.5t45 17t30 30t11 44.5
q0 19 -12.5 42t-44.5 38q-16 -6 -40 -10t-43 -4q-54 0 -99.5 18t-78.5 50t-51.5 76t-18.5 97t19 97t52 76t78.5 49.5t98.5 17.5q24 0 47 -4t44 -12h156q26 0 36.5 -11.5t10.5 -31.5q0 -14 -5 -25t-8 -15h-90q32 -29 44.5 -69.5t12.5 -76.5zM446 278q0 72 -39.5 115.5
t-104.5 43.5q-66 0 -105.5 -44t-39.5 -115q0 -72 39.5 -116t105.5 -44q65 0 104.5 44t39.5 116zM315 637q35 0 52.5 18.5t25.5 52.5l64 -8q-1 -19 -8 -42t-23 -42.5t-43 -33t-68 -13.5t-68 13.5t-43 33t-23 42.5t-8 42l64 8q8 -34 25.5 -52.5t52.5 -18.5z" />
    <glyph glyph-name="Gdotaccent" unicode="&#x120;" horiz-adv-x="743" 
d="M600 378q62 0 62 -59v-320q-4 -1 -22.5 -3.5t-47.5 -5.5t-66 -5t-79 -2q-84 0 -154.5 22.5t-121.5 67.5t-80 112.5t-29 157.5q0 84 28 150.5t77.5 113.5t117 72t147.5 25q39 0 71.5 -5t57.5 -12.5t43 -16.5t28 -16q17 -12 24.5 -25.5t7.5 -25.5t-5 -22t-12 -18
t-14.5 -13.5t-12.5 -8.5q-9 10 -25.5 23t-40.5 24t-55.5 19t-69.5 8q-55 0 -101.5 -18.5t-80.5 -53.5t-53 -85.5t-19 -114.5q0 -69 20.5 -120t57.5 -84t88.5 -49t112.5 -16q45 0 70 3t33 5v202h-115q-51 0 -51 46q0 17 5 30t8 18h196zM434 745q-13 0 -25 5.5t-21 14.5
t-14.5 20t-5.5 23t5.5 23t14.5 20t21 14.5t25 5.5t24.5 -5.5t20.5 -14.5t14 -20t5 -23t-5 -23t-14 -20t-20.5 -14.5t-24.5 -5.5z" />
    <glyph glyph-name="gdotaccent" unicode="&#x121;" horiz-adv-x="631" 
d="M550 273q0 -57 -22 -100.5t-60 -75.5q27 -15 43.5 -32.5t25.5 -35.5t12 -34.5t3 -28.5q0 -41 -17.5 -73.5t-49.5 -55t-76.5 -35t-97.5 -12.5q-57 0 -100.5 8.5t-73 19.5t-46 21t-19.5 13l43 77q5 -4 19.5 -13t38 -18.5t55.5 -16.5t72 -7q30 0 56 5.5t45 17t30 30t11 44.5
q0 19 -12.5 42t-44.5 38q-16 -6 -40 -10t-43 -4q-54 0 -99.5 18t-78.5 50t-51.5 76t-18.5 97t19 97t52 76t78.5 49.5t98.5 17.5q24 0 47 -4t44 -12h156q26 0 36.5 -11.5t10.5 -31.5q0 -14 -5 -25t-8 -15h-90q32 -29 44.5 -69.5t12.5 -76.5zM446 278q0 72 -39.5 115.5
t-104.5 43.5q-66 0 -105.5 -44t-39.5 -115q0 -72 39.5 -116t105.5 -44q65 0 104.5 44t39.5 116zM314 571q-12 0 -23.5 5.5t-20.5 14t-14.5 19.5t-5.5 23q0 23 19.5 42t44.5 19q26 0 44.5 -19t18.5 -42q0 -12 -5 -23t-13.5 -19.5t-20 -14t-24.5 -5.5z" />
    <glyph glyph-name="Gcommaaccent" unicode="&#x122;" horiz-adv-x="743" 
d="M600 378q62 0 62 -59v-320q-4 -1 -22.5 -3.5t-47.5 -5.5t-66 -5t-79 -2q-84 0 -154.5 22.5t-121.5 67.5t-80 112.5t-29 157.5q0 84 28 150.5t77.5 113.5t117 72t147.5 25q39 0 71.5 -5t57.5 -12.5t43 -16.5t28 -16q17 -12 24.5 -25.5t7.5 -25.5t-5 -22t-12 -18
t-14.5 -13.5t-12.5 -8.5q-9 10 -25.5 23t-40.5 24t-55.5 19t-69.5 8q-55 0 -101.5 -18.5t-80.5 -53.5t-53 -85.5t-19 -114.5q0 -69 20.5 -120t57.5 -84t88.5 -49t112.5 -16q45 0 70 3t33 5v202h-115q-51 0 -51 46q0 17 5 30t8 18h196zM363 -222l-55 36l56 92q10 15 20 24.5
t24 14.5q9 3 19 3q14 0 28 -7q16 -8 22.5 -17t8.5 -14z" />
    <glyph glyph-name="gcommaaccent" unicode="&#x123;" horiz-adv-x="631" 
d="M550 273q0 -57 -22 -100.5t-60 -75.5q27 -15 43.5 -32.5t25.5 -35.5t12 -34.5t3 -28.5q0 -41 -17.5 -73.5t-49.5 -55t-76.5 -35t-97.5 -12.5q-57 0 -100.5 8.5t-73 19.5t-46 21t-19.5 13l43 77q5 -4 19.5 -13t38 -18.5t55.5 -16.5t72 -7q30 0 56 5.5t45 17t30 30t11 44.5
q0 19 -12.5 42t-44.5 38q-16 -6 -40 -10t-43 -4q-54 0 -99.5 18t-78.5 50t-51.5 76t-18.5 97t19 97t52 76t78.5 49.5t98.5 17.5q24 0 47 -4t44 -12h156q26 0 36.5 -11.5t10.5 -31.5q0 -14 -5 -25t-8 -15h-90q32 -29 44.5 -69.5t12.5 -76.5zM446 278q0 72 -39.5 115.5
t-104.5 43.5q-66 0 -105.5 -44t-39.5 -115q0 -72 39.5 -116t105.5 -44q65 0 104.5 44t39.5 116zM400 728l54 -36l-54 -89q-9 -15 -19 -25.5t-24 -15.5q-9 -3 -17 -3q-13 0 -30 7q-16 8 -22 17.5t-8 14.5z" />
    <glyph glyph-name="Hcircumflex" unicode="&#x124;" horiz-adv-x="758" 
d="M558 636q0 51 56 51q18 0 32 -5t19 -7v-675h-107v310h-358v-310h-108v636q0 26 15 38.5t42 12.5q17 0 31.5 -4.5t19.5 -7.5v-272h358v233zM390 893q18 0 34 -10t31 -22l97 -77l-41 -42l-121 68l-123 -68l-40 42l97 77q17 14 31.5 23t34.5 9z" />
    <glyph glyph-name="hcircumflex" unicode="&#x125;" horiz-adv-x="636" 
d="M185 442q6 9 18.5 22t32.5 25t49.5 20.5t68.5 8.5q91 0 146 -51.5t55 -152.5v-314h-103v293q0 66 -28.5 102t-97.5 36q-35 0 -61.5 -12.5t-44 -34t-26.5 -50.5t-9 -62v-272h-103v690q0 47 55 47q16 0 29.5 -4t18.5 -6v-285zM243 931q18 0 31.5 -9.5t27.5 -22.5l87 -81
l-41 -42l-105 75l-105 -75l-41 42l87 81q14 14 27.5 23t31.5 9z" />
    <glyph glyph-name="Hbar" unicode="&#x126;" horiz-adv-x="758" 
d="M92 579v57q0 26 15 38.5t42 12.5q17 0 31.5 -4.5t19.5 -7.5v-96h358v57q0 51 56 51q18 0 32 -5t19 -7v-96h32q26 0 36.5 -12.5t10.5 -35.5q0 -14 -3.5 -25t-7.5 -15h-68v-491h-107v310h-358v-310h-108v491h-34q-23 0 -34 13t-11 35q0 15 3.5 26t7.5 14h68zM558 491h-358
v-88h358v88z" />
    <glyph glyph-name="hbar" unicode="&#x127;" horiz-adv-x="636" 
d="M82 647v43q0 47 55 47q16 0 29.5 -4t18.5 -6v-80h112q23 0 32 -11.5t9 -30.5q0 -14 -3.5 -23t-5.5 -14h-144v-126q6 9 18.5 22t32.5 25t49.5 20.5t68.5 8.5q91 0 146 -51.5t55 -152.5v-314h-103v293q0 66 -28.5 102t-97.5 36q-35 0 -61.5 -12.5t-44 -34t-26.5 -50.5
t-9 -62v-272h-103v568h-42q-23 0 -32.5 11.5t-9.5 31.5q0 14 3.5 22.5t5.5 13.5h75z" />
    <glyph glyph-name="Itilde" unicode="&#x128;" horiz-adv-x="292" 
d="M92 636q0 26 15 38.5t42 12.5q17 0 31.5 -4.5t19.5 -7.5v-675h-108v636zM121 777q-9 3 -18.5 5.5t-20.5 2.5q-14 0 -22 -9t-13 -28l-71 13q4 19 11 37.5t19.5 33.5t30.5 24t43 9q23 0 42.5 -4.5t36.5 -10.5l26 -9q8 -2 16.5 -4t16.5 -2q15 0 23 9t13 27l72 -12
q-4 -20 -11.5 -38.5t-20.5 -33t-31 -23.5t-43 -9q-22 0 -39.5 4.5t-33.5 9.5z" />
    <glyph glyph-name="itilde" unicode="&#x129;" horiz-adv-x="282" 
d="M89 455q0 25 14.5 36t40.5 11q17 0 30.5 -3.5t18.5 -5.5v-493h-104v455zM119 601q-11 4 -21 6.5t-21 2.5q-15 0 -23.5 -9t-13.5 -28l-68 13q4 18 11.5 36.5t19.5 32.5t30 23t42 9q23 0 42 -4.5t36 -10.5l18 -6q9 -2 20.5 -5.5t22.5 -3.5q16 0 24.5 9t13.5 27l68 -12
q-4 -19 -11.5 -37t-20 -32.5t-30.5 -23t-42 -8.5q-21 0 -38.5 4.5t-34.5 9.5z" />
    <glyph glyph-name="Imacron" unicode="&#x12a;" horiz-adv-x="292" 
d="M92 636q0 26 15 38.5t42 12.5q17 0 31.5 -4.5t19.5 -7.5v-675h-108v636zM281 852q26 0 35 -12t9 -32q0 -15 -3.5 -24.5t-5.5 -14.5h-295q-23 0 -33.5 11.5t-10.5 30.5q0 16 3 24.5t5 16.5h296z" />
    <glyph glyph-name="imacron" unicode="&#x12b;" horiz-adv-x="282" 
d="M89 455q0 25 14.5 36t40.5 11q17 0 30.5 -3.5t18.5 -5.5v-493h-104v455zM267 671q22 0 30 -10.5t8 -27.5q0 -13 -3 -23t-5 -13h-271q-21 0 -29.5 10.5t-8.5 28.5q0 13 3 22t5 13h271z" />
    <glyph glyph-name="Ibreve" unicode="&#x12c;" horiz-adv-x="292" 
d="M92 636q0 26 15 38.5t42 12.5q17 0 31.5 -4.5t19.5 -7.5v-675h-108v636zM152 819q36 0 55 19t29 55l74 -8q-1 -21 -8.5 -46t-25.5 -46.5t-48 -36t-76 -14.5t-76.5 14.5t-48.5 36t-25.5 46.5t-8.5 46l74 8q10 -36 29 -55t56 -19z" />
    <glyph glyph-name="ibreve" unicode="&#x12d;" horiz-adv-x="282" 
d="M89 455q0 25 14.5 36t40.5 11q17 0 30.5 -3.5t18.5 -5.5v-493h-104v455zM146 637q35 0 52.5 18.5t25.5 52.5l64 -8q-1 -19 -8 -42t-23 -42.5t-43 -33t-68 -13.5t-68 13.5t-43 33t-23 42.5t-8 42l64 8q8 -34 25.5 -52.5t52.5 -18.5z" />
    <glyph glyph-name="Iogonek" unicode="&#x12e;" horiz-adv-x="292" 
d="M200 0q-16 -3 -32.5 -9t-30.5 -15.5t-23 -22t-9 -28.5q0 -19 13.5 -26.5t31.5 -7.5q25 0 43 8t21 10l25 -57q-11 -6 -38.5 -15.5t-68.5 -9.5q-49 0 -80 19t-31 63q0 22 8 38t19 27t23.5 17.5t20.5 9.5v635q0 26 15 38.5t42 12.5q17 0 31.5 -4.5t19.5 -7.5v-675z" />
    <glyph glyph-name="iogonek" unicode="&#x12f;" horiz-adv-x="282" 
d="M89 455q0 25 14.5 36t40.5 11q17 0 30.5 -3.5t18.5 -5.5v-493h-10q-16 -3 -32 -10t-29.5 -16.5t-22 -22.5t-8.5 -28q0 -21 14 -29t34 -8q25 0 42.5 7.5t20.5 9.5l23 -53q-11 -6 -37.5 -15t-67.5 -9q-48 0 -78.5 18.5t-30.5 61.5q0 24 9.5 40.5t22.5 28t26 17.5t20 8v455z
" />
    <glyph glyph-name="Idotaccent" unicode="&#x130;" horiz-adv-x="292" 
d="M92 636q0 26 15 38.5t42 12.5q17 0 31.5 -4.5t19.5 -7.5v-675h-108v636zM152 745q-13 0 -25 5.5t-21 14.5t-14.5 20t-5.5 23t5.5 23t14.5 20t21 14.5t25 5.5t24.5 -5.5t20.5 -14.5t14 -20t5 -23t-5 -23t-14 -20t-20.5 -14.5t-24.5 -5.5z" />
    <glyph glyph-name="dotlessi" unicode="&#x131;" horiz-adv-x="282" 
d="M89 455q0 25 14.5 36t40.5 11q17 0 30.5 -3.5t18.5 -5.5v-493h-104v455z" />
    <glyph glyph-name="IJ" unicode="&#x132;" horiz-adv-x="858" 
d="M92 636q0 26 15 38.5t42 12.5q17 0 31.5 -4.5t19.5 -7.5v-675h-108v636zM661 636q0 26 15 38.5t42 12.5q17 0 31 -4.5t19 -7.5v-447q0 -55 -12 -100t-39.5 -77.5t-72 -50t-109.5 -17.5q-54 0 -93.5 13.5t-65.5 30.5t-39.5 32.5t-16.5 19.5l66 65q4 -6 15 -18.5t29 -24.5
t43 -21.5t58 -9.5q66 0 98 35.5t32 120.5v410z" />
    <glyph glyph-name="ij" unicode="&#x133;" horiz-adv-x="570" 
d="M205 674q0 -26 -19 -44.5t-46 -18.5q-26 0 -45 18.5t-19 44.5t19 44.5t45 18.5q27 0 46 -18.5t19 -44.5zM89 455q0 25 14.5 36t40.5 11q17 0 30.5 -3.5t18.5 -5.5v-493h-104v455zM493 674q0 -26 -19 -44.5t-46 -18.5q-26 0 -45 18.5t-19 44.5t19 44.5t45 18.5
q27 0 46 -18.5t19 -44.5zM481 -30q0 -50 -14.5 -84.5t-38.5 -55.5t-56 -30.5t-67 -9.5q-21 0 -39.5 3t-34 7t-26 8.5t-14.5 6.5l28 69q5 -3 25 -9.5t48 -6.5q17 0 32.5 4.5t27 15t18.5 28.5t7 44v495q0 25 14.5 36t40.5 11q17 0 30.5 -3.5t18.5 -5.5v-523z" />
    <glyph glyph-name="Jcircumflex" unicode="&#x134;" horiz-adv-x="551" 
d="M354 636q0 26 15 38.5t42 12.5q17 0 31 -4.5t19 -7.5v-447q0 -55 -12 -100t-39.5 -77.5t-72 -50t-109.5 -17.5q-54 0 -93.5 13.5t-65.5 30.5t-39.5 32.5t-16.5 19.5l66 65q4 -6 15 -18.5t29 -24.5t43 -21.5t58 -9.5q66 0 98 35.5t32 120.5v410zM408 893q18 0 34 -10
t31 -22l97 -77l-41 -42l-121 68l-123 -68l-40 42l97 77q17 14 31.5 23t34.5 9z" />
    <glyph glyph-name="jcircumflex" unicode="&#x135;" horiz-adv-x="282" 
d="M193 -30q0 -50 -14.5 -84.5t-38.5 -55.5t-56 -30.5t-67 -9.5q-21 0 -39.5 3t-34 7t-26 8.5t-14.5 6.5l28 69q5 -3 25 -9.5t48 -6.5q17 0 32.5 4.5t27 15t18.5 28.5t7 44v495q0 25 14.5 36t40.5 11q17 0 30.5 -3.5t18.5 -5.5v-523zM148 721q18 0 31.5 -9.5t27.5 -22.5
l87 -81l-41 -42l-105 75l-105 -75l-41 42l87 81q14 14 27.5 23t31.5 9z" />
    <glyph glyph-name="Kcommaaccent" unicode="&#x136;" horiz-adv-x="670" 
d="M200 391q25 24 62 57.5t77.5 70t80 71t68.5 59.5q20 18 36 28t43 10q15 0 27.5 -5t21 -11t13.5 -12t7 -8q-10 -9 -35 -30t-57 -49t-68 -59t-69 -60.5t-59 -53t-39 -36.5q102 -89 192 -180.5t159 -182.5h-134q-29 36 -68 78.5t-82.5 85.5t-89 83.5t-86.5 70.5v-318h-108
v636q0 26 15 38.5t42 12.5q17 0 31.5 -4.5t19.5 -7.5v-284zM301 -222l-55 36l56 92q10 15 20 24.5t24 14.5q9 3 19 3q14 0 28 -7q16 -8 22.5 -17t8.5 -14z" />
    <glyph glyph-name="kcommaaccent" unicode="&#x137;" horiz-adv-x="565" 
d="M82 690q0 47 55 47q16 0 29.5 -4t18.5 -6v-421q10 8 32.5 25.5t50.5 39.5t58 45t56 43q29 23 47.5 32.5t44.5 9.5q15 0 26 -5t19.5 -11t13 -12t5.5 -8q-7 -7 -25.5 -21.5t-43.5 -34t-52.5 -40.5t-52.5 -39.5t-44.5 -33t-26.5 -19.5q43 -31 82.5 -67t74 -72.5t63.5 -72
t50 -65.5h-130q-22 30 -51.5 62t-62.5 63.5t-67.5 60.5t-66.5 52v-238h-103v690zM249 -215l-54 36l54 89q9 15 19 25.5t24 15.5q9 3 17 3t15 -2t15 -5q16 -8 22 -17.5t8 -14.5z" />
    <glyph glyph-name="kgreenlandic" unicode="&#x138;" horiz-adv-x="565" 
d="M82 455q0 47 55 47q16 0 29.5 -4t18.5 -6v-210q10 8 32.5 29.5t50.5 48t58 53.5t56 47q29 23 47.5 32.5t44.5 9.5q15 0 26 -5t19.5 -11t13 -12t5.5 -8q-7 -7 -25.5 -23.5t-43.5 -38.5t-52.5 -46.5t-52.5 -46t-44.5 -37.5t-26.5 -21q70 -50 137 -108t133 -145h-130
q-61 69 -124.5 120.5t-123.5 93.5v-214h-103v455z" />
    <glyph glyph-name="Lacute" unicode="&#x139;" horiz-adv-x="560" 
d="M92 636q0 26 15 38.5t42 12.5q17 0 31.5 -4.5t19.5 -7.5v-581h335v-94h-443v636zM145 742l-35 55l119 79q15 10 25.5 13.5t23.5 3.5q19 0 32 -7.5t21 -17.5t11.5 -20.5t3.5 -16.5z" />
    <glyph glyph-name="lacute" unicode="&#x13a;" horiz-adv-x="282" 
d="M89 690q0 24 14.5 35.5t40.5 11.5q17 0 30.5 -4t18.5 -6v-727h-104v690zM66 766l-35 50l103 83q14 11 24 15.5t23 4.5q16 0 27 -7t18 -16.5t10 -19t3 -13.5z" />
    <glyph glyph-name="Lcommaaccent" unicode="&#x13b;" horiz-adv-x="560" 
d="M92 636q0 26 15 38.5t42 12.5q17 0 31.5 -4.5t19.5 -7.5v-581h335v-94h-443v636zM258 -222l-55 36l56 92q10 15 20 24.5t24 14.5q9 3 19 3q14 0 28 -7q16 -8 22.5 -17t8.5 -14z" />
    <glyph glyph-name="lcommaaccent" unicode="&#x13c;" horiz-adv-x="282" 
d="M89 690q0 24 14.5 35.5t40.5 11.5q17 0 30.5 -4t18.5 -6v-727h-104v690zM82 -215l-54 36l54 89q9 15 19 25.5t24 15.5q9 3 17 3t15 -2t15 -5q16 -8 22 -17.5t8 -14.5z" />
    <glyph glyph-name="Lcaron" unicode="&#x13d;" horiz-adv-x="560" 
d="M92 636q0 26 15 38.5t42 12.5q17 0 31.5 -4.5t19.5 -7.5v-581h335v-94h-443v636zM307 643q0 48 56 48q17 0 30.5 -4t18.5 -6l-40 -205h-65v167z" />
    <glyph glyph-name="lcaron" unicode="&#x13e;" horiz-adv-x="368" 
d="M89 690q0 24 14.5 35.5t40.5 11.5q17 0 30.5 -4t18.5 -6v-727h-104v690zM282 689q0 48 56 48q17 0 30.5 -4t18.5 -6l-40 -205h-65v167z" />
    <glyph glyph-name="Ldot" unicode="&#x13f;" horiz-adv-x="560" 
d="M92 636q0 26 15 38.5t42 12.5q17 0 31.5 -4.5t19.5 -7.5v-581h335v-94h-443v636zM423 334q-13 0 -25 5.5t-21 14.5t-14.5 20t-5.5 23t5.5 23t14.5 20t21 14.5t25 5.5t24.5 -5.5t20.5 -14.5t14 -20t5 -23t-5 -23t-14 -20t-20.5 -14.5t-24.5 -5.5z" />
    <glyph glyph-name="ldot" unicode="&#x140;" horiz-adv-x="400" 
d="M89 690q0 24 14.5 35.5t40.5 11.5q17 0 30.5 -4t18.5 -6v-727h-104v690zM340 335q-12 0 -23.5 5.5t-20.5 14t-14.5 19.5t-5.5 23q0 23 19.5 42t44.5 19q26 0 44.5 -19t18.5 -42q0 -12 -5 -23t-13.5 -19.5t-20 -14t-24.5 -5.5z" />
    <glyph glyph-name="Lslash" unicode="&#x141;" horiz-adv-x="560" 
d="M200 426l159 103v-31q0 -23 -4 -46t-26 -37l-129 -83v-238h335v-94h-443v262l-75 -48v31q0 23 4 46t26 37l45 29v279q0 26 15 38.5t42 12.5q17 0 31.5 -4.5t19.5 -7.5v-249z" />
    <glyph glyph-name="lslash" unicode="&#x142;" horiz-adv-x="282" 
d="M199 365v-365h-114v299l-64 -45v61q0 23 4 37t26 28l34 23v281q0 27 16 40t45 13q18 0 33 -4.5t20 -6.5v-257l64 45v-61q0 -23 -4 -36.5t-26 -28.5z" />
    <glyph glyph-name="Nacute" unicode="&#x143;" horiz-adv-x="761" 
d="M228 664q10 -13 32 -43.5t50 -71.5t61 -90.5t67 -101t66 -101.5t58 -92v472q0 26 15 38.5t41 12.5q18 0 32 -4.5t19 -7.5v-675h-113q-25 38 -55.5 85.5t-63.5 99t-67 103.5t-65.5 99t-59 86.5t-47.5 66.5v-540h-106v630q0 21 17 39t51 18q26 0 42.5 -8.5t25.5 -14.5z
M350 742l-35 55l119 79q15 10 25.5 13.5t23.5 3.5q19 0 32 -7.5t21 -17.5t11.5 -20.5t3.5 -16.5z" />
    <glyph glyph-name="nacute" unicode="&#x144;" horiz-adv-x="633" 
d="M449 0v282q0 73 -35 111t-110 38q-51 0 -81 -9.5t-38 -13.5v-408h-103v474q4 2 22 9t48 15t70 14t88 6q55 0 100 -14.5t76.5 -41.5t48.5 -65t17 -86v-311h-103zM258 566l-35 50l103 83q14 11 24 15.5t23 4.5q16 0 27 -7t18 -16.5t10 -19t3 -13.5z" />
    <glyph glyph-name="Ncommaaccent" unicode="&#x145;" horiz-adv-x="761" 
d="M228 664q10 -13 32 -43.5t50 -71.5t61 -90.5t67 -101t66 -101.5t58 -92v472q0 26 15 38.5t41 12.5q18 0 32 -4.5t19 -7.5v-675h-113q-25 38 -55.5 85.5t-63.5 99t-67 103.5t-65.5 99t-59 86.5t-47.5 66.5v-540h-106v630q0 21 17 39t51 18q26 0 42.5 -8.5t25.5 -14.5z
M325 -222l-55 36l56 92q10 15 20 24.5t24 14.5q9 3 19 3q14 0 28 -7q16 -8 22.5 -17t8.5 -14z" />
    <glyph glyph-name="ncommaaccent" unicode="&#x146;" horiz-adv-x="633" 
d="M449 0v282q0 73 -35 111t-110 38q-51 0 -81 -9.5t-38 -13.5v-408h-103v474q4 2 22 9t48 15t70 14t88 6q55 0 100 -14.5t76.5 -41.5t48.5 -65t17 -86v-311h-103zM270 -215l-54 36l54 89q9 15 19 25.5t24 15.5q9 3 17 3t15 -2t15 -5q16 -8 22 -17.5t8 -14.5z" />
    <glyph glyph-name="Ncaron" unicode="&#x147;" horiz-adv-x="761" 
d="M228 664q10 -13 32 -43.5t50 -71.5t61 -90.5t67 -101t66 -101.5t58 -92v472q0 26 15 38.5t41 12.5q18 0 32 -4.5t19 -7.5v-675h-113q-25 38 -55.5 85.5t-63.5 99t-67 103.5t-65.5 99t-59 86.5t-47.5 66.5v-540h-106v630q0 21 17 39t51 18q26 0 42.5 -8.5t25.5 -14.5z
M396 742q-19 0 -34.5 9.5t-30.5 21.5q-23 17 -49 38t-49 40l40 42l123 -69l121 69l41 -42l-97 -78q-15 -12 -31 -21.5t-34 -9.5z" />
    <glyph glyph-name="ncaron" unicode="&#x148;" horiz-adv-x="633" 
d="M449 0v282q0 73 -35 111t-110 38q-51 0 -81 -9.5t-38 -13.5v-408h-103v474q4 2 22 9t48 15t70 14t88 6q55 0 100 -14.5t76.5 -41.5t48.5 -65t17 -86v-311h-103zM316 566q-18 0 -31 9t-27 22l-88 82l41 42l105 -75l105 75l41 -42l-87 -82q-14 -13 -27.5 -22t-31.5 -9z" />
    <glyph glyph-name="napostrophe" unicode="&#x149;" horiz-adv-x="633" 
d="M449 0v282q0 73 -35 111t-110 38q-51 0 -81 -9.5t-38 -13.5v-408h-103v474q4 2 22 9t48 15t70 14t88 6q55 0 100 -14.5t76.5 -41.5t48.5 -65t17 -86v-311h-103zM-66 473q3 3 12.5 14t20 27t20 36t12.5 41q-62 8 -62 65q0 28 18.5 46t47.5 18q28 0 50 -20.5t22 -69.5
q0 -40 -14 -74.5t-31.5 -60.5t-33 -41.5l-18.5 -18.5z" />
    <glyph glyph-name="Eng" unicode="&#x14a;" horiz-adv-x="761" 
d="M669 -30q0 -50 -15 -84.5t-39.5 -55.5t-57 -30.5t-67.5 -9.5q-21 0 -39.5 3t-34 7t-26 8.5t-14.5 6.5l28 69q5 -3 25 -9.5t48 -6.5q17 0 32.5 4.5t27 15t18.5 28.5t7 44v40q-25 38 -56 85.5t-64.5 99t-68.5 103.5t-67 99t-60 86.5t-48 66.5v-540h-106v630q0 21 17 39
t51 18q26 0 42.5 -8.5t25.5 -14.5q10 -13 32 -43.5t50 -71.5t61 -90.5t67 -101t66 -101.5t58 -92v472q0 26 15 38.5t41 12.5q18 0 32 -4.5t19 -7.5v-673v-32z" />
    <glyph glyph-name="eng" unicode="&#x14b;" horiz-adv-x="633" 
d="M552 -30q0 -50 -14.5 -84.5t-38.5 -55.5t-55.5 -30.5t-66.5 -9.5q-21 0 -39.5 3t-34 7t-26 8.5t-14.5 6.5l28 69q5 -3 25 -9.5t48 -6.5q17 0 32.5 4.5t27 15t18.5 28.5t7 44v322q0 73 -35 111t-110 38q-51 0 -81 -9.5t-38 -13.5v-408h-103v474q4 2 22 9t48 15t70 14t88 6
q55 0 100 -14.5t76.5 -41.5t48.5 -65t17 -86v-311v-30z" />
    <glyph glyph-name="Omacron" unicode="&#x14c;" horiz-adv-x="829" 
d="M767 344q0 -77 -26 -143t-72.5 -114.5t-111.5 -76t-143 -27.5t-142.5 27.5t-111 76t-72.5 114.5t-26 143t26 143t72.5 114t111 75.5t142.5 27.5t143 -27.5t111.5 -75.5t72.5 -114t26 -143zM654 344q0 58 -17 107t-48.5 85t-75.5 56t-98 20t-98.5 -20t-76 -56t-48.5 -85
t-17 -107t17 -107.5t48.5 -85.5t76 -56.5t98.5 -20.5t98 20.5t75.5 56.5t48.5 85.5t17 107.5zM548 852q26 0 35 -12t9 -32q0 -15 -3.5 -24.5t-5.5 -14.5h-295q-23 0 -33.5 11.5t-10.5 30.5q0 16 3 24.5t5 16.5h296z" />
    <glyph glyph-name="omacron" unicode="&#x14d;" horiz-adv-x="645" 
d="M589 251q0 -57 -19.5 -106t-54.5 -84.5t-84 -56t-108 -20.5t-108.5 20.5t-84.5 56t-54.5 84.5t-19.5 106t19.5 106t54.5 84.5t84.5 56t108.5 20.5t108 -20.5t84 -56t54.5 -84.5t19.5 -106zM482 251q0 40 -11 73.5t-31.5 58t-50 38t-66.5 13.5q-38 0 -67.5 -13.5t-50 -38
t-31.5 -58t-11 -73.5t11 -73.5t31.5 -58t50 -38t67.5 -13.5q37 0 66.5 13.5t50 38t31.5 58t11 73.5zM445 671q22 0 30 -10.5t8 -27.5q0 -13 -3 -23t-5 -13h-271q-21 0 -29.5 10.5t-8.5 28.5q0 13 3 22t5 13h271z" />
    <glyph glyph-name="Obreve" unicode="&#x14e;" horiz-adv-x="829" 
d="M767 344q0 -77 -26 -143t-72.5 -114.5t-111.5 -76t-143 -27.5t-142.5 27.5t-111 76t-72.5 114.5t-26 143t26 143t72.5 114t111 75.5t142.5 27.5t143 -27.5t111.5 -75.5t72.5 -114t26 -143zM654 344q0 58 -17 107t-48.5 85t-75.5 56t-98 20t-98.5 -20t-76 -56t-48.5 -85
t-17 -107t17 -107.5t48.5 -85.5t76 -56.5t98.5 -20.5t98 20.5t75.5 56.5t48.5 85.5t17 107.5zM415 819q36 0 55 19t29 55l74 -8q-1 -21 -8.5 -46t-25.5 -46.5t-48 -36t-76 -14.5t-76.5 14.5t-48.5 36t-25.5 46.5t-8.5 46l74 8q10 -36 29 -55t56 -19z" />
    <glyph glyph-name="obreve" unicode="&#x14f;" horiz-adv-x="645" 
d="M589 251q0 -57 -19.5 -106t-54.5 -84.5t-84 -56t-108 -20.5t-108.5 20.5t-84.5 56t-54.5 84.5t-19.5 106t19.5 106t54.5 84.5t84.5 56t108.5 20.5t108 -20.5t84 -56t54.5 -84.5t19.5 -106zM482 251q0 40 -11 73.5t-31.5 58t-50 38t-66.5 13.5q-38 0 -67.5 -13.5t-50 -38
t-31.5 -58t-11 -73.5t11 -73.5t31.5 -58t50 -38t67.5 -13.5q37 0 66.5 13.5t50 38t31.5 58t11 73.5zM326 637q35 0 52.5 18.5t25.5 52.5l64 -8q-1 -19 -8 -42t-23 -42.5t-43 -33t-68 -13.5t-68 13.5t-43 33t-23 42.5t-8 42l64 8q8 -34 25.5 -52.5t52.5 -18.5z" />
    <glyph glyph-name="Ohungarumlaut" unicode="&#x150;" horiz-adv-x="829" 
d="M767 344q0 -77 -26 -143t-72.5 -114.5t-111.5 -76t-143 -27.5t-142.5 27.5t-111 76t-72.5 114.5t-26 143t26 143t72.5 114t111 75.5t142.5 27.5t143 -27.5t111.5 -75.5t72.5 -114t26 -143zM654 344q0 58 -17 107t-48.5 85t-75.5 56t-98 20t-98.5 -20t-76 -56t-48.5 -85
t-17 -107t17 -107.5t48.5 -85.5t76 -56.5t98.5 -20.5t98 20.5t75.5 56.5t48.5 85.5t17 107.5zM292 741l-42 45l96 81q14 11 29.5 18.5t32.5 7.5q18 0 29.5 -6.5t18.5 -15.5t10.5 -17.5t3.5 -12.5zM506 741l-43 45l97 81q14 11 29.5 18.5t32.5 7.5q18 0 29.5 -6.5t18.5 -15.5
t10 -17.5t3 -12.5z" />
    <glyph glyph-name="ohungarumlaut" unicode="&#x151;" horiz-adv-x="645" 
d="M589 251q0 -57 -19.5 -106t-54.5 -84.5t-84 -56t-108 -20.5t-108.5 20.5t-84.5 56t-54.5 84.5t-19.5 106t19.5 106t54.5 84.5t84.5 56t108.5 20.5t108 -20.5t84 -56t54.5 -84.5t19.5 -106zM482 251q0 40 -11 73.5t-31.5 58t-50 38t-66.5 13.5q-38 0 -67.5 -13.5t-50 -38
t-31.5 -58t-11 -73.5t11 -73.5t31.5 -58t50 -38t67.5 -13.5q37 0 66.5 13.5t50 38t31.5 58t11 73.5zM201 566l-36 45l88 85q13 13 25.5 20t29.5 7q15 0 25 -6.5t16 -15.5t9 -17.5t3 -12.5zM405 566l-36 45l88 85q13 13 25.5 20t29.5 7q15 0 25 -6.5t16 -15.5t9 -17.5
t3 -12.5z" />
    <glyph glyph-name="OE" unicode="&#x152;" horiz-adv-x="1174" 
d="M751 303v-209h344v-94h-446v104q-35 -56 -98.5 -88.5t-142.5 -32.5q-77 0 -140.5 27t-109 75.5t-71 114.5t-25.5 144t25.5 144t71 114t109 75t139.5 27q50 0 89.5 -11t69.5 -27.5t50.5 -37t32.5 -38.5v38q0 8 2 18t8.5 19t17.5 15t29 6h345q50 0 50 -46q0 -17 -5 -30
t-8 -18h-337v-195h285q50 0 50 -46q0 -17 -5 -30t-8 -18h-322zM648 344q0 59 -17 108t-47.5 84.5t-74.5 55.5t-98 20t-98 -20t-74.5 -55.5t-47.5 -84.5t-17 -108t17 -108.5t47.5 -85.5t74.5 -56t98 -20t98 20t74.5 56t47.5 85.5t17 108.5z" />
    <glyph glyph-name="oe" unicode="&#x153;" horiz-adv-x="1011" 
d="M959 326q0 -58 -32 -91t-109 -33h-234q10 -63 53.5 -97t116.5 -34q57 0 93.5 11.5t49.5 19.5l32 -75q-5 -3 -20.5 -10.5t-40 -14.5t-56.5 -12.5t-71 -5.5q-43 0 -78 10t-62.5 25t-47 33.5t-29.5 35.5q-10 -15 -27.5 -33.5t-43.5 -34t-60.5 -26t-77.5 -10.5
q-57 0 -105 20.5t-82 56t-53 84.5t-19 106t19.5 106t54.5 84.5t83 56t106 20.5q44 0 79 -11.5t61 -28.5t44 -38t28 -39q10 17 28 37.5t44 38t60 29.5t77 12q53 0 94 -14.5t68.5 -40t42 -60.5t14.5 -77zM482 251q0 40 -11 73.5t-31.5 58t-50 38t-66.5 13.5q-38 0 -67.5 -13.5
t-50 -38t-31.5 -58t-11 -73.5t11 -73.5t31.5 -58t50 -38t67.5 -13.5q37 0 66.5 13.5t50 38t31.5 58t11 73.5zM860 336q0 19 -6.5 38t-20.5 34t-38 24.5t-58 9.5q-38 0 -67 -15.5t-48 -39.5t-29 -53.5t-11 -58.5h210q37 0 52.5 13t15.5 48z" />
    <glyph glyph-name="Racute" unicode="&#x154;" horiz-adv-x="656" 
d="M314 256q-43 0 -69.5 2t-46.5 4v-262h-105v627q0 59 63 59h176q60 0 104.5 -17t74.5 -46t45 -68t15 -83q0 -60 -32 -112.5t-94 -79.5q23 -26 48.5 -63t50 -76t45.5 -76t35 -65h-125q-8 18 -25 49.5t-39.5 68t-47.5 73.5t-50 66q-7 -1 -12 -1h-11zM460 472
q0 54 -35.5 90.5t-112.5 36.5h-114v-248q5 -2 28.5 -4.5t63.5 -2.5q46 0 78.5 9.5t53 27t29.5 41t9 50.5zM277 742l-35 55l119 79q15 10 25.5 13.5t23.5 3.5q19 0 32 -7.5t21 -17.5t11.5 -20.5t3.5 -16.5z" />
    <glyph glyph-name="racute" unicode="&#x155;" horiz-adv-x="424" 
d="M294 431q-25 0 -44 -3.5t-32.5 -8t-21.5 -9t-11 -6.5v-404h-103v457q3 3 18.5 12.5t42 20t62.5 19t81 8.5q40 0 65.5 -5t40.5 -13q28 -14 28 -41q0 -19 -8 -32t-14 -18q-10 7 -39 15t-65 8zM192 566l-35 50l103 83q14 11 24 15.5t23 4.5q16 0 27 -7t18 -16.5t10 -19
t3 -13.5z" />
    <glyph glyph-name="Rcommaaccent" unicode="&#x156;" horiz-adv-x="656" 
d="M314 256q-43 0 -69.5 2t-46.5 4v-262h-105v627q0 59 63 59h176q60 0 104.5 -17t74.5 -46t45 -68t15 -83q0 -60 -32 -112.5t-94 -79.5q23 -26 48.5 -63t50 -76t45.5 -76t35 -65h-125q-8 18 -25 49.5t-39.5 68t-47.5 73.5t-50 66q-7 -1 -12 -1h-11zM460 472
q0 54 -35.5 90.5t-112.5 36.5h-114v-248q5 -2 28.5 -4.5t63.5 -2.5q46 0 78.5 9.5t53 27t29.5 41t9 50.5zM291 -222l-55 36l56 92q10 15 20 24.5t24 14.5q9 3 19 3q14 0 28 -7q16 -8 22.5 -17t8.5 -14z" />
    <glyph glyph-name="rcommaaccent" unicode="&#x157;" horiz-adv-x="424" 
d="M294 431q-25 0 -44 -3.5t-32.5 -8t-21.5 -9t-11 -6.5v-404h-103v457q3 3 18.5 12.5t42 20t62.5 19t81 8.5q40 0 65.5 -5t40.5 -13q28 -14 28 -41q0 -19 -8 -32t-14 -18q-10 7 -39 15t-65 8zM74 -215l-54 36l54 89q9 15 19 25.5t24 15.5q9 3 17 3t15 -2t15 -5
q16 -8 22 -17.5t8 -14.5z" />
    <glyph glyph-name="Rcaron" unicode="&#x158;" horiz-adv-x="656" 
d="M314 256q-43 0 -69.5 2t-46.5 4v-262h-105v627q0 59 63 59h176q60 0 104.5 -17t74.5 -46t45 -68t15 -83q0 -60 -32 -112.5t-94 -79.5q23 -26 48.5 -63t50 -76t45.5 -76t35 -65h-125q-8 18 -25 49.5t-39.5 68t-47.5 73.5t-50 66q-7 -1 -12 -1h-11zM460 472
q0 54 -35.5 90.5t-112.5 36.5h-114v-248q5 -2 28.5 -4.5t63.5 -2.5q46 0 78.5 9.5t53 27t29.5 41t9 50.5zM323 742q-19 0 -34.5 9.5t-30.5 21.5q-23 17 -49 38t-49 40l40 42l123 -69l121 69l41 -42l-97 -78q-15 -12 -31 -21.5t-34 -9.5z" />
    <glyph glyph-name="rcaron" unicode="&#x159;" horiz-adv-x="424" 
d="M294 431q-25 0 -44 -3.5t-32.5 -8t-21.5 -9t-11 -6.5v-404h-103v457q3 3 18.5 12.5t42 20t62.5 19t81 8.5q40 0 65.5 -5t40.5 -13q28 -14 28 -41q0 -19 -8 -32t-14 -18q-10 7 -39 15t-65 8zM257 566q-18 0 -31 9t-27 22l-88 82l41 42l105 -75l105 75l41 -42l-87 -82
q-14 -13 -27.5 -22t-31.5 -9z" />
    <glyph glyph-name="Sacute" unicode="&#x15a;" horiz-adv-x="647" 
d="M503 542q-9 11 -24.5 24.5t-39 25t-55 19.5t-72.5 8t-68.5 -8.5t-44.5 -23.5t-24.5 -34t-7.5 -40q0 -44 30 -67.5t93 -39.5l84 -21q49 -12 87 -28t64.5 -39t40.5 -54t14 -73q0 -46 -15 -84t-46.5 -65.5t-81 -43t-118.5 -15.5q-62 0 -109 10.5t-81 24.5t-54.5 27.5
t-27.5 19.5l50 77q8 -6 26 -18.5t45.5 -24.5t64.5 -21.5t84 -9.5q82 0 117 29.5t35 79.5q0 25 -9.5 43t-27 31t-40.5 21.5t-50 15.5l-89 23q-38 10 -72.5 25t-61.5 37.5t-43 54t-16 75.5q0 39 13 75t43 64t77.5 45t116.5 17q47 0 82 -5.5t59.5 -13.5t40 -16t23.5 -14
q17 -12 24.5 -25.5t7.5 -25.5t-5 -22t-12 -18t-14.5 -13.5t-12.5 -8.5zM263 742l-35 55l119 79q15 10 25.5 13.5t23.5 3.5q19 0 32 -7.5t21 -17.5t11.5 -20.5t3.5 -16.5z" />
    <glyph glyph-name="sacute" unicode="&#x15b;" horiz-adv-x="570" 
d="M277 438q-65 0 -92 -18t-27 -51q0 -27 23 -41t69 -21l86 -12q96 -14 136.5 -50.5t40.5 -95.5q0 -72 -56 -117.5t-171 -45.5q-53 0 -95.5 8.5t-72.5 19t-47.5 21t-21.5 13.5l41 72q4 -3 19.5 -11.5t40.5 -18t59 -16.5t76 -7q57 0 88 15.5t31 51.5q0 29 -22.5 44.5
t-81.5 23.5l-69 10q-84 12 -130 46.5t-46 101.5q0 31 11 59t36.5 49.5t67 34.5t102.5 13q69 0 110 -11t61 -21q41 -21 41 -51q0 -20 -11 -32.5t-22 -19.5q-2 2 -13.5 11.5t-32.5 19.5t-53 18t-75 8zM237 566l-35 50l103 83q14 11 24 15.5t23 4.5q16 0 27 -7t18 -16.5t10 -19
t3 -13.5z" />
    <glyph glyph-name="Scircumflex" unicode="&#x15c;" horiz-adv-x="647" 
d="M503 542q-9 11 -24.5 24.5t-39 25t-55 19.5t-72.5 8t-68.5 -8.5t-44.5 -23.5t-24.5 -34t-7.5 -40q0 -44 30 -67.5t93 -39.5l84 -21q49 -12 87 -28t64.5 -39t40.5 -54t14 -73q0 -46 -15 -84t-46.5 -65.5t-81 -43t-118.5 -15.5q-62 0 -109 10.5t-81 24.5t-54.5 27.5
t-27.5 19.5l50 77q8 -6 26 -18.5t45.5 -24.5t64.5 -21.5t84 -9.5q82 0 117 29.5t35 79.5q0 25 -9.5 43t-27 31t-40.5 21.5t-50 15.5l-89 23q-38 10 -72.5 25t-61.5 37.5t-43 54t-16 75.5q0 39 13 75t43 64t77.5 45t116.5 17q47 0 82 -5.5t59.5 -13.5t40 -16t23.5 -14
q17 -12 24.5 -25.5t7.5 -25.5t-5 -22t-12 -18t-14.5 -13.5t-12.5 -8.5zM330 893q18 0 34 -10t31 -22l97 -77l-41 -42l-121 68l-123 -68l-40 42l97 77q17 14 31.5 23t34.5 9z" />
    <glyph glyph-name="scircumflex" unicode="&#x15d;" horiz-adv-x="570" 
d="M277 438q-65 0 -92 -18t-27 -51q0 -27 23 -41t69 -21l86 -12q96 -14 136.5 -50.5t40.5 -95.5q0 -72 -56 -117.5t-171 -45.5q-53 0 -95.5 8.5t-72.5 19t-47.5 21t-21.5 13.5l41 72q4 -3 19.5 -11.5t40.5 -18t59 -16.5t76 -7q57 0 88 15.5t31 51.5q0 29 -22.5 44.5
t-81.5 23.5l-69 10q-84 12 -130 46.5t-46 101.5q0 31 11 59t36.5 49.5t67 34.5t102.5 13q69 0 110 -11t61 -21q41 -21 41 -51q0 -20 -11 -32.5t-22 -19.5q-2 2 -13.5 11.5t-32.5 19.5t-53 18t-75 8zM287 721q18 0 31.5 -9.5t27.5 -22.5l87 -81l-41 -42l-105 75l-105 -75
l-41 42l87 81q14 14 27.5 23t31.5 9z" />
    <glyph glyph-name="Scedilla" unicode="&#x15e;" horiz-adv-x="647" 
d="M503 542q-9 11 -24.5 24.5t-39 25t-55 19.5t-72.5 8t-68.5 -8.5t-44.5 -23.5t-24.5 -34t-7.5 -40q0 -44 30 -67.5t93 -39.5l84 -21q49 -12 87 -28t64.5 -39t40.5 -54t14 -73q0 -46 -15 -84t-46.5 -65.5t-81 -43t-118.5 -15.5q-62 0 -109 10.5t-81 24.5t-54.5 27.5
t-27.5 19.5l50 77q8 -6 26 -18.5t45.5 -24.5t64.5 -21.5t84 -9.5q82 0 117 29.5t35 79.5q0 25 -9.5 43t-27 31t-40.5 21.5t-50 15.5l-89 23q-38 10 -72.5 25t-61.5 37.5t-43 54t-16 75.5q0 39 13 75t43 64t77.5 45t116.5 17q47 0 82 -5.5t59.5 -13.5t40 -16t23.5 -14
q17 -12 24.5 -25.5t7.5 -25.5t-5 -22t-12 -18t-14.5 -13.5t-12.5 -8.5zM275 -35q19 -1 40.5 -6t39.5 -15t29.5 -26t11.5 -39q0 -43 -31 -67.5t-85 -24.5q-26 0 -46 3.5t-34 8t-21.5 8.5t-8.5 5l24 54q1 -1 8.5 -4t18.5 -6.5t24 -6t26 -2.5q21 0 32 6.5t11 23.5q0 9 -6.5 15
t-15.5 9.5t-19 5t-17 1.5z" />
    <glyph glyph-name="scedilla" unicode="&#x15f;" horiz-adv-x="570" 
d="M277 438q-65 0 -92 -18t-27 -51q0 -27 23 -41t69 -21l86 -12q96 -14 136.5 -50.5t40.5 -95.5q0 -72 -56 -117.5t-171 -45.5q-53 0 -95.5 8.5t-72.5 19t-47.5 21t-21.5 13.5l41 72q4 -3 19.5 -11.5t40.5 -18t59 -16.5t76 -7q57 0 88 15.5t31 51.5q0 29 -22.5 44.5
t-81.5 23.5l-69 10q-84 12 -130 46.5t-46 101.5q0 31 11 59t36.5 49.5t67 34.5t102.5 13q69 0 110 -11t61 -21q41 -21 41 -51q0 -20 -11 -32.5t-22 -19.5q-2 2 -13.5 11.5t-32.5 19.5t-53 18t-75 8zM251 -35q19 -1 39.5 -6t38 -15t29 -25.5t11.5 -38.5q0 -42 -30.5 -66
t-84.5 -24q-51 0 -78.5 10.5t-29.5 12.5l23 51q1 -1 8 -4t18 -6t24 -5.5t26 -2.5q23 0 34.5 7t11.5 25q0 10 -6.5 16.5t-15.5 10t-19 5.5t-17 2z" />
    <glyph glyph-name="Scaron" unicode="&#x160;" horiz-adv-x="647" 
d="M503 542q-9 11 -24.5 24.5t-39 25t-55 19.5t-72.5 8t-68.5 -8.5t-44.5 -23.5t-24.5 -34t-7.5 -40q0 -44 30 -67.5t93 -39.5l84 -21q49 -12 87 -28t64.5 -39t40.5 -54t14 -73q0 -46 -15 -84t-46.5 -65.5t-81 -43t-118.5 -15.5q-62 0 -109 10.5t-81 24.5t-54.5 27.5
t-27.5 19.5l50 77q8 -6 26 -18.5t45.5 -24.5t64.5 -21.5t84 -9.5q82 0 117 29.5t35 79.5q0 25 -9.5 43t-27 31t-40.5 21.5t-50 15.5l-89 23q-38 10 -72.5 25t-61.5 37.5t-43 54t-16 75.5q0 39 13 75t43 64t77.5 45t116.5 17q47 0 82 -5.5t59.5 -13.5t40 -16t23.5 -14
q17 -12 24.5 -25.5t7.5 -25.5t-5 -22t-12 -18t-14.5 -13.5t-12.5 -8.5zM333 742q-19 0 -34.5 9.5t-30.5 21.5q-23 17 -49 38t-49 40l40 42l123 -69l121 69l41 -42l-97 -78q-15 -12 -31 -21.5t-34 -9.5z" />
    <glyph glyph-name="scaron" unicode="&#x161;" horiz-adv-x="570" 
d="M277 438q-65 0 -92 -18t-27 -51q0 -27 23 -41t69 -21l86 -12q96 -14 136.5 -50.5t40.5 -95.5q0 -72 -56 -117.5t-171 -45.5q-53 0 -95.5 8.5t-72.5 19t-47.5 21t-21.5 13.5l41 72q4 -3 19.5 -11.5t40.5 -18t59 -16.5t76 -7q57 0 88 15.5t31 51.5q0 29 -22.5 44.5
t-81.5 23.5l-69 10q-84 12 -130 46.5t-46 101.5q0 31 11 59t36.5 49.5t67 34.5t102.5 13q69 0 110 -11t61 -21q41 -21 41 -51q0 -20 -11 -32.5t-22 -19.5q-2 2 -13.5 11.5t-32.5 19.5t-53 18t-75 8zM292 566q-18 0 -31 9t-27 22l-88 82l41 42l105 -75l105 75l41 -42l-87 -82
q-14 -13 -27.5 -22t-31.5 -9z" />
    <glyph glyph-name="Tcommaaccent" unicode="&#x162;" horiz-adv-x="622" 
d="M551 687q51 0 51 -47q0 -17 -5 -30t-8 -18h-232v-592h-108v592h-178q-51 0 -51 47q0 17 5 30t8 18h518zM241 -222l-55 36l56 92q10 15 20 24.5t24 14.5q9 3 19 3q14 0 28 -7q16 -8 22.5 -17t8.5 -14z" />
    <glyph glyph-name="tcommaaccent" unicode="&#x163;" horiz-adv-x="414" 
d="M215 416v-258q0 -50 22 -68.5t60 -18.5q16 0 30 3.5t25 8.5t18 9.5t10 6.5l40 -64q-4 -3 -15 -11.5t-29 -16.5t-43.5 -14.5t-57.5 -6.5q-43 0 -74 12t-51 33.5t-29.5 50.5t-9.5 63v271h-46q-48 0 -48 43q0 16 5 27.5t7 15.5h82v109q0 24 14.5 35.5t40.5 11.5
q17 0 30.5 -4t18.5 -6v-146h128q47 0 47 -43q0 -16 -4.5 -27.5t-6.5 -15.5h-164zM196 -215l-54 36l54 89q9 15 19 25.5t24 15.5q9 3 17 3t15 -2t15 -5q16 -8 22 -17.5t8 -14.5z" />
    <glyph glyph-name="Tcaron" unicode="&#x164;" horiz-adv-x="622" 
d="M551 687q51 0 51 -47q0 -17 -5 -30t-8 -18h-232v-592h-108v592h-178q-51 0 -51 47q0 17 5 30t8 18h518zM320 742q-19 0 -34.5 9.5t-30.5 21.5q-23 17 -49 38t-49 40l40 42l123 -69l121 69l41 -42l-97 -78q-15 -12 -31 -21.5t-34 -9.5z" />
    <glyph glyph-name="tcaron" unicode="&#x165;" horiz-adv-x="414" 
d="M215 416v-258q0 -50 22 -68.5t60 -18.5q16 0 30 3.5t25 8.5t18 9.5t10 6.5l40 -64q-4 -3 -15 -11.5t-29 -16.5t-43.5 -14.5t-57.5 -6.5q-43 0 -74 12t-51 33.5t-29.5 50.5t-9.5 63v271h-46q-48 0 -48 43q0 16 5 27.5t7 15.5h82v109q0 24 14.5 35.5t40.5 11.5
q17 0 30.5 -4t18.5 -6v-146h128q47 0 47 -43q0 -16 -4.5 -27.5t-6.5 -15.5h-164zM287 729q0 48 56 48q17 0 30.5 -4t18.5 -6l-40 -205h-65v167z" />
    <glyph glyph-name="Tbar" unicode="&#x166;" horiz-adv-x="622" 
d="M249 382v210h-178q-51 0 -51 47q0 17 5 30t8 18h518q51 0 51 -47q0 -17 -5 -30t-8 -18h-232v-210h134q26 0 36.5 -12.5t10.5 -35.5q0 -14 -3.5 -25t-7.5 -15h-170v-294h-108v294h-135q-23 0 -34 13t-11 35q0 15 3.5 26t7.5 14h169z" />
    <glyph glyph-name="tbar" unicode="&#x167;" horiz-adv-x="414" 
d="M111 416h-46q-48 0 -48 43q0 16 5 27.5t7 15.5h82v109q0 24 14.5 35.5t40.5 11.5q17 0 30.5 -4t18.5 -6v-146h128q47 0 47 -43q0 -16 -4.5 -27.5t-6.5 -15.5h-164v-112h128q47 0 47 -43q0 -16 -4.5 -27.5t-6.5 -15.5h-164v-60q0 -50 22 -68.5t60 -18.5q16 0 30 3.5
t25 8.5t18 9.5t10 6.5l40 -64q-4 -3 -15 -11.5t-29 -16.5t-43.5 -14.5t-57.5 -6.5q-43 0 -74 12t-51 33.5t-29.5 50.5t-9.5 63v73h-46q-48 0 -48 43q0 16 5 27.5t7 15.5h82v112z" />
    <glyph glyph-name="Utilde" unicode="&#x168;" horiz-adv-x="774" 
d="M84 636q0 26 15 38.5t42 12.5q17 0 31 -4.5t19 -7.5v-363q0 -56 10 -100t33 -75t60.5 -47.5t92.5 -16.5t92.5 16.5t60.5 47.5t33 75t10 100v324q0 51 56 51q18 0 32 -4.5t19 -7.5v-373q0 -158 -74.5 -238.5t-228.5 -80.5t-228.5 80.5t-74.5 238.5v334zM383 777
q-9 3 -18.5 5.5t-20.5 2.5q-14 0 -22 -9t-13 -28l-71 13q4 19 11 37.5t19.5 33.5t30.5 24t43 9q23 0 42.5 -4.5t36.5 -10.5l26 -9q8 -2 16.5 -4t16.5 -2q15 0 23 9t13 27l72 -12q-4 -20 -11.5 -38.5t-20.5 -33t-31 -23.5t-43 -9q-22 0 -39.5 4.5t-33.5 9.5z" />
    <glyph glyph-name="utilde" unicode="&#x169;" horiz-adv-x="624" 
d="M439 455q0 24 14 35.5t40 11.5q17 0 30.5 -4t18.5 -6v-492q-7 -2 -24.5 -4t-42.5 -4.5t-55 -4t-61 -1.5q-91 0 -147.5 22t-89.5 64q-41 53 -41 141v242q0 24 14 35.5t40 11.5q17 0 30.5 -4t18.5 -6v-268q0 -76 38.5 -114t130.5 -38q35 0 56.5 2.5t29.5 4.5v376zM304 601
q-11 4 -21 6.5t-21 2.5q-15 0 -23.5 -9t-13.5 -28l-68 13q4 18 11.5 36.5t19.5 32.5t30 23t42 9q23 0 42 -4.5t36 -10.5l18 -6q9 -2 20.5 -5.5t22.5 -3.5q16 0 24.5 9t13.5 27l68 -12q-4 -19 -11.5 -37t-20 -32.5t-30.5 -23t-42 -8.5q-21 0 -38.5 4.5t-34.5 9.5z" />
    <glyph glyph-name="Umacron" unicode="&#x16a;" horiz-adv-x="774" 
d="M84 636q0 26 15 38.5t42 12.5q17 0 31 -4.5t19 -7.5v-363q0 -56 10 -100t33 -75t60.5 -47.5t92.5 -16.5t92.5 16.5t60.5 47.5t33 75t10 100v324q0 51 56 51q18 0 32 -4.5t19 -7.5v-373q0 -158 -74.5 -238.5t-228.5 -80.5t-228.5 80.5t-74.5 238.5v334zM524 852
q26 0 35 -12t9 -32q0 -15 -3.5 -24.5t-5.5 -14.5h-295q-23 0 -33.5 11.5t-10.5 30.5q0 16 3 24.5t5 16.5h296z" />
    <glyph glyph-name="umacron" unicode="&#x16b;" horiz-adv-x="624" 
d="M439 455q0 24 14 35.5t40 11.5q17 0 30.5 -4t18.5 -6v-492q-7 -2 -24.5 -4t-42.5 -4.5t-55 -4t-61 -1.5q-91 0 -147.5 22t-89.5 64q-41 53 -41 141v242q0 24 14 35.5t40 11.5q17 0 30.5 -4t18.5 -6v-268q0 -76 38.5 -114t130.5 -38q35 0 56.5 2.5t29.5 4.5v376zM439 671
q22 0 30 -10.5t8 -27.5q0 -13 -3 -23t-5 -13h-271q-21 0 -29.5 10.5t-8.5 28.5q0 13 3 22t5 13h271z" />
    <glyph glyph-name="Ubreve" unicode="&#x16c;" horiz-adv-x="774" 
d="M84 636q0 26 15 38.5t42 12.5q17 0 31 -4.5t19 -7.5v-363q0 -56 10 -100t33 -75t60.5 -47.5t92.5 -16.5t92.5 16.5t60.5 47.5t33 75t10 100v324q0 51 56 51q18 0 32 -4.5t19 -7.5v-373q0 -158 -74.5 -238.5t-228.5 -80.5t-228.5 80.5t-74.5 238.5v334zM402 819
q36 0 55 19t29 55l74 -8q-1 -21 -8.5 -46t-25.5 -46.5t-48 -36t-76 -14.5t-76.5 14.5t-48.5 36t-25.5 46.5t-8.5 46l74 8q10 -36 29 -55t56 -19z" />
    <glyph glyph-name="ubreve" unicode="&#x16d;" horiz-adv-x="624" 
d="M439 455q0 24 14 35.5t40 11.5q17 0 30.5 -4t18.5 -6v-492q-7 -2 -24.5 -4t-42.5 -4.5t-55 -4t-61 -1.5q-91 0 -147.5 22t-89.5 64q-41 53 -41 141v242q0 24 14 35.5t40 11.5q17 0 30.5 -4t18.5 -6v-268q0 -76 38.5 -114t130.5 -38q35 0 56.5 2.5t29.5 4.5v376zM332 637
q35 0 52.5 18.5t25.5 52.5l64 -8q-1 -19 -8 -42t-23 -42.5t-43 -33t-68 -13.5t-68 13.5t-43 33t-23 42.5t-8 42l64 8q8 -34 25.5 -52.5t52.5 -18.5z" />
    <glyph glyph-name="Uring" unicode="&#x16e;" horiz-adv-x="774" 
d="M84 636q0 26 15 38.5t42 12.5q17 0 31 -4.5t19 -7.5v-363q0 -56 10 -100t33 -75t60.5 -47.5t92.5 -16.5t92.5 16.5t60.5 47.5t33 75t10 100v324q0 51 56 51q18 0 32 -4.5t19 -7.5v-373q0 -158 -74.5 -238.5t-228.5 -80.5t-228.5 80.5t-74.5 238.5v334zM294 835
q0 21 8 39.5t22.5 33t33.5 22.5t41 8q21 0 40 -8t33.5 -22.5t22.5 -33t8 -39.5t-8 -39.5t-22.5 -32.5t-33.5 -22t-40 -8q-22 0 -41 8t-33.5 22t-22.5 32.5t-8 39.5zM350 835q0 -23 13.5 -37t35.5 -14q21 0 34.5 14t13.5 37q0 22 -13.5 36.5t-34.5 14.5q-22 0 -35.5 -14.5
t-13.5 -36.5z" />
    <glyph glyph-name="uring" unicode="&#x16f;" horiz-adv-x="624" 
d="M439 455q0 24 14 35.5t40 11.5q17 0 30.5 -4t18.5 -6v-492q-7 -2 -24.5 -4t-42.5 -4.5t-55 -4t-61 -1.5q-91 0 -147.5 22t-89.5 64q-41 53 -41 141v242q0 24 14 35.5t40 11.5q17 0 30.5 -4t18.5 -6v-268q0 -76 38.5 -114t130.5 -38q35 0 56.5 2.5t29.5 4.5v376zM225 660
q0 21 8 39t22 32t33 22t40 8t40 -8t33 -22t22 -32t8 -39t-8 -39t-22 -32t-33 -22t-40 -8t-40 8t-33 22t-22 32t-8 39zM277 660q0 -23 14 -38.5t37 -15.5t37 15.5t14 38.5t-14 38t-37 15t-37 -15t-14 -38z" />
    <glyph glyph-name="Uhungarumlaut" unicode="&#x170;" horiz-adv-x="774" 
d="M84 636q0 26 15 38.5t42 12.5q17 0 31 -4.5t19 -7.5v-363q0 -56 10 -100t33 -75t60.5 -47.5t92.5 -16.5t92.5 16.5t60.5 47.5t33 75t10 100v324q0 51 56 51q18 0 32 -4.5t19 -7.5v-373q0 -158 -74.5 -238.5t-228.5 -80.5t-228.5 80.5t-74.5 238.5v334zM273 741l-42 45
l96 81q14 11 29.5 18.5t32.5 7.5q18 0 29.5 -6.5t18.5 -15.5t10.5 -17.5t3.5 -12.5zM487 741l-43 45l97 81q14 11 29.5 18.5t32.5 7.5q18 0 29.5 -6.5t18.5 -15.5t10 -17.5t3 -12.5z" />
    <glyph glyph-name="uhungarumlaut" unicode="&#x171;" horiz-adv-x="624" 
d="M439 455q0 24 14 35.5t40 11.5q17 0 30.5 -4t18.5 -6v-492q-7 -2 -24.5 -4t-42.5 -4.5t-55 -4t-61 -1.5q-91 0 -147.5 22t-89.5 64q-41 53 -41 141v242q0 24 14 35.5t40 11.5q17 0 30.5 -4t18.5 -6v-268q0 -76 38.5 -114t130.5 -38q35 0 56.5 2.5t29.5 4.5v376zM208 566
l-36 45l88 85q13 13 25.5 20t29.5 7q15 0 25 -6.5t16 -15.5t9 -17.5t3 -12.5zM412 566l-36 45l88 85q13 13 25.5 20t29.5 7q15 0 25 -6.5t16 -15.5t9 -17.5t3 -12.5z" />
    <glyph glyph-name="Uogonek" unicode="&#x172;" horiz-adv-x="774" 
d="M84 636q0 26 15 38.5t42 12.5q17 0 31 -4.5t19 -7.5v-363q0 -56 10 -100t33 -75t60.5 -47.5t92.5 -16.5t92.5 16.5t60.5 47.5t33 75t10 100v324q0 51 56 51q18 0 32 -4.5t19 -7.5v-373q0 -289 -249 -316q-21 -10 -36 -25t-15 -36q0 -19 13.5 -26.5t31.5 -7.5q25 0 43 8
t21 10l25 -57q-11 -6 -38.5 -15.5t-68.5 -9.5q-49 0 -80 19t-31 63q0 29 12.5 47t27.5 29q-262 21 -262 317v334z" />
    <glyph glyph-name="uogonek" unicode="&#x173;" horiz-adv-x="624" 
d="M439 455q0 24 14 35.5t40 11.5q17 0 30.5 -4t18.5 -6v-492q-15 -3 -68 -8q-26 -10 -46 -27t-20 -42q0 -21 14 -29t34 -8q25 0 42.5 7.5t20.5 9.5l23 -53q-11 -6 -37.5 -15t-67.5 -9q-48 0 -78.5 18.5t-30.5 61.5q0 32 15 51t32 29h-16q-91 0 -147.5 22t-89.5 64
q-41 53 -41 141v242q0 24 14 35.5t40 11.5q17 0 30.5 -4t18.5 -6v-268q0 -76 38.5 -114t130.5 -38q35 0 56.5 2.5t29.5 4.5v376z" />
    <glyph glyph-name="Wcircumflex" unicode="&#x174;" horiz-adv-x="1007" 
d="M432 625q8 32 24 47t47 15q24 0 37.5 -5t19.5 -9q12 -54 28.5 -125t35.5 -146.5t38.5 -150.5t37.5 -137q23 66 47 143t45 149t38 131.5t27 91.5q8 28 24 43t46 15q25 0 39.5 -8.5t17.5 -11.5q-18 -66 -43.5 -148.5t-55 -170.5t-62 -177.5t-64.5 -170.5h-126
q-6 16 -16 49.5t-22 77t-25.5 94.5t-26 102t-24.5 99t-20 87q-15 -60 -34 -133t-38.5 -144.5t-38 -133.5t-31.5 -98h-125q-15 36 -33.5 85.5t-38 104t-38.5 109.5t-35 102t-27.5 82.5t-16.5 50.5q-11 33 -18 58t-7 42q0 21 12.5 37t43.5 16q23 0 35 -5t14 -7q7 -29 19.5 -72
t27.5 -93t31.5 -104t33 -106.5t32.5 -100t29 -84.5q19 61 39 133t38 142t33 132t26 103zM503 893q18 0 34 -10t31 -22l97 -77l-41 -42l-121 68l-123 -68l-40 42l97 77q17 14 31.5 23t34.5 9z" />
    <glyph glyph-name="wcircumflex" unicode="&#x175;" horiz-adv-x="812" 
d="M27 393q-5 14 -10 30t-5 30q0 20 12 34.5t42 14.5q20 0 31.5 -4t13.5 -5q14 -53 31 -109t33.5 -108.5t31.5 -97.5t26 -76q20 60 45.5 144t59.5 204q8 29 23 40.5t43 11.5q21 0 33.5 -4.5t16.5 -7.5q15 -53 31 -109t32 -107.5t30 -96t24 -75.5q12 32 27.5 79.5t31.5 98.5
t31 98t24 79q7 22 19.5 33.5t40.5 11.5q23 0 37.5 -8.5t16.5 -10.5q-8 -33 -27 -91.5t-44 -126.5t-52.5 -138t-51.5 -127h-111q-8 22 -23.5 69t-32.5 100.5t-33.5 105.5t-25.5 86q-9 -36 -24.5 -88.5t-32.5 -106t-32 -99.5t-23 -67h-110q-24 58 -49 123.5t-46 122t-36 97
t-18 50.5zM406 721q18 0 31.5 -9.5t27.5 -22.5l87 -81l-41 -42l-105 75l-105 -75l-41 42l87 81q14 14 27.5 23t31.5 9z" />
    <glyph glyph-name="Ycircumflex" unicode="&#x176;" horiz-adv-x="672" 
d="M54 558q-17 23 -28.5 42.5t-11.5 36.5t10.5 33.5t41.5 16.5q20 0 31 -5t15 -8q9 -13 34 -50.5t56.5 -85t66 -97.5t64.5 -88q26 37 52.5 77.5t50.5 78.5t44.5 70.5t34.5 53.5q16 24 31.5 39t44.5 15q12 0 22.5 -3t18.5 -7t13 -8t6 -5q-8 -15 -25 -43t-39.5 -63.5
t-48.5 -76t-53 -80.5t-52.5 -77t-47.5 -65v-259h-112v260q-27 33 -58.5 75t-61.5 84t-56.5 79t-42.5 60zM340 893q18 0 34 -10t31 -22l97 -77l-41 -42l-121 68l-123 -68l-40 42l97 77q17 14 31.5 23t34.5 9z" />
    <glyph glyph-name="ycircumflex" unicode="&#x177;" horiz-adv-x="545" 
d="M286 146q17 35 36.5 77.5t37.5 85t34 81.5t27 66q8 20 20.5 33t40.5 13q23 0 37.5 -9t17.5 -13q-7 -23 -19 -53.5t-26 -64.5t-30 -70t-32 -70q-32 -71 -66.5 -138.5t-73.5 -134.5q-21 -36 -41.5 -64t-44.5 -46.5t-52.5 -28.5t-64.5 -10q-25 0 -45 4t-34.5 9t-23 9.5
t-9.5 5.5l34 76q5 -4 25.5 -12t46.5 -8q20 0 36 6t31 19t29 34t30 50l26 50q-13 21 -32.5 54t-41.5 69.5t-44 74.5t-41 70.5t-32.5 56.5t-17.5 32q-7 14 -12 26.5t-5 26.5q0 19 11.5 34t40.5 15q21 0 31 -4t12 -5q5 -11 25.5 -51t47.5 -92t57 -107t54 -97zM272 721
q18 0 31.5 -9.5t27.5 -22.5l87 -81l-41 -42l-105 75l-105 -75l-41 42l87 81q14 14 27.5 23t31.5 9z" />
    <glyph glyph-name="Ydieresis" unicode="&#x178;" horiz-adv-x="672" 
d="M54 558q-17 23 -28.5 42.5t-11.5 36.5t10.5 33.5t41.5 16.5q20 0 31 -5t15 -8q9 -13 34 -50.5t56.5 -85t66 -97.5t64.5 -88q26 37 52.5 77.5t50.5 78.5t44.5 70.5t34.5 53.5q16 24 31.5 39t44.5 15q12 0 22.5 -3t18.5 -7t13 -8t6 -5q-8 -15 -25 -43t-39.5 -63.5
t-48.5 -76t-53 -80.5t-52.5 -77t-47.5 -65v-259h-112v260q-27 33 -58.5 75t-61.5 84t-56.5 79t-42.5 60zM244 759q-24 0 -43 18.5t-19 41.5t19 41t43 18q26 0 44 -18t18 -41t-18 -41.5t-44 -18.5zM440 759q-25 0 -43.5 18.5t-18.5 41.5t18.5 41t43.5 18q26 0 44 -18t18 -41
t-18 -41.5t-44 -18.5z" />
    <glyph glyph-name="Zacute" unicode="&#x179;" horiz-adv-x="637" 
d="M521 687q76 0 76 -64q0 -26 -20.5 -52.5t-43.5 -55.5q-19 -24 -49 -58.5t-65 -75t-72.5 -83t-72 -81t-64 -71t-48.5 -52.5h431v-94h-561v103q16 17 48.5 53.5t73.5 83t87 98t89 100t79 89.5t57 65h-363q-51 0 -51 47q0 17 5 30t8 18h456zM281 742l-35 55l119 79
q15 10 25.5 13.5t23.5 3.5q19 0 32 -7.5t21 -17.5t11.5 -20.5t3.5 -16.5z" />
    <glyph glyph-name="zacute" unicode="&#x17a;" horiz-adv-x="541" 
d="M76 416q-47 0 -47 43q0 16 5 27.5t7 15.5h405q56 0 56 -50q0 -17 -9 -33.5t-36 -45.5q-14 -15 -38.5 -39.5t-54 -53.5t-61 -59.5t-60 -57.5t-50.5 -47.5t-32 -29.5h342v-86h-474v90q14 12 40.5 37t59.5 56.5t69 66.5t69 67t59 58.5t40 40.5h-290zM237 566l-35 50l103 83
q14 11 24 15.5t23 4.5q16 0 27 -7t18 -16.5t10 -19t3 -13.5z" />
    <glyph glyph-name="Zdotaccent" unicode="&#x17b;" horiz-adv-x="637" 
d="M521 687q76 0 76 -64q0 -26 -20.5 -52.5t-43.5 -55.5q-19 -24 -49 -58.5t-65 -75t-72.5 -83t-72 -81t-64 -71t-48.5 -52.5h431v-94h-561v103q16 17 48.5 53.5t73.5 83t87 98t89 100t79 89.5t57 65h-363q-51 0 -51 47q0 17 5 30t8 18h456zM329 745q-13 0 -25 5.5t-21 14.5
t-14.5 20t-5.5 23t5.5 23t14.5 20t21 14.5t25 5.5t24.5 -5.5t20.5 -14.5t14 -20t5 -23t-5 -23t-14 -20t-20.5 -14.5t-24.5 -5.5z" />
    <glyph glyph-name="zdotaccent" unicode="&#x17c;" horiz-adv-x="541" 
d="M76 416q-47 0 -47 43q0 16 5 27.5t7 15.5h405q56 0 56 -50q0 -17 -9 -33.5t-36 -45.5q-14 -15 -38.5 -39.5t-54 -53.5t-61 -59.5t-60 -57.5t-50.5 -47.5t-32 -29.5h342v-86h-474v90q14 12 40.5 37t59.5 56.5t69 66.5t69 67t59 58.5t40 40.5h-290zM276 571
q-12 0 -23.5 5.5t-20.5 14t-14.5 19.5t-5.5 23q0 23 19.5 42t44.5 19q26 0 44.5 -19t18.5 -42q0 -12 -5 -23t-13.5 -19.5t-20 -14t-24.5 -5.5z" />
    <glyph glyph-name="Zcaron" unicode="&#x17d;" horiz-adv-x="637" 
d="M521 687q76 0 76 -64q0 -26 -20.5 -52.5t-43.5 -55.5q-19 -24 -49 -58.5t-65 -75t-72.5 -83t-72 -81t-64 -71t-48.5 -52.5h431v-94h-561v103q16 17 48.5 53.5t73.5 83t87 98t89 100t79 89.5t57 65h-363q-51 0 -51 47q0 17 5 30t8 18h456zM336 752q-18 0 -31 9t-27 22
l-88 82l41 42l105 -75l105 75l41 -42l-87 -82q-14 -13 -27.5 -22t-31.5 -9z" />
    <glyph glyph-name="zcaron" unicode="&#x17e;" horiz-adv-x="541" 
d="M76 416q-47 0 -47 43q0 16 5 27.5t7 15.5h405q56 0 56 -50q0 -17 -9 -33.5t-36 -45.5q-14 -15 -38.5 -39.5t-54 -53.5t-61 -59.5t-60 -57.5t-50.5 -47.5t-32 -29.5h342v-86h-474v90q14 12 40.5 37t59.5 56.5t69 66.5t69 67t59 58.5t40 40.5h-290zM279 566q-18 0 -31 9
t-27 22l-88 82l41 42l105 -75l105 75l41 -42l-87 -82q-14 -13 -27.5 -22t-31.5 -9z" />
    <glyph glyph-name="longs" unicode="&#x17f;" horiz-adv-x="372" 
d="M215 0h-104v550q0 47 14 82t39.5 58.5t61 35t77.5 11.5q50 0 74 -7.5t34 -12.5t20 -14t10 -28q0 -16 -8.5 -29t-17.5 -21q-9 8 -33 20.5t-62 12.5q-31 0 -51.5 -8.5t-32.5 -23.5t-16.5 -35.5t-4.5 -44.5v-546z" />
    <glyph glyph-name="florin" unicode="&#x192;" horiz-adv-x="652" 
d="M296 406l-59 -419q-8 -59 -26 -97t-44 -61t-59 -32t-71 -9q-40 0 -69 8.5t-43 14.5l35 77q11 -5 29 -9t41 -4q18 0 34.5 4.5t30 17.5t23.5 35t15 58l75 537q8 57 28 97.5t50 65.5t68 36.5t83 11.5q46 0 73 -8t41 -17q11 -7 16 -15t5 -22q0 -18 -10.5 -31.5t-21.5 -20.5
q-14 13 -40.5 21t-58.5 8q-60 0 -89.5 -31.5t-37.5 -91.5l-5 -37h148q23 0 37.5 -8.5t14.5 -30.5q0 -14 -4 -27t-8 -21h-201z" />
    <glyph glyph-name="Scommaaccent" unicode="&#x218;" horiz-adv-x="647" 
d="M503 542q-9 11 -24.5 24.5t-39 25t-55 19.5t-72.5 8t-68.5 -8.5t-44.5 -23.5t-24.5 -34t-7.5 -40q0 -44 30 -67.5t93 -39.5l84 -21q49 -12 87 -28t64.5 -39t40.5 -54t14 -73q0 -46 -15 -84t-46.5 -65.5t-81 -43t-118.5 -15.5q-62 0 -109 10.5t-81 24.5t-54.5 27.5
t-27.5 19.5l50 77q8 -6 26 -18.5t45.5 -24.5t64.5 -21.5t84 -9.5q82 0 117 29.5t35 79.5q0 25 -9.5 43t-27 31t-40.5 21.5t-50 15.5l-89 23q-38 10 -72.5 25t-61.5 37.5t-43 54t-16 75.5q0 39 13 75t43 64t77.5 45t116.5 17q47 0 82 -5.5t59.5 -13.5t40 -16t23.5 -14
q17 -12 24.5 -25.5t7.5 -25.5t-5 -22t-12 -18t-14.5 -13.5t-12.5 -8.5zM247 -222l-55 36l56 92q10 15 20 24.5t24 14.5q9 3 19 3q14 0 28 -7q16 -8 22.5 -17t8.5 -14z" />
    <glyph glyph-name="scommaaccent" unicode="&#x219;" horiz-adv-x="570" 
d="M277 438q-65 0 -92 -18t-27 -51q0 -27 23 -41t69 -21l86 -12q96 -14 136.5 -50.5t40.5 -95.5q0 -72 -56 -117.5t-171 -45.5q-53 0 -95.5 8.5t-72.5 19t-47.5 21t-21.5 13.5l41 72q4 -3 19.5 -11.5t40.5 -18t59 -16.5t76 -7q57 0 88 15.5t31 51.5q0 29 -22.5 44.5
t-81.5 23.5l-69 10q-84 12 -130 46.5t-46 101.5q0 31 11 59t36.5 49.5t67 34.5t102.5 13q69 0 110 -11t61 -21q41 -21 41 -51q0 -20 -11 -32.5t-22 -19.5q-2 2 -13.5 11.5t-32.5 19.5t-53 18t-75 8zM222 -215l-54 36l54 89q9 15 19 25.5t24 15.5q9 3 17 3t15 -2t15 -5
q16 -8 22 -17.5t8 -14.5z" />
    <glyph glyph-name="uni021A" unicode="&#x21a;" horiz-adv-x="622" 
d="M551 687q51 0 51 -47q0 -17 -5 -30t-8 -18h-232v-592h-108v592h-178q-51 0 -51 47q0 17 5 30t8 18h518zM241 -222l-55 36l56 92q10 15 20 24.5t24 14.5q9 3 19 3q14 0 28 -7q16 -8 22.5 -17t8.5 -14z" />
    <glyph glyph-name="uni021B" unicode="&#x21b;" horiz-adv-x="414" 
d="M215 416v-258q0 -50 22 -68.5t60 -18.5q16 0 30 3.5t25 8.5t18 9.5t10 6.5l40 -64q-4 -3 -15 -11.5t-29 -16.5t-43.5 -14.5t-57.5 -6.5q-43 0 -74 12t-51 33.5t-29.5 50.5t-9.5 63v271h-46q-48 0 -48 43q0 16 5 27.5t7 15.5h82v109q0 24 14.5 35.5t40.5 11.5
q17 0 30.5 -4t18.5 -6v-146h128q47 0 47 -43q0 -16 -4.5 -27.5t-6.5 -15.5h-164zM186 -215l-54 36l54 89q9 15 19 25.5t24 15.5q9 3 17 3t15 -2t15 -5q16 -8 22 -17.5t8 -14.5z" />
    <glyph glyph-name="dotlessj" unicode="&#x237;" horiz-adv-x="282" 
d="M193 -30q0 -50 -14.5 -84.5t-38.5 -55.5t-56 -30.5t-67 -9.5q-21 0 -39.5 3t-34 7t-26 8.5t-14.5 6.5l28 69q5 -3 25 -9.5t48 -6.5q17 0 32.5 4.5t27 15t18.5 28.5t7 44v495q0 25 14.5 36t40.5 11q17 0 30.5 -3.5t18.5 -5.5v-523z" />
    <glyph glyph-name="apostrophe" unicode="&#x2bc;" horiz-adv-x="500" 
d="M179 473q3 3 12.5 14t20 27t20 36t12.5 41q-62 8 -62 65q0 28 18.5 46t47.5 18q28 0 50 -20.5t22 -69.5q0 -40 -14 -74.5t-31.5 -60.5t-33 -41.5l-18.5 -18.5z" />
    <glyph glyph-name="circumflex" unicode="&#x2c6;" horiz-adv-x="500" 
d="M250 721q18 0 31.5 -9.5t27.5 -22.5l87 -81l-41 -42l-105 75l-105 -75l-41 42l87 81q14 14 27.5 23t31.5 9z" />
    <glyph glyph-name="caron" unicode="&#x2c7;" horiz-adv-x="500" 
d="M250 566q-18 0 -31 9t-27 22l-88 82l41 42l105 -75l105 75l41 -42l-87 -82q-14 -13 -27.5 -22t-31.5 -9z" />
    <glyph glyph-name="uni02C9" unicode="&#x2c9;" horiz-adv-x="500" 
d="M371 671q22 0 30 -10.5t8 -27.5q0 -13 -3 -23t-5 -13h-271q-21 0 -29.5 10.5t-8.5 28.5q0 13 3 22t5 13h271z" />
    <glyph glyph-name="breve" unicode="&#x2d8;" horiz-adv-x="500" 
d="M250 637q35 0 52.5 18.5t25.5 52.5l64 -8q-1 -19 -8 -42t-23 -42.5t-43 -33t-68 -13.5t-68 13.5t-43 33t-23 42.5t-8 42l64 8q8 -34 25.5 -52.5t52.5 -18.5z" />
    <glyph glyph-name="dotaccent" unicode="&#x2d9;" horiz-adv-x="500" 
d="M250 571q-12 0 -23.5 5.5t-20.5 14t-14.5 19.5t-5.5 23q0 23 19.5 42t44.5 19q26 0 44.5 -19t18.5 -42q0 -12 -5 -23t-13.5 -19.5t-20 -14t-24.5 -5.5z" />
    <glyph glyph-name="ring" unicode="&#x2da;" horiz-adv-x="500" 
d="M147 660q0 21 8 39t22 32t33 22t40 8t40 -8t33 -22t22 -32t8 -39t-8 -39t-22 -32t-33 -22t-40 -8t-40 8t-33 22t-22 32t-8 39zM199 660q0 -23 14 -38.5t37 -15.5t37 15.5t14 38.5t-14 38t-37 15t-37 -15t-14 -38z" />
    <glyph glyph-name="ogonek" unicode="&#x2db;" horiz-adv-x="500" 
d="M321 0q-16 -3 -33.5 -9.5t-31.5 -16t-23.5 -22.5t-9.5 -29q0 -21 14 -29t34 -8q25 0 42.5 7.5t20.5 9.5l23 -53q-11 -6 -37.5 -15t-67.5 -9q-48 0 -78.5 18.5t-30.5 61.5q0 25 10.5 42.5t24 28.5t26 16l17.5 7h100z" />
    <glyph glyph-name="tilde" unicode="&#x2dc;" horiz-adv-x="500" 
d="M223 601q-11 4 -21 6.5t-21 2.5q-15 0 -23.5 -9t-13.5 -28l-68 13q4 18 11.5 36.5t19.5 32.5t30 23t42 9q23 0 42 -4.5t36 -10.5l18 -6q9 -2 20.5 -5.5t22.5 -3.5q16 0 24.5 9t13.5 27l68 -12q-4 -19 -11.5 -37t-20 -32.5t-30.5 -23t-42 -8.5q-21 0 -38.5 4.5t-34.5 9.5z
" />
    <glyph glyph-name="hungarumlaut" unicode="&#x2dd;" horiz-adv-x="500" 
d="M86 566l-36 45l88 85q13 13 25.5 20t29.5 7q15 0 25 -6.5t16 -15.5t9 -17.5t3 -12.5zM290 566l-36 45l88 85q13 13 25.5 20t29.5 7q15 0 25 -6.5t16 -15.5t9 -17.5t3 -12.5z" />
    <glyph glyph-name="tonos" unicode="&#x384;" horiz-adv-x="500" 
d="M163 585l55 122q9 20 24 36.5t40 16.5q16 0 31 -8t26 -20l-118 -174z" />
    <glyph glyph-name="dieresistonos" unicode="&#x385;" horiz-adv-x="500" 
d="M27 634q0 23 19 41.5t44 18.5q26 0 44.5 -18.5t18.5 -41.5t-18.5 -42t-44.5 -19q-12 0 -23.5 5t-20.5 13.5t-14 19.5t-5 23zM347 634q0 23 18.5 41.5t44.5 18.5t44 -18.5t18 -41.5t-18 -42t-44 -19t-44.5 19t-18.5 42zM183 584l42 110q5 18 20.5 37.5t39.5 19.5
q19 0 33.5 -10t18.5 -16l-97 -165z" />
    <glyph glyph-name="Alphatonos" unicode="&#x386;" horiz-adv-x="736" 
d="M17 0q31 84 67 174t70.5 174t65.5 156t53 119q20 44 41.5 60.5t54.5 16.5q31 0 47 -10t24 -18q18 -31 43 -85.5t53 -120t56.5 -136.5t53.5 -135.5t44.5 -116t29.5 -78.5h-116q-5 11 -12.5 31.5t-16.5 45t-19 51t-19 50.5h-345q-23 -57 -40 -104t-27 -74h-108zM366 598
q-11 -23 -26.5 -58.5t-34 -79t-38.5 -92.5t-39 -98h273q-18 48 -38.5 98.5t-39 96t-33.5 81t-24 52.5zM61 469q-15 8 -30.5 15.5t-30.5 15.5l67 136q10 20 27 37t44 17q17 0 32 -7.5t27 -20.5q-35 -48 -68.5 -96.5t-67.5 -96.5z" />
    <glyph glyph-name="Epsilontonos" unicode="&#x388;" horiz-adv-x="776" 
d="M353 303v-209h345v-94h-453v627q0 29 15.5 44.5t47.5 15.5h345q50 0 50 -47q0 -17 -5 -30t-8 -18h-337v-194h286q50 0 50 -47q0 -17 -5 -30t-8 -18h-323zM51 469q-15 8 -30.5 15.5t-30.5 15.5l67 136q10 20 27 37t44 17q17 0 32 -7.5t27 -20.5q-35 -48 -68.5 -96.5
t-67.5 -96.5z" />
    <glyph glyph-name="Etatonos" unicode="&#x389;" horiz-adv-x="912" 
d="M712 636q0 51 56 51q18 0 32 -5t19 -7v-675h-107v310h-358v-310h-108v636q0 26 15 38.5t42 12.5q17 0 31.5 -4.5t19.5 -7.5v-272h358v233zM51 469q-15 8 -30.5 15.5t-30.5 15.5l67 136q10 20 27 37t44 17q17 0 32 -7.5t27 -20.5q-35 -48 -68.5 -96.5t-67.5 -96.5z" />
    <glyph glyph-name="Iotatonos" unicode="&#x38a;" horiz-adv-x="437" 
d="M237 636q0 26 15 38.5t42 12.5q17 0 31.5 -4.5t19.5 -7.5v-675h-108v636zM51 469q-15 8 -30.5 15.5t-30.5 15.5l67 136q10 20 27 37t44 17q17 0 32 -7.5t27 -20.5q-35 -48 -68.5 -96.5t-67.5 -96.5z" />
    <glyph glyph-name="Omicrontonos" unicode="&#x38c;" horiz-adv-x="930" 
d="M868 344q0 -77 -26 -143t-72.5 -114.5t-111.5 -76t-143 -27.5t-142.5 27.5t-111 76t-72.5 114.5t-26 143t26 143t72.5 114t111 75.5t142.5 27.5t143 -27.5t111.5 -75.5t72.5 -114t26 -143zM755 344q0 58 -17 107t-48.5 85t-75.5 56t-98 20t-98.5 -20t-76 -56t-48.5 -85
t-17 -107t17 -107.5t48.5 -85.5t76 -56.5t98.5 -20.5t98 20.5t75.5 56.5t48.5 85.5t17 107.5zM51 469q-15 8 -30.5 15.5t-30.5 15.5l67 136q10 20 27 37t44 17q17 0 32 -7.5t27 -20.5q-35 -48 -68.5 -96.5t-67.5 -96.5z" />
    <glyph glyph-name="Upsilontonos" unicode="&#x38e;" horiz-adv-x="877" 
d="M258 558q-17 23 -28.5 42.5t-11.5 36.5t10.5 33.5t41.5 16.5q20 0 31 -5t15 -8q9 -13 34 -50.5t56.5 -85t66 -97.5t64.5 -88q26 37 52.5 77.5t50.5 78.5t44.5 70.5t34.5 53.5q16 24 31.5 39t44.5 15q12 0 22.5 -3t18.5 -7t13 -8t6 -5q-8 -15 -25 -43t-39.5 -63.5
t-48.5 -76t-53 -80.5t-52.5 -77t-47.5 -65v-259h-112v260q-27 33 -58.5 75t-61.5 84t-56.5 79t-42.5 60zM51 469q-15 8 -30.5 15.5t-30.5 15.5l67 136q10 20 27 37t44 17q17 0 32 -7.5t27 -20.5q-35 -48 -68.5 -96.5t-67.5 -96.5z" />
    <glyph glyph-name="Omegatonos" unicode="&#x38f;" horiz-adv-x="922" 
d="M509 608q-56 0 -98.5 -19t-71 -52t-43 -78t-14.5 -97q0 -95 39.5 -160t122.5 -110v-92h-279v91h148q-28 19 -54 46.5t-46 63t-32 78t-12 92.5q0 63 20 123t62 106.5t106 75t152 28.5q89 0 153.5 -28.5t106 -75t61 -106.5t19.5 -123q0 -50 -12 -92.5t-32.5 -78t-46.5 -63
t-53 -46.5h149v-91h-279v92q82 45 122 110t40 160q0 52 -14.5 97t-43 78t-71.5 52t-99 19zM51 469q-15 8 -30.5 15.5t-30.5 15.5l67 136q10 20 27 37t44 17q17 0 32 -7.5t27 -20.5q-35 -48 -68.5 -96.5t-67.5 -96.5z" />
    <glyph glyph-name="iotadieresistonos" unicode="&#x390;" horiz-adv-x="282" 
d="M-63 634q0 23 19 41.5t44 18.5q26 0 44 -18.5t18 -41.5t-18 -42t-44 -19q-12 0 -23.5 5t-20.5 13.5t-14 19.5t-5 23zM236 634q0 23 18.5 41.5t44.5 18.5t44.5 -18.5t18.5 -41.5t-18.5 -42t-44.5 -19t-44.5 19t-18.5 42zM148 560q-14 5 -28.5 9.5t-29.5 9.5
q7 28 14.5 55.5t13.5 55.5q2 10 6.5 20.5t12 19.5t17.5 15t24 6q17 0 30.5 -8.5t17.5 -13.5zM89 455q0 25 14.5 36t40.5 11q17 0 30.5 -3.5t18.5 -5.5v-493h-104v455z" />
    <glyph glyph-name="Alpha" unicode="&#x391;" horiz-adv-x="737" 
d="M17 0q31 84 67 174t70.5 174t65.5 156t53 119q20 44 41.5 60.5t54.5 16.5q31 0 47 -10t24 -18q18 -31 43 -85.5t53 -120t56.5 -136.5t53.5 -135.5t44.5 -116t29.5 -78.5h-116q-5 11 -12.5 31.5t-16.5 45t-19 51t-19 50.5h-345q-23 -57 -40 -104t-27 -74h-108zM366 598
q-11 -23 -26.5 -58.5t-34 -79t-38.5 -92.5t-39 -98h273q-18 48 -38.5 98.5t-39 96t-33.5 81t-24 52.5z" />
    <glyph glyph-name="Beta" unicode="&#x392;" horiz-adv-x="679" 
d="M92 627q0 29 15.5 44.5t47.5 15.5h192q59 0 101.5 -14.5t69.5 -38.5t40 -56.5t13 -68.5q0 -35 -11 -61t-26 -44.5t-31 -30t-26 -15.5q26 -7 49 -21.5t40.5 -36t27.5 -49.5t10 -61q0 -30 -10.5 -63.5t-36.5 -61.5t-70.5 -46.5t-113.5 -18.5h-281v627zM462 501
q0 45 -30.5 71.5t-95.5 26.5h-138v-203h142q64 0 93 30.5t29 74.5zM493 197q0 22 -7.5 42.5t-23 35.5t-39.5 24t-57 9h-168v-220h167q66 0 97 30.5t31 78.5z" />
    <glyph glyph-name="Gamma" unicode="&#x393;" horiz-adv-x="562" 
d="M494 687q50 0 50 -47q0 -17 -5 -30t-8 -18h-331v-592h-108v627q0 29 16 44.5t48 15.5h338z" />
    <glyph glyph-name="uni0394" unicode="&#x394;" horiz-adv-x="720" 
d="M356 592q-64 -143 -115.5 -271t-87.5 -228h402q-47 133 -95 255.5t-104 243.5zM433 671q39 -78 79.5 -173t78 -188.5t69 -175.5t52.5 -134h-704q22 57 51.5 133t63 159t69.5 168.5t72 162.5q20 44 41.5 60.5t54.5 16.5q30 0 47.5 -10.5t25.5 -18.5z" />
    <glyph glyph-name="Epsilon" unicode="&#x395;" horiz-adv-x="623" 
d="M200 303v-209h345v-94h-453v627q0 29 15.5 44.5t47.5 15.5h345q50 0 50 -47q0 -17 -5 -30t-8 -18h-337v-194h286q50 0 50 -47q0 -17 -5 -30t-8 -18h-323z" />
    <glyph glyph-name="Zeta" unicode="&#x396;" horiz-adv-x="637" 
d="M521 687q76 0 76 -64q0 -26 -20.5 -52.5t-43.5 -55.5q-19 -24 -49 -58.5t-65 -75t-72.5 -83t-72 -81t-64 -71t-48.5 -52.5h431v-94h-561v103q16 17 48.5 53.5t73.5 83t87 98t89 100t79 89.5t57 65h-363q-51 0 -51 47q0 17 5 30t8 18h456z" />
    <glyph glyph-name="Eta" unicode="&#x397;" horiz-adv-x="758" 
d="M558 636q0 51 56 51q18 0 32 -5t19 -7v-675h-107v310h-358v-310h-108v636q0 26 15 38.5t42 12.5q17 0 31.5 -4.5t19.5 -7.5v-272h358v233z" />
    <glyph glyph-name="Theta" unicode="&#x398;" horiz-adv-x="829" 
d="M313 300q-50 0 -50 46q0 17 5 29.5t8 17.5h238q50 0 50 -46q0 -17 -4.5 -30t-7.5 -17h-239zM767 344q0 -77 -26 -143t-72.5 -114.5t-111.5 -76t-143 -27.5t-142.5 27.5t-111 76t-72.5 114.5t-26 143t26 143t72.5 114t111 75.5t142.5 27.5t143 -27.5t111.5 -75.5
t72.5 -114t26 -143zM654 344q0 58 -17 107t-48.5 85t-75.5 56t-98 20t-98.5 -20t-76 -56t-48.5 -85t-17 -107t17 -107.5t48.5 -85.5t76 -56.5t98.5 -20.5t98 20.5t75.5 56.5t48.5 85.5t17 107.5z" />
    <glyph glyph-name="Iota" unicode="&#x399;" horiz-adv-x="292" 
d="M92 636q0 26 15 38.5t42 12.5q17 0 31.5 -4.5t19.5 -7.5v-675h-108v636z" />
    <glyph glyph-name="Kappa" unicode="&#x39a;" horiz-adv-x="670" 
d="M200 391q25 24 62 57.5t77.5 70t80 71t68.5 59.5q20 18 36 28t43 10q15 0 27.5 -5t21 -11t13.5 -12t7 -8q-10 -9 -35 -30t-57 -49t-68 -59t-69 -60.5t-59 -53t-39 -36.5q102 -89 192 -180.5t159 -182.5h-134q-29 36 -68 78.5t-82.5 85.5t-89 83.5t-86.5 70.5v-318h-108
v636q0 26 15 38.5t42 12.5q17 0 31.5 -4.5t19.5 -7.5v-284z" />
    <glyph glyph-name="Lambda" unicode="&#x39b;" horiz-adv-x="713" 
d="M433 670q24 -49 51.5 -111.5t54.5 -129t52.5 -133.5t47.5 -125t38.5 -103t25.5 -68h-121q-21 61 -46.5 133.5t-54.5 150t-60.5 157t-64.5 155.5q-16 -33 -34.5 -79.5t-39.5 -100t-42 -111t-41 -112.5t-38 -105t-32 -88h-114q16 41 36 93t42 109t45.5 116.5t45.5 115
t42.5 104t36.5 85.5q18 40 40.5 58.5t55.5 18.5q30 0 48 -10.5t26 -19.5z" />
    <glyph glyph-name="Mu" unicode="&#x39c;" horiz-adv-x="908" 
d="M720 0q-1 16 -3.5 58t-5.5 98t-6.5 118t-6.5 117t-5.5 97t-3.5 57q-10 -21 -25 -53t-33 -69t-37 -77.5t-37.5 -78.5t-35 -72t-28.5 -58h-79q-18 36 -43.5 89t-53 110.5t-54 113t-46.5 95.5q-1 -23 -3.5 -66t-5.5 -96t-6 -110.5t-6 -110t-5 -95.5t-3 -67h-106
q1 26 3.5 75.5t5.5 110t6.5 127t7 127.5t6 110t4.5 75q2 30 21 46t48 16t49 -8.5t30 -19.5q8 -17 22.5 -46.5t32 -66t37 -76.5t38 -78.5t35.5 -72t29 -57.5q16 31 40.5 82t51 105.5t50 103.5t36.5 76q12 25 30 41.5t55 16.5q29 0 45.5 -7.5t21.5 -11.5q2 -28 5 -80.5
t6.5 -117.5t7.5 -136t8 -136t6.5 -117.5t4.5 -80.5h-105z" />
    <glyph glyph-name="Nu" unicode="&#x39d;" horiz-adv-x="761" 
d="M228 664q10 -13 32 -43.5t50 -71.5t61 -90.5t67 -101t66 -101.5t58 -92v472q0 26 15 38.5t41 12.5q18 0 32 -4.5t19 -7.5v-675h-113q-25 38 -55.5 85.5t-63.5 99t-67 103.5t-65.5 99t-59 86.5t-47.5 66.5v-540h-106v630q0 21 17 39t51 18q26 0 42.5 -8.5t25.5 -14.5z" />
    <glyph glyph-name="Xi" unicode="&#x39e;" horiz-adv-x="626" 
d="M120 593q-50 0 -50 47q0 17 5 29.5t8 17.5h423q50 0 50 -46q0 -17 -5 -30t-8 -18h-423zM60 0v94h506v-94h-506zM161 304q-51 0 -51 47q0 17 5 29.5t8 17.5h334q51 0 51 -46q0 -17 -5 -30t-8 -18h-334z" />
    <glyph glyph-name="Omicron" unicode="&#x39f;" horiz-adv-x="829" 
d="M767 344q0 -77 -26 -143t-72.5 -114.5t-111.5 -76t-143 -27.5t-142.5 27.5t-111 76t-72.5 114.5t-26 143t26 143t72.5 114t111 75.5t142.5 27.5t143 -27.5t111.5 -75.5t72.5 -114t26 -143zM654 344q0 58 -17 107t-48.5 85t-75.5 56t-98 20t-98.5 -20t-76 -56t-48.5 -85
t-17 -107t17 -107.5t48.5 -85.5t76 -56.5t98.5 -20.5t98 20.5t75.5 56.5t48.5 85.5t17 107.5z" />
    <glyph glyph-name="Pi" unicode="&#x3a0;" horiz-adv-x="758" 
d="M665 0h-107v594h-359v-594h-107v637q0 50 57 50h459q57 0 57 -50v-637z" />
    <glyph glyph-name="Rho" unicode="&#x3a1;" horiz-adv-x="631" 
d="M467 464q0 28 -7.5 52.5t-24.5 43t-44.5 29t-68.5 10.5h-124v-260q9 -3 34.5 -7t59.5 -4q49 0 82.5 11t54 29.5t29.5 43t9 52.5zM346 687q58 0 102 -18t72.5 -48.5t43 -71t14.5 -85.5q0 -43 -15 -83.5t-47.5 -71.5t-83 -50t-120.5 -19q-48 0 -77 4.5t-37 6.5v-251h-106
v627q0 29 16 44.5t48 15.5h190z" />
    <glyph glyph-name="Sigma" unicode="&#x3a3;" horiz-adv-x="614" 
d="M100 530q-35 31 -49.5 51t-14.5 43q0 32 19.5 47.5t63.5 15.5h415q49 0 49 -46q0 -17 -5 -30t-8 -18h-396q16 -13 40.5 -33.5t54 -45.5t62 -52t64.5 -52q16 -13 27 -26t11 -34q0 -22 -11.5 -35.5t-29.5 -29.5q-29 -26 -59 -52.5t-59 -52t-55.5 -48t-46.5 -38.5h409v-94
h-545v101q62 52 137.5 116t147.5 129z" />
    <glyph glyph-name="Tau" unicode="&#x3a4;" horiz-adv-x="622" 
d="M551 687q51 0 51 -47q0 -17 -5 -30t-8 -18h-232v-592h-108v592h-178q-51 0 -51 47q0 17 5 30t8 18h518z" />
    <glyph glyph-name="Upsilon" unicode="&#x3a5;" horiz-adv-x="672" 
d="M54 558q-17 23 -28.5 42.5t-11.5 36.5t10.5 33.5t41.5 16.5q20 0 31 -5t15 -8q9 -13 34 -50.5t56.5 -85t66 -97.5t64.5 -88q26 37 52.5 77.5t50.5 78.5t44.5 70.5t34.5 53.5q16 24 31.5 39t44.5 15q12 0 22.5 -3t18.5 -7t13 -8t6 -5q-8 -15 -25 -43t-39.5 -63.5
t-48.5 -76t-53 -80.5t-52.5 -77t-47.5 -65v-259h-112v260q-27 33 -58.5 75t-61.5 84t-56.5 79t-42.5 60z" />
    <glyph glyph-name="Phi" unicode="&#x3a6;" horiz-adv-x="840" 
d="M366 -27v97q-68 6 -124.5 27.5t-97 57.5t-63 84.5t-22.5 108.5q0 59 22.5 107.5t63 84t97 57t124.5 27.5v43q0 49 55 49q17 0 30.5 -4t18.5 -6v-82q69 -5 126 -26.5t98 -57.5t64 -84.5t23 -107.5q0 -60 -23 -109t-64 -85t-98 -57.5t-126 -26.5v-97h-104zM670 348
q0 82 -51.5 135t-148.5 61v-394q97 9 148.5 62.5t51.5 135.5zM170 348q0 -81 50.5 -134.5t145.5 -63.5v393q-95 -9 -145.5 -61.5t-50.5 -133.5z" />
    <glyph glyph-name="Chi" unicode="&#x3a7;" horiz-adv-x="662" 
d="M514 0q-13 19 -33.5 47t-46 62.5t-54.5 73.5t-60 79q-56 -78 -104.5 -148t-77.5 -114h-121q15 23 41.5 60t58.5 82.5t69 96.5t73 102q-29 37 -57 73t-52 66.5t-43 54.5t-30 39q-20 25 -28 39t-8 26q0 17 11.5 32.5t37.5 15.5q18 0 28.5 -4t14.5 -6l32.5 -42.5t44.5 -58
t53.5 -70t58.5 -77.5q27 37 51.5 72t44.5 63t34.5 48t21.5 29q19 23 36 34.5t45 11.5q26 0 42 -10.5t21 -15.5q-15 -19 -39.5 -51t-55.5 -73.5t-67 -89.5t-73 -99q41 -54 81 -106.5t75 -99t62.5 -83.5t43.5 -59h-131z" />
    <glyph glyph-name="Psi" unicode="&#x3a8;" horiz-adv-x="785" 
d="M339 0v195q-55 5 -104.5 22.5t-87 50.5t-59.5 82.5t-22 119.5v167q0 50 55 50q17 0 30.5 -4t18.5 -6v-202q0 -48 13.5 -82.5t37 -57.5t54 -36t64.5 -18v356q0 50 57 50q17 0 31 -4t19 -7v-395q34 5 64.5 17.5t53.5 36t37 58t14 82.5v162q0 50 55 50q17 0 30.5 -4t18.5 -6
v-206q0 -70 -22 -120t-59.5 -83t-87 -51t-104.5 -23v-194h-107z" />
    <glyph glyph-name="Omega" unicode="&#x3a9;" horiz-adv-x="827" 
d="M413 608q-56 0 -98.5 -19t-71 -52t-43 -78t-14.5 -97q0 -95 39.5 -160t122.5 -110v-92h-279v91h148q-28 19 -54 46.5t-46 63t-32 78t-12 92.5q0 63 20 123t62 106.5t106 75t152 28.5q89 0 153.5 -28.5t106 -75t61 -106.5t19.5 -123q0 -50 -12 -92.5t-32.5 -78t-46.5 -63
t-53 -46.5h149v-91h-279v92q82 45 122 110t40 160q0 52 -14.5 97t-43 78t-71.5 52t-99 19z" />
    <glyph glyph-name="Iotadieresis" unicode="&#x3aa;" horiz-adv-x="292" 
d="M92 636q0 26 15 38.5t42 12.5q17 0 31.5 -4.5t19.5 -7.5v-675h-108v636zM255 747q-26 0 -45 19t-19 42q0 12 5 23t14 19.5t20.5 13.5t24.5 5q26 0 45 -19t19 -42q0 -11 -5 -22t-14 -19.5t-20.5 -14t-24.5 -5.5zM46 747q-25 0 -44 19t-19 42q0 12 5 23t14 19.5t20.5 13.5
t23.5 5q26 0 45 -19t19 -42q0 -11 -5 -22t-14 -19.5t-20.5 -14t-24.5 -5.5z" />
    <glyph glyph-name="Upsilondieresis" unicode="&#x3ab;" horiz-adv-x="672" 
d="M54 558q-17 23 -28.5 42.5t-11.5 36.5t10.5 33.5t41.5 16.5q20 0 31 -5t15 -8q9 -13 34 -50.5t56.5 -85t66 -97.5t64.5 -88q26 37 52.5 77.5t50.5 78.5t44.5 70.5t34.5 53.5q16 24 31.5 39t44.5 15q12 0 22.5 -3t18.5 -7t13 -8t6 -5q-8 -15 -25 -43t-39.5 -63.5
t-48.5 -76t-53 -80.5t-52.5 -77t-47.5 -65v-259h-112v260q-27 33 -58.5 75t-61.5 84t-56.5 79t-42.5 60zM244 759q-24 0 -43 18.5t-19 41.5t19 41t43 18q26 0 44 -18t18 -41t-18 -41.5t-44 -18.5zM440 759q-25 0 -43.5 18.5t-18.5 41.5t18.5 41t43.5 18q26 0 44 -18t18 -41
t-18 -41.5t-44 -18.5z" />
    <glyph glyph-name="alphatonos" unicode="&#x3ac;" horiz-adv-x="642" 
d="M455 413q-6 3 -33.5 12t-77.5 9q-93 0 -137 -50.5t-44 -135.5q0 -82 37 -128t107 -46q37 0 65 12.5t46.5 34.5t27.5 52.5t9 65.5v174zM455 71q-10 -13 -23.5 -27.5t-33 -26.5t-47 -20t-64.5 -8q-50 0 -92 16.5t-73 49t-48.5 79.5t-17.5 108t19 111.5t55.5 87t91 56.5
t125.5 20q43 0 80 -6t64.5 -14t44.5 -15.5t22 -9.5v-472h-103v71zM278 595l55 122q9 20 24 36.5t40 16.5q16 0 31 -8t26 -20l-118 -174z" />
    <glyph glyph-name="epsilontonos" unicode="&#x3ad;" horiz-adv-x="536" 
d="M292 517q74 0 118 -16.5t59 -28.5q10 -8 16.5 -18.5t6.5 -25.5q0 -14 -11.5 -28t-31.5 -23q-4 6 -16 16t-31 19t-45.5 16t-60.5 7q-60 0 -91 -19t-31 -51q0 -35 33.5 -51.5t98.5 -16.5h32q48 0 48 -40q0 -16 -4.5 -27.5t-7.5 -15.5h-67q-67 0 -105 -17.5t-38 -55.5
q0 -20 10.5 -33.5t28.5 -22t42.5 -12.5t53.5 -4q56 0 98.5 14t80.5 31q8 -19 16 -37.5t16 -37.5q-14 -8 -35.5 -17.5t-49.5 -17.5t-62 -13.5t-72 -5.5q-116 0 -176 39t-60 104q0 44 26 79t84 52q-46 14 -71 42.5t-25 72.5q0 26 12 51.5t38.5 46t69 33t103.5 12.5zM199 595
l55 122q9 20 24 36.5t40 16.5q16 0 31 -8t26 -20l-118 -174z" />
    <glyph glyph-name="etatonos" unicode="&#x3ae;" horiz-adv-x="633" 
d="M449 -200v481q0 74 -35.5 112t-110.5 38q-51 0 -80.5 -9.5t-37.5 -13.5v-408h-103v474q4 1 22 8t48 15t70 14t88 6q55 0 100 -14.5t76.5 -41.5t48.5 -65t17 -86v-510h-103zM252 585l55 122q9 20 24 36.5t40 16.5q16 0 31 -8t26 -20l-118 -174z" />
    <glyph glyph-name="iotatonos" unicode="&#x3af;" horiz-adv-x="282" 
d="M89 455q0 25 14.5 36t40.5 11q17 0 30.5 -3.5t18.5 -5.5v-493h-104v455zM84 595l55 122q9 20 24 36.5t40 16.5q16 0 31 -8t26 -20l-118 -174z" />
    <glyph glyph-name="upsilondieresistonos" unicode="&#x3b0;" horiz-adv-x="630" 
d="M549 224q0 -55 -15 -99.5t-45 -75.5t-73.5 -48t-100.5 -17t-100.5 17t-73.5 48t-45 75.5t-15 99.5v231q0 24 14 35.5t40 11.5q17 0 30.5 -4t18.5 -6v-267q0 -72 30 -115t101 -43t101 43t30 115v230q0 47 55 47q16 0 29.5 -4t18.5 -6v-268zM87 634q0 23 19 41.5t44 18.5
q26 0 44.5 -18.5t18.5 -41.5t-18.5 -42t-44.5 -19q-12 0 -23.5 5t-20.5 13.5t-14 19.5t-5 23zM407 634q0 23 18.5 41.5t44.5 18.5t44 -18.5t18 -41.5t-18 -42t-44 -19t-44.5 19t-18.5 42zM243 584l42 110q5 18 20.5 37.5t39.5 19.5q19 0 33.5 -10t18.5 -16l-97 -165z" />
    <glyph glyph-name="alpha" unicode="&#x3b1;" horiz-adv-x="642" 
d="M455 413q-6 3 -33.5 12t-77.5 9q-93 0 -137 -50.5t-44 -135.5q0 -82 37 -128t107 -46q37 0 65 12.5t46.5 34.5t27.5 52.5t9 65.5v174zM455 71q-10 -13 -23.5 -27.5t-33 -26.5t-47 -20t-64.5 -8q-50 0 -92 16.5t-73 49t-48.5 79.5t-17.5 108t19 111.5t55.5 87t91 56.5
t125.5 20q43 0 80 -6t64.5 -14t44.5 -15.5t22 -9.5v-472h-103v71z" />
    <glyph glyph-name="beta" unicode="&#x3b2;" horiz-adv-x="629" 
d="M185 -200h-103v715q0 48 12 89t39 70.5t70 46t105 16.5q61 0 102.5 -16.5t67 -42.5t36 -57t10.5 -61q0 -51 -24.5 -89.5t-57.5 -53.5q31 -8 58.5 -24t47.5 -41t32 -60t12 -81q0 -50 -18 -91t-49.5 -70t-75 -44.5t-94.5 -15.5q-61 0 -105 19t-65 47v-256zM316 440
q50 0 78 32.5t28 81.5q0 21 -7 40t-21.5 33.5t-36 23t-50.5 8.5q-35 0 -58 -11t-37.5 -30.5t-20.5 -46t-6 -56.5v-345q45 -95 162 -95q33 0 58.5 10.5t43 29t26.5 43t9 52.5q0 72 -40.5 110.5t-103.5 38.5h-24q-39 0 -39 40q0 16 4 26.5t6 14.5h29z" />
    <glyph glyph-name="gamma" unicode="&#x3b3;" horiz-adv-x="550" 
d="M25 394q-6 14 -12 30t-6 30q0 19 11.5 33.5t41.5 14.5q20 0 30.5 -4t12.5 -5q17 -48 39.5 -103.5t46 -110.5t45.5 -104t39 -83q12 23 31 66t41 94t44 104.5t39 98.5q8 21 20 34t40 13q23 0 37.5 -9t17.5 -13q-5 -21 -18.5 -55.5t-32 -77t-40.5 -90.5t-44.5 -95.5
t-44.5 -91.5t-41 -79v-191h-103v190q-32 58 -63 121.5t-57.5 119.5t-46 99.5t-27.5 63.5z" />
    <glyph glyph-name="delta" unicode="&#x3b4;" horiz-adv-x="625" 
d="M575 226q0 -53 -20 -97.5t-55.5 -76.5t-83.5 -49.5t-104 -17.5t-104.5 17.5t-83.5 49.5t-55 76.5t-20 97.5q0 43 13 81t37.5 67.5t59 50.5t76.5 32q-39 22 -67 51.5t-28 77.5q0 33 13.5 60.5t37.5 48t58.5 31.5t76.5 11q53 0 85.5 -8.5t50.5 -20.5t24 -25t6 -22
q0 -12 -7.5 -26.5t-23.5 -26.5q-8 7 -19 15.5t-26.5 15.5t-36 11.5t-47.5 4.5q-48 0 -69 -23.5t-21 -51.5q0 -27 20 -45.5t51.5 -34t69.5 -30.5t73 -36q54 -32 86.5 -85.5t32.5 -122.5zM469 227q0 34 -10.5 63.5t-30.5 51.5t-49 34t-67 12t-67 -12t-49 -34t-30.5 -51.5
t-10.5 -63.5t10.5 -63t30.5 -50.5t49 -33.5t67 -12t67 12t49 33.5t30.5 50.5t10.5 63z" />
    <glyph glyph-name="epsilon" unicode="&#x3b5;" horiz-adv-x="536" 
d="M292 517q74 0 118 -16.5t59 -28.5q10 -8 16.5 -18.5t6.5 -25.5q0 -14 -11.5 -28t-31.5 -23q-4 6 -16 16t-31 19t-45.5 16t-60.5 7q-60 0 -91 -19t-31 -51q0 -35 33.5 -51.5t98.5 -16.5h32q48 0 48 -40q0 -16 -4.5 -27.5t-7.5 -15.5h-67q-67 0 -105 -17.5t-38 -55.5
q0 -20 10.5 -33.5t28.5 -22t42.5 -12.5t53.5 -4q56 0 98.5 14t80.5 31q8 -19 16 -37.5t16 -37.5q-14 -8 -35.5 -17.5t-49.5 -17.5t-62 -13.5t-72 -5.5q-116 0 -176 39t-60 104q0 44 26 79t84 52q-46 14 -71 42.5t-25 72.5q0 26 12 51.5t38.5 46t69 33t103.5 12.5z" />
    <glyph glyph-name="zeta" unicode="&#x3b6;" horiz-adv-x="510" 
d="M431 607q-51 -32 -99.5 -74t-86 -91.5t-60 -104.5t-22.5 -112q0 -69 32 -102t89 -33h26q85 0 131.5 -37t46.5 -101q0 -45 -25.5 -79.5t-62.5 -54.5l-48 65q18 11 26.5 24.5t8.5 33.5q0 24 -20.5 41.5t-71.5 17.5h-19q-38 0 -77.5 11t-71.5 36t-52.5 65t-20.5 98
q0 52 19.5 109.5t57 113.5t92 108.5t124.5 95.5h-236q-29 0 -41 11t-12 32q0 13 3 24t5 17h373q53 0 53 -46q0 -23 -17 -37t-44 -31z" />
    <glyph glyph-name="eta" unicode="&#x3b7;" horiz-adv-x="633" 
d="M449 -200v481q0 74 -35.5 112t-110.5 38q-51 0 -80.5 -9.5t-37.5 -13.5v-408h-103v474q4 1 22 8t48 15t70 14t88 6q55 0 100 -14.5t76.5 -41.5t48.5 -65t17 -86v-510h-103z" />
    <glyph glyph-name="theta" unicode="&#x3b8;" horiz-adv-x="647" 
d="M593 360q0 -89 -17.5 -158.5t-51.5 -118t-84.5 -74t-116.5 -25.5q-132 0 -200.5 99.5t-68.5 276.5q0 88 17.5 158t51 119t84 74.5t116.5 25.5t116.5 -25.5t84.5 -74.5t51.5 -119t17.5 -158zM323 652q-42 0 -71.5 -18.5t-49 -51t-29.5 -77.5t-13 -99h326q-3 54 -12.5 99
t-29 77.5t-49.5 51t-72 18.5zM323 69q43 0 73 18.5t49 52t29 79t12 99.5h-327q3 -54 12.5 -99.5t29 -79t49.5 -52t73 -18.5z" />
    <glyph glyph-name="iota" unicode="&#x3b9;" horiz-adv-x="282" 
d="M89 455q0 25 14.5 36t40.5 11q17 0 30.5 -3.5t18.5 -5.5v-493h-104v455z" />
    <glyph glyph-name="kappa" unicode="&#x3ba;" horiz-adv-x="567" 
d="M84 455q0 47 55 47q16 0 29.5 -4t18.5 -6v-209q11 9 33 30t50 46.5t58 52t56 47.5q28 22 47 32.5t45 10.5q15 0 26 -5t18.5 -11t12 -12t5.5 -8q-25 -21 -57 -48.5t-65.5 -56t-66.5 -56t-59 -48.5q41 -28 81 -60.5t76 -66t66.5 -67t51.5 -63.5h-129q-62 70 -123 120
t-126 96v-216h-103v455z" />
    <glyph glyph-name="lambda" unicode="&#x3bb;" horiz-adv-x="586" 
d="M143 649q-8 12 -12 22t-4 22q0 17 12.5 30.5t38.5 13.5q17 0 26.5 -3t12.5 -5q96 -175 184 -356.5t173 -372.5h-112q-42 94 -83.5 185t-86.5 179q-22 -44 -46 -95.5t-47 -101.5t-42 -94t-31 -73h-110q12 28 37.5 84t57 123t65.5 136t62 124z" />
    <glyph glyph-name="uni03BC" unicode="&#x3bc;" horiz-adv-x="644" 
d="M81 455q0 24 14 35.5t40 11.5q17 0 30.5 -4t18.5 -6v-277q0 -71 44 -107t125 -36q35 0 56.5 2.5t29.5 4.5v376q0 24 14 35.5t40 11.5q17 0 30.5 -4t18.5 -6v-492q-7 -2 -23.5 -4t-40.5 -4.5t-53 -4t-60 -1.5q-122 0 -181 53v-239h-103v655z" />
    <glyph glyph-name="nu" unicode="&#x3bd;" horiz-adv-x="550" 
d="M543 480q-6 -22 -20.5 -58.5t-33.5 -81.5t-41.5 -94.5t-45 -96t-43 -87t-35.5 -67.5h-107q-18 32 -37.5 70.5t-39 78t-37.5 78.5t-33.5 72.5t-27 59.5t-17.5 40t-12 30t-6 30q0 18 12 33t41 15q20 0 31 -4t12 -5q17 -47 39.5 -103t46 -110.5t45.5 -104t39 -83.5
q12 23 31.5 65.5t41 93.5t43.5 105t39 99q8 22 20 34.5t40 12.5q24 0 38.5 -9t16.5 -13z" />
    <glyph glyph-name="xi" unicode="&#x3be;" horiz-adv-x="523" 
d="M301 89q60 0 99.5 -10t62.5 -27.5t32 -41.5t9 -51q0 -52 -24 -86.5t-65 -54.5l-49 65q38 23 38 62q0 19 -9.5 30t-25 16.5t-34.5 7t-38 1.5q-46 0 -89.5 9.5t-77 32.5t-54 62.5t-20.5 99.5q0 37 12 68.5t32.5 56.5t48 42t58.5 25q-52 19 -88.5 57t-36.5 100
q0 40 15.5 73.5t45.5 58t73.5 38.5t98.5 14q54 0 89 -9t56 -22t29 -27.5t8 -26.5q0 -13 -8.5 -26.5t-22.5 -24.5q-8 7 -20.5 16t-31 17.5t-42 14t-51.5 5.5q-63 0 -100 -26.5t-37 -80.5q0 -28 11.5 -49t31.5 -34.5t46 -20.5t56 -7h64q47 0 47 -42q0 -17 -4.5 -28t-6.5 -15
h-91q-33 0 -64.5 -8.5t-56.5 -25.5t-40 -43.5t-15 -62.5q0 -57 34.5 -89.5t104.5 -32.5z" />
    <glyph glyph-name="omicron" unicode="&#x3bf;" horiz-adv-x="645" 
d="M589 251q0 -57 -19.5 -106t-54.5 -84.5t-84 -56t-108 -20.5t-108.5 20.5t-84.5 56t-54.5 84.5t-19.5 106t19.5 106t54.5 84.5t84.5 56t108.5 20.5t108 -20.5t84 -56t54.5 -84.5t19.5 -106zM482 251q0 40 -11 73.5t-31.5 58t-50 38t-66.5 13.5q-38 0 -67.5 -13.5t-50 -38
t-31.5 -58t-11 -73.5t11 -73.5t31.5 -58t50 -38t67.5 -13.5q37 0 66.5 13.5t50 38t31.5 58t11 73.5z" />
    <glyph glyph-name="pi" unicode="&#x3c0;" horiz-adv-x="689" 
d="M233 415v-415h-103v415h-65q-26 0 -36 13.5t-10 33.5q0 14 3.5 25t5.5 15h592q47 0 47 -43q0 -17 -4.5 -28.5t-6.5 -15.5h-97v-415h-103v415h-223z" />
    <glyph glyph-name="rho" unicode="&#x3c1;" horiz-adv-x="642" 
d="M80 259q0 68 21.5 117t56 80.5t78.5 46t89 14.5q63 0 111.5 -20t81.5 -55.5t50.5 -83.5t17.5 -104q0 -63 -18.5 -112t-51 -82t-76.5 -50t-95 -17q-41 0 -70.5 8.5t-49 19.5t-30 21t-12.5 14v-256h-103v459zM183 166q5 -12 14.5 -27t26.5 -28.5t42.5 -23t63.5 -9.5
q71 0 110.5 46.5t39.5 130.5q0 39 -9.5 71.5t-28.5 56.5t-48 37.5t-67 13.5q-64 0 -104 -44t-40 -123v-101z" />
    <glyph glyph-name="sigma1" unicode="&#x3c2;" horiz-adv-x="552" 
d="M338 89q52 0 87 -12.5t55 -33t28.5 -45.5t8.5 -50q0 -44 -24 -77t-60 -53l-48 64q14 10 22.5 24t8.5 33q0 12 -3.5 23t-13 19.5t-26 13.5t-42.5 5h-15q-48 0 -94.5 15.5t-83.5 47t-59.5 79.5t-22.5 113q0 59 20 107t55.5 82.5t84.5 53t107 18.5t96 -11.5t60 -28t31 -33.5
t9 -27q0 -17 -10.5 -30t-26.5 -22q-29 32 -65 49.5t-87 17.5q-78 0 -123 -47.5t-45 -128.5q0 -41 13 -72t36.5 -52t55.5 -31.5t71 -10.5z" />
    <glyph glyph-name="sigma" unicode="&#x3c3;" horiz-adv-x="671" 
d="M589 245q0 -54 -19.5 -101.5t-55 -83t-84.5 -56t-108 -20.5t-108 20.5t-84 56t-54.5 84.5t-19.5 106t19.5 105.5t54.5 84t84 56t108 20.5q49 0 93 -15h181q27 0 38 -12.5t11 -32.5q0 -16 -4 -27.5t-6 -16.5h-109q31 -33 47 -77t16 -91zM162 251q0 -40 11 -73.5t31.5 -58
t50 -38t67.5 -13.5q37 0 67 13.5t50.5 38t31.5 58t11 73.5t-11 73.5t-31.5 58t-50.5 38t-67 13.5q-38 0 -67.5 -13.5t-50 -38t-31.5 -58t-11 -73.5z" />
    <glyph glyph-name="tau" unicode="&#x3c4;" horiz-adv-x="546" 
d="M483 502q47 0 47 -43q0 -17 -5 -28t-7 -15h-195v-416h-103v416h-157q-47 0 -47 43q0 16 4.5 27.5t6.5 15.5h456z" />
    <glyph glyph-name="upsilon" unicode="&#x3c5;" horiz-adv-x="630" 
d="M549 224q0 -55 -15 -99.5t-45 -75.5t-73.5 -48t-100.5 -17t-100.5 17t-73.5 48t-45 75.5t-15 99.5v231q0 24 14 35.5t40 11.5q17 0 30.5 -4t18.5 -6v-267q0 -72 30 -115t101 -43t101 43t30 115v230q0 47 55 47q16 0 29.5 -4t18.5 -6v-268z" />
    <glyph glyph-name="phi" unicode="&#x3c6;" horiz-adv-x="720" 
d="M53 251q0 55 19 102t52.5 82.5t81 56.5t104.5 24v97q0 47 53 47q16 0 29 -3.5t18 -5.5v-135q57 -3 104 -24t81 -56.5t53 -82.5t19 -102q0 -56 -19 -103t-53 -82.5t-81 -56.5t-104 -24v-185h-100v185q-57 3 -104.5 24t-81 56.5t-52.5 82.5t-19 103zM563 251
q0 39 -10.5 72.5t-30 59t-48 41t-64.5 18.5v-383q36 3 64.5 18.5t48 41t30 59.5t10.5 73zM156 251q0 -39 10.5 -73t30.5 -59.5t48.5 -41t64.5 -18.5v383q-36 -3 -64.5 -18.5t-48.5 -41t-30.5 -59t-10.5 -72.5z" />
    <glyph glyph-name="chi" unicode="&#x3c7;" horiz-adv-x="544" 
d="M142 495q26 -42 61 -103.5t80 -136.5q8 15 21.5 39.5t28.5 51.5t28.5 51.5t22.5 39.5q11 20 20 32.5t18 20t19.5 10.5t23.5 3q26 0 37.5 -10.5t16.5 -17.5q-8 -13 -22.5 -37t-32.5 -54t-37.5 -63t-37 -63l-31.5 -54t-21 -37q8 -15 24 -43l36 -63t41.5 -74t41 -75
t35.5 -65.5t24 -46.5h-111q-11 23 -31.5 63t-43.5 82t-43.5 78.5t-29.5 54.5q-11 -20 -33 -58t-45.5 -80.5t-45 -81t-32.5 -58.5h-108q9 16 25.5 45t36.5 64t42.5 73.5t42.5 73.5t36.5 63.5t25.5 43.5q-10 17 -31.5 53.5t-46.5 77t-47.5 77t-33.5 54.5q-5 8 -9.5 19t-4.5 21
q0 17 11 28t34 12q17 0 28.5 -3.5t16.5 -6.5z" />
    <glyph glyph-name="psi" unicode="&#x3c8;" horiz-adv-x="783" 
d="M600 455q0 47 55 47q16 0 29.5 -4t18.5 -6v-202q0 -62 -11 -116.5t-40 -95.5t-79.5 -66t-129.5 -27v-185h-103v185q-78 2 -128.5 26.5t-80 65t-41 94.5t-11.5 115v169q0 47 55 47q16 0 29.5 -4t18.5 -6v-235q0 -36 7.5 -69t25.5 -58.5t48.5 -41.5t76.5 -19v544
q0 25 14 36t40 11q17 0 30.5 -3.5t18.5 -5.5v-582q45 3 75.5 19t48.5 41.5t25.5 58.5t7.5 69v198z" />
    <glyph glyph-name="omega" unicode="&#x3c9;" horiz-adv-x="935" 
d="M772 229q0 82 -45.5 137.5t-122.5 75.5q-3 10 -3 20q0 22 14 34t38 12q10 0 31 -5.5t46 -19t51.5 -34.5t48 -52.5t35.5 -73t14 -95.5q0 -47 -13 -91t-41 -78t-71.5 -54.5t-103.5 -20.5q-39 0 -68.5 8.5t-51 23t-36.5 33.5t-27 40q-12 -21 -27.5 -40t-37 -33.5t-50.5 -23
t-69 -8.5q-60 0 -103 21t-70.5 55t-40.5 78t-13 90q0 82 29.5 136t68 86t75.5 45t52 13q52 0 52 -47v-9.5t-2 -9.5q-78 -20 -123.5 -75.5t-45.5 -137.5q0 -35 8 -65t24.5 -52t41 -34.5t58.5 -12.5q55 0 88 42.5t33 123.5v67q0 24 14 35t40 11q16 0 29.5 -3.5t18.5 -5.5v-104
q0 -77 32 -121.5t90 -44.5q33 0 58 12.5t41.5 34.5t25 52t8.5 65z" />
    <glyph glyph-name="iotadieresis" unicode="&#x3ca;" horiz-adv-x="282" 
d="M89 455q0 25 14.5 36t40.5 11q17 0 30.5 -3.5t18.5 -5.5v-493h-104v455zM48 573q-24 0 -43 18.5t-19 41.5t19 41t43 18q26 0 44 -18t18 -41t-18 -41.5t-44 -18.5zM244 573q-25 0 -43.5 18.5t-18.5 41.5t18.5 41t43.5 18q26 0 44 -18t18 -41t-18 -41.5t-44 -18.5z" />
    <glyph glyph-name="upsilondieresis" unicode="&#x3cb;" horiz-adv-x="630" 
d="M549 224q0 -55 -15 -99.5t-45 -75.5t-73.5 -48t-100.5 -17t-100.5 17t-73.5 48t-45 75.5t-15 99.5v231q0 24 14 35.5t40 11.5q17 0 30.5 -4t18.5 -6v-267q0 -72 30 -115t101 -43t101 43t30 115v230q0 47 55 47q16 0 29.5 -4t18.5 -6v-268zM211 573q-24 0 -43 18.5
t-19 41.5t19 41t43 18q26 0 44 -18t18 -41t-18 -41.5t-44 -18.5zM407 573q-25 0 -43.5 18.5t-18.5 41.5t18.5 41t43.5 18q26 0 44 -18t18 -41t-18 -41.5t-44 -18.5z" />
    <glyph glyph-name="omicrontonos" unicode="&#x3cc;" horiz-adv-x="645" 
d="M589 251q0 -57 -19.5 -106t-54.5 -84.5t-84 -56t-108 -20.5t-108.5 20.5t-84.5 56t-54.5 84.5t-19.5 106t19.5 106t54.5 84.5t84.5 56t108.5 20.5t108 -20.5t84 -56t54.5 -84.5t19.5 -106zM482 251q0 40 -11 73.5t-31.5 58t-50 38t-66.5 13.5q-38 0 -67.5 -13.5t-50 -38
t-31.5 -58t-11 -73.5t11 -73.5t31.5 -58t50 -38t67.5 -13.5q37 0 66.5 13.5t50 38t31.5 58t11 73.5zM251 595l55 122q9 20 24 36.5t40 16.5q16 0 31 -8t26 -20l-118 -174z" />
    <glyph glyph-name="upsilontonos" unicode="&#x3cd;" horiz-adv-x="630" 
d="M549 224q0 -55 -15 -99.5t-45 -75.5t-73.5 -48t-100.5 -17t-100.5 17t-73.5 48t-45 75.5t-15 99.5v231q0 24 14 35.5t40 11.5q17 0 30.5 -4t18.5 -6v-267q0 -72 30 -115t101 -43t101 43t30 115v230q0 47 55 47q16 0 29.5 -4t18.5 -6v-268zM243 595l55 122q9 20 24 36.5
t40 16.5q16 0 31 -8t26 -20l-118 -174z" />
    <glyph glyph-name="omegatonos" unicode="&#x3ce;" horiz-adv-x="935" 
d="M772 229q0 82 -45.5 137.5t-122.5 75.5q-3 10 -3 20q0 22 14 34t38 12q10 0 31 -5.5t46 -19t51.5 -34.5t48 -52.5t35.5 -73t14 -95.5q0 -47 -13 -91t-41 -78t-71.5 -54.5t-103.5 -20.5q-39 0 -68.5 8.5t-51 23t-36.5 33.5t-27 40q-12 -21 -27.5 -40t-37 -33.5t-50.5 -23
t-69 -8.5q-60 0 -103 21t-70.5 55t-40.5 78t-13 90q0 82 29.5 136t68 86t75.5 45t52 13q52 0 52 -47v-9.5t-2 -9.5q-78 -20 -123.5 -75.5t-45.5 -137.5q0 -35 8 -65t24.5 -52t41 -34.5t58.5 -12.5q55 0 88 42.5t33 123.5v67q0 24 14 35t40 11q16 0 29.5 -3.5t18.5 -5.5v-104
q0 -77 32 -121.5t90 -44.5q33 0 58 12.5t41.5 34.5t25 52t8.5 65zM419 595l55 122q9 20 24 36.5t40 16.5q16 0 31 -8t26 -20l-118 -174z" />
    <glyph glyph-name="uni0400" unicode="&#x400;" horiz-adv-x="623" 
d="M200 303v-209h345v-94h-453v627q0 29 15.5 44.5t47.5 15.5h345q50 0 50 -47q0 -17 -5 -30t-8 -18h-337v-194h286q50 0 50 -47q0 -17 -5 -30t-8 -18h-323zM203 831q0 6 3.5 16.5t11.5 20.5t21 17.5t32 7.5q13 0 23.5 -3.5t25.5 -13.5l119 -79l-35 -55z" />
    <glyph glyph-name="afii10023" unicode="&#x401;" horiz-adv-x="623" 
d="M200 303v-209h345v-94h-453v627q0 29 15.5 44.5t47.5 15.5h345q50 0 50 -47q0 -17 -5 -30t-8 -18h-337v-194h286q50 0 50 -47q0 -17 -5 -30t-8 -18h-323zM447 747q-26 0 -45 19t-19 42q0 12 5 23t14 19.5t20.5 13.5t24.5 5q26 0 45 -19t19 -42q0 -11 -5 -22t-14 -19.5
t-20.5 -14t-24.5 -5.5zM238 747q-25 0 -44 19t-19 42q0 12 5 23t14 19.5t20.5 13.5t23.5 5q26 0 45 -19t19 -42q0 -11 -5 -22t-14 -19.5t-20.5 -14t-24.5 -5.5z" />
    <glyph glyph-name="afii10051" unicode="&#x402;" horiz-adv-x="776" 
d="M71 592q-51 0 -51 47q0 17 5 29.5t9 17.5h464q50 0 50 -46q0 -17 -5 -30t-8 -18h-205v-220q23 31 66.5 55.5t109.5 24.5q43 0 82 -14.5t68.5 -43t47 -71.5t17.5 -99q0 -45 -11.5 -87.5t-37.5 -75.5t-67.5 -52.5t-102.5 -19.5q-26 0 -45 5.5t-37 13.5l16 80q26 -14 58 -14
q33 0 55 13.5t35.5 34.5t19.5 48t6 54q0 30 -9 55t-25.5 44t-40.5 29.5t-55 10.5q-38 0 -66 -14t-46.5 -37.5t-28 -54t-9.5 -63.5v-194h-108v592h-151z" />
    <glyph glyph-name="afii10052" unicode="&#x403;" horiz-adv-x="562" 
d="M494 687q50 0 50 -47q0 -17 -5 -30t-8 -18h-331v-592h-108v627q0 29 16 44.5t48 15.5h338zM270 742l-35 55l119 79q15 10 25.5 13.5t23.5 3.5q19 0 32 -7.5t21 -17.5t11.5 -20.5t3.5 -16.5z" />
    <glyph glyph-name="afii10053" unicode="&#x404;" horiz-adv-x="684" 
d="M642 602q0 -12 -5 -22.5t-12 -19t-14.5 -14.5t-12.5 -9q-9 10 -25 23t-39.5 24.5t-54.5 19.5t-69 8q-48 0 -88.5 -15.5t-72 -44.5t-52 -70t-26.5 -93h253q23 0 37.5 -11t14.5 -36q0 -14 -3.5 -26t-8.5 -21h-293q6 -53 27 -94t53.5 -69t74.5 -42t91 -14q37 0 67.5 6.5
t54 15t39 17t23.5 13.5l47 -81q-9 -6 -29 -17t-50.5 -21.5t-70.5 -18.5t-88 -8q-74 0 -138.5 23.5t-112.5 69.5t-75.5 113t-27.5 154q0 84 27.5 151.5t75.5 114t112.5 71.5t138.5 25q39 0 71.5 -5.5t57.5 -13t43 -16.5t28 -16q32 -25 32 -51z" />
    <glyph glyph-name="afii10054" unicode="&#x405;" horiz-adv-x="647" 
d="M503 542q-9 11 -24.5 24.5t-39 25t-55 19.5t-72.5 8t-68.5 -8.5t-44.5 -23.5t-24.5 -34t-7.5 -40q0 -44 30 -67.5t93 -39.5l84 -21q49 -12 87 -28t64.5 -39t40.5 -54t14 -73q0 -46 -15 -84t-46.5 -65.5t-81 -43t-118.5 -15.5q-62 0 -109 10.5t-81 24.5t-54.5 27.5
t-27.5 19.5l50 77q8 -6 26 -18.5t45.5 -24.5t64.5 -21.5t84 -9.5q82 0 117 29.5t35 79.5q0 25 -9.5 43t-27 31t-40.5 21.5t-50 15.5l-89 23q-38 10 -72.5 25t-61.5 37.5t-43 54t-16 75.5q0 39 13 75t43 64t77.5 45t116.5 17q47 0 82 -5.5t59.5 -13.5t40 -16t23.5 -14
q17 -12 24.5 -25.5t7.5 -25.5t-5 -22t-12 -18t-14.5 -13.5t-12.5 -8.5z" />
    <glyph glyph-name="afii10055" unicode="&#x406;" horiz-adv-x="292" 
d="M92 636q0 26 15 38.5t42 12.5q17 0 31.5 -4.5t19.5 -7.5v-675h-108v636z" />
    <glyph glyph-name="afii10056" unicode="&#x407;" horiz-adv-x="292" 
d="M92 636q0 26 15 38.5t42 12.5q17 0 31.5 -4.5t19.5 -7.5v-675h-108v636zM255 747q-26 0 -45 19t-19 42q0 12 5 23t14 19.5t20.5 13.5t24.5 5q26 0 45 -19t19 -42q0 -11 -5 -22t-14 -19.5t-20.5 -14t-24.5 -5.5zM46 747q-25 0 -44 19t-19 42q0 12 5 23t14 19.5t20.5 13.5
t23.5 5q26 0 45 -19t19 -42q0 -11 -5 -22t-14 -19.5t-20.5 -14t-24.5 -5.5z" />
    <glyph glyph-name="afii10057" unicode="&#x408;" horiz-adv-x="551" 
d="M354 636q0 26 15 38.5t42 12.5q17 0 31 -4.5t19 -7.5v-447q0 -55 -12 -100t-39.5 -77.5t-72 -50t-109.5 -17.5q-54 0 -93.5 13.5t-65.5 30.5t-39.5 32.5t-16.5 19.5l66 65q4 -6 15 -18.5t29 -24.5t43 -21.5t58 -9.5q66 0 98 35.5t32 120.5v410z" />
    <glyph glyph-name="afii10058" unicode="&#x409;" horiz-adv-x="1067" 
d="M569 686q23 0 35 -4t20 -14v-235q22 3 49 5t68 2q56 0 107 -10.5t89.5 -36t61 -67.5t22.5 -104q0 -67 -24 -110t-61.5 -68t-82.5 -34.5t-87 -9.5h-249v593h-43q-75 0 -121.5 -31.5t-72.5 -106.5q-19 -55 -35 -130.5t-38 -153.5q-13 -42 -28 -73.5t-35 -53.5t-46 -35
t-61 -19v109q9 3 18 8.5t17.5 16t17 28.5t17.5 46q16 54 28 104.5t22 95.5q18 83 45 138.5t66 88.5t90 47t116 14h95zM732 349q-66 0 -108 -9v-249h130q27 0 54.5 5.5t50 19.5t36.5 39.5t14 66.5q0 37 -14 62t-38 39t-56.5 20t-68.5 6z" />
    <glyph glyph-name="afii10059" unicode="&#x40a;" horiz-adv-x="1089" 
d="M645 422q22 3 49.5 5t68.5 2q56 0 106.5 -10.5t89 -35t61 -65.5t22.5 -101q0 -66 -24 -108t-61.5 -66t-82.5 -33.5t-87 -9.5h-249v321h-339v-321h-107v636q0 50 57 50q17 0 31 -4t19 -7v-262h339v216q0 57 59 57q14 0 27 -3t21 -7v-254zM753 338q-66 0 -108 -9v-238h130
q27 0 55 5t50 19t36 38t14 63q0 36 -14 60t-38 37.5t-56 19t-69 5.5z" />
    <glyph glyph-name="afii10060" unicode="&#x40b;" horiz-adv-x="786" 
d="M71 592q-51 0 -51 47q0 17 5 29.5t9 17.5h464q50 0 50 -46q0 -17 -5 -30t-8 -18h-205v-214q23 31 65 53t111 22q43 0 81 -13t66.5 -38t44.5 -63t16 -87v-252h-106v218q0 68 -30.5 103.5t-101.5 35.5q-74 0 -110 -43t-36 -110v-204h-108v592h-151z" />
    <glyph glyph-name="afii10061" unicode="&#x40c;" horiz-adv-x="666" 
d="M92 0v637q0 50 57 50q17 0 31 -4t19 -7v-298h33q28 0 51.5 14t44 36.5t39.5 51t37 58.5q18 28 35.5 55.5t37 48.5t41 34t46.5 13q31 0 47 -16.5t21 -42.5q-46 -14 -78.5 -48.5t-60.5 -82.5q-35 -60 -66 -98t-71 -59q35 -17 64.5 -48t56.5 -65q16 -21 32.5 -41.5
t33.5 -38.5t35 -31t38 -19v-110q-38 10 -68.5 30t-56 45.5t-47.5 54.5t-43 56q-18 24 -36.5 45t-39 37.5t-43.5 26t-50 9.5h-33v-293h-107zM302 742l-35 55l119 79q15 10 25.5 13.5t23.5 3.5q19 0 32 -7.5t21 -17.5t11.5 -20.5t3.5 -16.5z" />
    <glyph glyph-name="uni040D" unicode="&#x40d;" horiz-adv-x="761" 
d="M92 637q0 26 15 38t41 12q18 0 32 -4.5t19 -6.5v-526h1q13 23 44.5 78t83.5 136q20 31 49 72.5t58 82t53.5 73t35.5 45.5q19 22 39.5 36t52.5 14q20 0 32 -4t20 -7v-676h-107l1 549h-2q-34 -53 -67.5 -107t-67.5 -105q-24 -35 -52 -78t-57.5 -88t-58 -89t-52.5 -82h-113
v637zM216 831q0 6 3.5 16.5t11.5 20.5t21 17.5t32 7.5q13 0 23.5 -3.5t25.5 -13.5l119 -79l-35 -55z" />
    <glyph glyph-name="afii10062" unicode="&#x40e;" horiz-adv-x="643" 
d="M97 -4q41 54 80 113t79 121q-29 46 -61.5 99t-61.5 102t-52.5 89t-34.5 61q-8 13 -14 26.5t-6 29.5q0 20 13.5 35t36.5 15q16 0 26 -2.5t15 -4.5q10 -20 32.5 -60.5t51.5 -89.5t60 -101t57 -95q49 79 92.5 156t80.5 150q11 23 26.5 35t41.5 12q27 0 42.5 -8.5t20.5 -14.5
q-88 -174 -189 -342.5t-213 -325.5h-123zM322 814q43 0 70 20t38 55l69 -8q-1 -20 -10 -44t-29 -46t-53.5 -36.5t-84.5 -14.5t-84.5 14.5t-54 36.5t-29 46t-9.5 44l70 8q12 -37 37.5 -56t69.5 -19z" />
    <glyph glyph-name="afii10145" unicode="&#x40f;" horiz-adv-x="757" 
d="M92 636q0 50 57 50q17 0 31 -4t19 -7v-582h359v543q0 50 56 50q18 0 32 -4.5t19 -6.5v-675h-234v-181h-106v181h-233v636z" />
    <glyph glyph-name="afii10017" unicode="&#x410;" horiz-adv-x="737" 
d="M17 0q31 84 67 174t70.5 174t65.5 156t53 119q20 44 41.5 60.5t54.5 16.5q31 0 47 -10t24 -18q18 -31 43 -85.5t53 -120t56.5 -136.5t53.5 -135.5t44.5 -116t29.5 -78.5h-116q-5 11 -12.5 31.5t-16.5 45t-19 51t-19 50.5h-345q-23 -57 -40 -104t-27 -74h-108zM366 598
q-11 -23 -26.5 -58.5t-34 -79t-38.5 -92.5t-39 -98h273q-18 48 -38.5 98.5t-39 96t-33.5 81t-24 52.5z" />
    <glyph glyph-name="afii10018" unicode="&#x411;" horiz-adv-x="648" 
d="M198 593v-173q23 4 51.5 6t66.5 2q58 0 110.5 -10.5t92 -35t63 -65t23.5 -101.5q0 -68 -22 -110t-61.5 -65.5t-93.5 -32t-117 -8.5h-219v628q0 59 63 59h359q50 0 50 -46q0 -17 -5 -30t-8 -18h-353zM316 336q-39 0 -67 -2.5t-51 -7.5v-235h130q25 0 53.5 3.5t52.5 16
t40 37.5t16 67q0 36 -14.5 59.5t-38.5 37t-55.5 19t-65.5 5.5z" />
    <glyph glyph-name="afii10019" unicode="&#x412;" horiz-adv-x="679" 
d="M92 627q0 29 15.5 44.5t47.5 15.5h192q59 0 101.5 -14.5t69.5 -38.5t40 -56.5t13 -68.5q0 -35 -11 -61t-26 -44.5t-31 -30t-26 -15.5q26 -7 49 -21.5t40.5 -36t27.5 -49.5t10 -61q0 -30 -10.5 -63.5t-36.5 -61.5t-70.5 -46.5t-113.5 -18.5h-281v627zM462 501
q0 45 -30.5 71.5t-95.5 26.5h-138v-203h142q64 0 93 30.5t29 74.5zM493 197q0 22 -7.5 42.5t-23 35.5t-39.5 24t-57 9h-168v-220h167q66 0 97 30.5t31 78.5z" />
    <glyph glyph-name="afii10020" unicode="&#x413;" horiz-adv-x="562" 
d="M494 687q50 0 50 -47q0 -17 -5 -30t-8 -18h-331v-592h-108v627q0 29 16 44.5t48 15.5h338z" />
    <glyph glyph-name="afii10021" unicode="&#x414;" horiz-adv-x="799" 
d="M605 687q23 0 35 -4t20 -14v-576h103v-273h-105v180h-516v-180h-106v273h86q15 49 27.5 92.5t23 84.5t20.5 81t19 82q16 72 43 120.5t65 78t86.5 42.5t107.5 13h91zM315 417q-19 -78 -39 -155t-49 -169h325v501h-36q-41 0 -73 -9t-56.5 -29.5t-42 -54.5t-29.5 -84z" />
    <glyph glyph-name="afii10022" unicode="&#x415;" horiz-adv-x="623" 
d="M200 303v-209h345v-94h-453v627q0 29 15.5 44.5t47.5 15.5h345q50 0 50 -47q0 -17 -5 -30t-8 -18h-337v-194h286q50 0 50 -47q0 -17 -5 -30t-8 -18h-323z" />
    <glyph glyph-name="afii10024" unicode="&#x416;" horiz-adv-x="975" 
d="M434 0v295h-29q-27 0 -49 -11.5t-41.5 -30.5t-38 -43.5t-37.5 -51.5q-18 -26 -38.5 -52t-44 -49t-52 -41t-62.5 -28v111q33 11 61 43t57 70q25 34 53.5 70.5t69.5 57.5q-35 18 -63.5 58.5t-61.5 100.5q-26 48 -56.5 83t-74.5 49q5 26 22.5 42.5t47.5 16.5q18 0 37.5 -12
t40.5 -34t41.5 -52.5t39.5 -67.5q17 -30 33.5 -57t34.5 -47t38 -32t43 -12h29v261q0 50 57 50q17 0 31 -4.5t19 -6.5v-300h29q23 0 43.5 12.5t39 33.5t35 47.5t33.5 55.5q18 30 35.5 60t36.5 53t40 37.5t45 14.5q30 0 47.5 -16.5t22.5 -42.5q-44 -14 -74.5 -49t-56.5 -83
q-33 -61 -61.5 -99.5t-63.5 -59.5q36 -20 65.5 -55t56.5 -73q28 -38 56 -70t63 -43v-111q-35 10 -63 28t-51.5 40.5t-43.5 48.5t-38 52q-19 27 -37.5 52t-38 44t-42 30.5t-49.5 11.5h-29v-295h-107z" />
    <glyph glyph-name="afii10025" unicode="&#x417;" horiz-adv-x="618" 
d="M211 306q-53 0 -53 45q0 17 4 29.5t7 17.5h121q75 0 113.5 30t38.5 78q0 45 -40 75.5t-121 30.5q-43 0 -74 -9.5t-52 -22.5t-33.5 -27t-17.5 -24q-20 5 -35 20t-15 35q0 29 20 50q7 7 21.5 19t40 23.5t63 19.5t88.5 8q67 0 116 -16t81 -42t48 -59t16 -67q0 -32 -10 -58
t-27 -46.5t-39 -35.5t-47 -25q36 -11 61.5 -29t42 -40t24.5 -46.5t8 -49.5q0 -46 -19.5 -83.5t-55 -64.5t-84.5 -41.5t-108 -14.5q-53 0 -94.5 7t-73.5 17t-54.5 21t-35.5 20l44 79q26 -17 76.5 -35t123.5 -18q84 0 128 31.5t44 85.5t-44 83t-124 29h-73z" />
    <glyph glyph-name="afii10026" unicode="&#x418;" horiz-adv-x="761" 
d="M92 637q0 26 15 38t41 12q18 0 32 -4.5t19 -6.5v-526h1q13 23 44.5 78t83.5 136q20 31 49 72.5t58 82t53.5 73t35.5 45.5q19 22 39.5 36t52.5 14q20 0 32 -4t20 -7v-676h-107l1 549h-2q-34 -53 -67.5 -107t-67.5 -105q-24 -35 -52 -78t-57.5 -88t-58 -89t-52.5 -82h-113
v637z" />
    <glyph glyph-name="afii10027" unicode="&#x419;" horiz-adv-x="761" 
d="M92 637q0 26 15 38t41 12q18 0 32 -4.5t19 -6.5v-526h1q13 23 44.5 78t83.5 136q20 31 49 72.5t58 82t53.5 73t35.5 45.5q19 22 39.5 36t52.5 14q20 0 32 -4t20 -7v-676h-107l1 549h-2q-34 -53 -67.5 -107t-67.5 -105q-24 -35 -52 -78t-57.5 -88t-58 -89t-52.5 -82h-113
v637zM368 814q43 0 70 20t38 55l69 -8q-1 -20 -10 -44t-29 -46t-53.5 -36.5t-84.5 -14.5t-84.5 14.5t-54 36.5t-29 46t-9.5 44l70 8q12 -37 37.5 -56t69.5 -19z" />
    <glyph glyph-name="afii10028" unicode="&#x41a;" horiz-adv-x="666" 
d="M92 0v637q0 50 57 50q17 0 31 -4t19 -7v-298h33q28 0 51.5 14t44 36.5t39.5 51t37 58.5q18 28 35.5 55.5t37 48.5t41 34t46.5 13q31 0 47 -16.5t21 -42.5q-46 -14 -78.5 -48.5t-60.5 -82.5q-35 -60 -66 -98t-71 -59q35 -17 64.5 -48t56.5 -65q16 -21 32.5 -41.5
t33.5 -38.5t35 -31t38 -19v-110q-38 10 -68.5 30t-56 45.5t-47.5 54.5t-43 56q-18 24 -36.5 45t-39 37.5t-43.5 26t-50 9.5h-33v-293h-107z" />
    <glyph glyph-name="afii10029" unicode="&#x41b;" horiz-adv-x="722" 
d="M582 687q23 0 35 -4t20 -14v-669h-107v594h-56q-75 0 -121.5 -31.5t-72.5 -106.5q-9 -27 -17.5 -60.5t-17.5 -70.5t-18 -76t-20 -78q-23 -79 -64 -124t-106 -57v109q9 3 18 8t17 14.5t16 25t15 38.5q19 63 31 115t23 97q17 82 44 138t66 89.5t90.5 48t116.5 14.5h108z
" />
    <glyph glyph-name="afii10030" unicode="&#x41c;" horiz-adv-x="908" 
d="M720 0q-1 16 -3.5 58t-5.5 98t-6.5 118t-6.5 117t-5.5 97t-3.5 57q-10 -21 -25 -53t-33 -69t-37 -77.5t-37.5 -78.5t-35 -72t-28.5 -58h-79q-18 36 -43.5 89t-53 110.5t-54 113t-46.5 95.5q-1 -23 -3.5 -66t-5.5 -96t-6 -110.5t-6 -110t-5 -95.5t-3 -67h-106
q1 26 3.5 75.5t5.5 110t6.5 127t7 127.5t6 110t4.5 75q2 30 21 46t48 16t49 -8.5t30 -19.5q8 -17 22.5 -46.5t32 -66t37 -76.5t38 -78.5t35.5 -72t29 -57.5q16 31 40.5 82t51 105.5t50 103.5t36.5 76q12 25 30 41.5t55 16.5q29 0 45.5 -7.5t21.5 -11.5q2 -28 5 -80.5
t6.5 -117.5t7.5 -136t8 -136t6.5 -117.5t4.5 -80.5h-105z" />
    <glyph glyph-name="afii10031" unicode="&#x41d;" horiz-adv-x="758" 
d="M558 636q0 51 56 51q18 0 32 -5t19 -7v-675h-107v310h-358v-310h-108v636q0 26 15 38.5t42 12.5q17 0 31.5 -4.5t19.5 -7.5v-272h358v233z" />
    <glyph glyph-name="afii10032" unicode="&#x41e;" horiz-adv-x="829" 
d="M767 344q0 -77 -26 -143t-72.5 -114.5t-111.5 -76t-143 -27.5t-142.5 27.5t-111 76t-72.5 114.5t-26 143t26 143t72.5 114t111 75.5t142.5 27.5t143 -27.5t111.5 -75.5t72.5 -114t26 -143zM654 344q0 58 -17 107t-48.5 85t-75.5 56t-98 20t-98.5 -20t-76 -56t-48.5 -85
t-17 -107t17 -107.5t48.5 -85.5t76 -56.5t98.5 -20.5t98 20.5t75.5 56.5t48.5 85.5t17 107.5z" />
    <glyph glyph-name="afii10033" unicode="&#x41f;" horiz-adv-x="758" 
d="M665 0h-107v594h-359v-594h-107v637q0 50 57 50h459q57 0 57 -50v-637z" />
    <glyph glyph-name="afii10034" unicode="&#x420;" horiz-adv-x="631" 
d="M467 464q0 28 -7.5 52.5t-24.5 43t-44.5 29t-68.5 10.5h-124v-260q9 -3 34.5 -7t59.5 -4q49 0 82.5 11t54 29.5t29.5 43t9 52.5zM346 687q58 0 102 -18t72.5 -48.5t43 -71t14.5 -85.5q0 -43 -15 -83.5t-47.5 -71.5t-83 -50t-120.5 -19q-48 0 -77 4.5t-37 6.5v-251h-106
v627q0 29 16 44.5t48 15.5h190z" />
    <glyph glyph-name="afii10035" unicode="&#x421;" horiz-adv-x="685" 
d="M642 602q0 -12 -5 -22.5t-11.5 -19t-14 -14.5t-12.5 -9q-9 10 -25 23t-40 24.5t-55 19.5t-68 8q-53 0 -97.5 -19t-77 -54t-50.5 -84.5t-18 -111.5q0 -65 19 -114.5t52 -83t78.5 -51t99.5 -17.5q37 0 68 6.5t54 15t38.5 17t23.5 13.5l47 -81q-8 -6 -28 -17t-50.5 -21.5
t-71 -18.5t-88.5 -8q-74 0 -138.5 23.5t-112.5 69.5t-75.5 112.5t-27.5 153.5q0 84 27.5 151.5t75.5 114t113 71.5t139 25q77 0 128 -18t71 -33q17 -13 24.5 -26t7.5 -25z" />
    <glyph glyph-name="afii10036" unicode="&#x422;" horiz-adv-x="622" 
d="M551 687q51 0 51 -47q0 -17 -5 -30t-8 -18h-232v-592h-108v592h-178q-51 0 -51 47q0 17 5 30t8 18h518z" />
    <glyph glyph-name="afii10037" unicode="&#x423;" horiz-adv-x="643" 
d="M97 -4q41 54 80 113t79 121q-29 46 -61.5 99t-61.5 102t-52.5 89t-34.5 61q-8 13 -14 26.5t-6 29.5q0 20 13.5 35t36.5 15q16 0 26 -2.5t15 -4.5q10 -20 32.5 -60.5t51.5 -89.5t60 -101t57 -95q49 79 92.5 156t80.5 150q11 23 26.5 35t41.5 12q27 0 42.5 -8.5t20.5 -14.5
q-88 -174 -189 -342.5t-213 -325.5h-123z" />
    <glyph glyph-name="afii10038" unicode="&#x424;" horiz-adv-x="840" 
d="M366 -17v87q-68 6 -124.5 28.5t-97 58.5t-63 84t-22.5 106t22.5 106.5t63 84.5t97 58.5t124.5 28.5v29q0 50 55 50q17 0 30.5 -4t18.5 -7v-68q69 -6 126 -28t98 -58t64 -84.5t23 -107.5t-23 -107.5t-64 -84.5t-98 -58t-126 -28v-86h-104zM670 347q0 82 -51.5 131.5
t-148.5 59.5v-381q97 10 148.5 60t51.5 130zM170 347q0 -78 50.5 -128t145.5 -61v379q-95 -11 -145.5 -60t-50.5 -130z" />
    <glyph glyph-name="afii10039" unicode="&#x425;" horiz-adv-x="662" 
d="M514 0q-13 19 -33.5 47t-46 62.5t-54.5 73.5t-60 79q-56 -78 -104.5 -148t-77.5 -114h-121q15 23 41.5 60t58.5 82.5t69 96.5t73 102q-29 37 -57 73t-52 66.5t-43 54.5t-30 39q-20 25 -28 39t-8 26q0 17 11.5 32.5t37.5 15.5q18 0 28.5 -4t14.5 -6l32.5 -42.5t44.5 -58
t53.5 -70t58.5 -77.5q27 37 51.5 72t44.5 63t34.5 48t21.5 29q19 23 36 34.5t45 11.5q26 0 42 -10.5t21 -15.5q-15 -19 -39.5 -51t-55.5 -73.5t-67 -89.5t-73 -99q41 -54 81 -106.5t75 -99t62.5 -83.5t43.5 -59h-131z" />
    <glyph glyph-name="afii10040" unicode="&#x426;" horiz-adv-x="766" 
d="M621 0h-529v637q0 50 57 50q17 0 31 -4t19 -7v-583h351v544q0 50 56 50q18 0 32 -4.5t19 -6.5v-583h70v-274h-106v181z" />
    <glyph glyph-name="afii10041" unicode="&#x427;" horiz-adv-x="685" 
d="M485 637q0 26 15 38t41 12q18 0 32 -4.5t19 -6.5v-676h-107v281q-32 -11 -74.5 -20t-106.5 -9q-52 0 -95.5 11t-75 36.5t-49.5 68t-18 105.5v164q0 50 57 50q17 0 31 -4t19 -7v-203q0 -68 36.5 -97.5t102.5 -29.5t104.5 9.5t68.5 18.5v263z" />
    <glyph glyph-name="afii10042" unicode="&#x428;" horiz-adv-x="1058" 
d="M92 637q0 50 57 50q17 0 31 -4t19 -7v-583h281v544q0 50 56 50q17 0 31.5 -4t19.5 -7v-583h271v544q0 26 15 38t41 12q18 0 32 -4.5t19 -6.5v-676h-873v637z" />
    <glyph glyph-name="afii10043" unicode="&#x429;" horiz-adv-x="1074" 
d="M92 637q0 50 57 50q17 0 31 -4t19 -7v-583h281v544q0 50 56 50q17 0 31.5 -4t19.5 -7v-583h271v544q0 26 15 38t41 12q18 0 32 -4.5t19 -6.5v-583h70v-274h-105v181h-838v637z" />
    <glyph glyph-name="afii10044" unicode="&#x42a;" horiz-adv-x="803" 
d="M451 362q-33 0 -62 -2.5t-52 -6.5v-262h140q29 0 59 5.5t54 20.5t39.5 42t15.5 69q0 40 -15.5 66t-41.5 41t-61.5 21t-75.5 6zM337 444q23 4 52 6t70 2q60 0 114 -11t95 -37t65 -69t24 -107q0 -69 -25.5 -113.5t-65.5 -70t-87.5 -35t-90.5 -9.5h-258v592h-160
q-50 0 -50 47q0 17 5 29.5t8 17.5h247q28 0 40 -8t17 -23v-211z" />
    <glyph glyph-name="afii10045" unicode="&#x42b;" horiz-adv-x="940" 
d="M314 362q-34 0 -63 -2.5t-52 -6.5v-262h140q29 0 59 5.5t54 20.5t39.5 42t15.5 69q0 40 -15.5 66t-41.5 41t-61 21t-75 6zM199 444q23 4 52.5 6t69.5 2q60 0 114 -11t95 -37t65 -69t24 -107q0 -69 -25.5 -113.5t-65.5 -70t-87.5 -35t-90.5 -9.5h-258v630q0 57 59 57
q14 0 27 -3t21 -7v-233zM740 636q0 26 15 38.5t42 12.5q17 0 31.5 -4.5t19.5 -7.5v-675h-108v636z" />
    <glyph glyph-name="afii10046" unicode="&#x42c;" horiz-adv-x="666" 
d="M314 362q-34 0 -63 -2.5t-52 -6.5v-262h140q29 0 59 5.5t54 20.5t39.5 42t15.5 69q0 40 -15.5 66t-41.5 41t-61 21t-75 6zM199 444q23 4 52.5 6t69.5 2q60 0 114 -11t95 -37t65 -69t24 -107q0 -69 -25.5 -113.5t-65.5 -70t-87.5 -35t-90.5 -9.5h-258v630q0 57 59 57
q14 0 27 -3t21 -7v-233z" />
    <glyph glyph-name="afii10047" unicode="&#x42d;" horiz-adv-x="684" 
d="M42 602q0 26 32 51q10 7 28 16t43 16.5t57.5 13t71.5 5.5q73 0 137.5 -25t112.5 -71.5t76 -114t28 -151.5q0 -87 -28 -154t-76 -113t-112.5 -69.5t-137.5 -23.5q-48 0 -88 8t-70.5 18.5t-50.5 21.5t-29 17l47 81q7 -5 23 -13.5t39.5 -17t54 -15t67.5 -6.5q48 0 90.5 14
t74.5 42t53.5 69t27.5 94h-253q-23 0 -37.5 10.5t-14.5 35.5q0 14 3.5 26t8.5 22h293q-6 52 -26.5 93t-52 70t-72.5 44.5t-88 15.5q-38 0 -69 -8t-54.5 -19.5t-39.5 -24.5t-25 -23q-5 3 -12.5 9t-14.5 14.5t-12 19t-5 22.5z" />
    <glyph glyph-name="afii10048" unicode="&#x42e;" horiz-adv-x="1104" 
d="M1042 344q0 -77 -26 -143t-72.5 -115t-111.5 -76.5t-142 -27.5q-74 0 -135.5 25t-107.5 68.5t-74 103.5t-34 131h-140v-310h-107v637q0 50 57 50q17 0 31 -4t19 -7v-273h143q9 65 38.5 120.5t75 95.5t105 62.5t129.5 22.5q77 0 142 -27.5t111.5 -75.5t72.5 -114t26 -143z
M930 344q0 58 -17.5 107t-49 85t-75.5 56t-98 20t-98.5 -20t-76 -56t-48.5 -85t-17 -107t17 -107.5t48.5 -85.5t76 -56.5t98.5 -20.5t98 20.5t75.5 56.5t49 85.5t17.5 107.5z" />
    <glyph glyph-name="afii10049" unicode="&#x42f;" horiz-adv-x="651" 
d="M370 256q-25 0 -46 -9.5t-40.5 -25.5t-37.5 -37t-36 -45q-15 -20 -34 -43.5t-42.5 -44.5t-51 -37.5t-58.5 -21.5v104q31 10 55.5 34t46.5 52.5t44 55.5t49 44q-35 11 -61.5 32.5t-44 47.5t-26 55.5t-8.5 56.5q0 46 15 85t45.5 67.5t76 44.5t106.5 16h173q63 0 63 -59
v-628h-105v262q-12 -2 -33 -4t-50 -2zM191 473q0 -27 9 -51t29 -41t52 -27t79 -10q41 0 64.5 2.5t28.5 4.5v249h-113q-81 0 -115 -35t-34 -92z" />
    <glyph glyph-name="afii10065" unicode="&#x430;" horiz-adv-x="595" 
d="M412 235q-3 1 -15 2t-29 2.5t-36.5 2.5t-37.5 1q-75 0 -107.5 -23t-32.5 -71q0 -20 6 -37t22 -29t43 -18.5t68 -6.5q51 0 80 4t39 7v166zM261 438q-29 0 -51.5 -5t-39 -11.5t-27.5 -14t-18 -12.5q-11 7 -19 20t-8 30t9.5 28.5t25.5 19.5q17 8 47 15.5t75 7.5
q60 0 108 -11t81.5 -36.5t51.5 -66.5t18 -100v-299q-18 -4 -75.5 -10.5t-149.5 -6.5q-75 0 -121.5 13.5t-72.5 36t-35 51.5t-9 60q0 39 12 70t39 52t71.5 32.5t109.5 11.5q45 0 81.5 -2t48.5 -4v5q0 16 -3 30q-8 47 -43.5 71.5t-105.5 24.5z" />
    <glyph glyph-name="afii10066" unicode="&#x431;" horiz-adv-x="635" 
d="M585 229q0 -54 -19 -99.5t-53.5 -77.5t-83.5 -50t-109 -18q-61 0 -109.5 18t-83 54t-53 90t-18.5 126q0 205 143 321q27 22 54.5 38t54.5 28.5t55 22t57 20.5q25 9 45 17.5t40 17.5q6 -8 11 -20t5 -24q0 -17 -14 -35.5t-47 -29.5q-42 -15 -89.5 -33t-89.5 -47
q-42 -30 -69.5 -67t-37.5 -77h3q10 12 25 24t36 22t48 16t61 6q50 0 93.5 -17.5t75.5 -49t50.5 -76.5t18.5 -100zM162 229q0 -35 11 -64.5t31.5 -51t49.5 -33.5t66 -12t66 12t49.5 33.5t31.5 51t11 64.5q0 72 -41.5 117t-116.5 45q-37 0 -66 -12t-49.5 -33.5t-31.5 -51
t-11 -65.5z" />
    <glyph glyph-name="afii10067" unicode="&#x432;" horiz-adv-x="584" 
d="M537 140q0 -23 -8.5 -47.5t-29 -45t-55.5 -34t-88 -13.5h-274v447q0 55 58 55h194q46 0 80 -10.5t55.5 -28.5t32 -42t10.5 -52q0 -45 -24 -73t-52 -38q18 -4 36 -12.5t32.5 -22.5t23.5 -34.5t9 -48.5zM431 147q0 27 -21.5 49.5t-72.5 22.5h-153v-143h152q51 0 73 22
t22 49zM407 361q0 26 -20 45.5t-68 19.5h-135v-133h137q48 0 67 21t19 47z" />
    <glyph glyph-name="afii10068" unicode="&#x433;" horiz-adv-x="476" 
d="M411 502q47 0 47 -43q0 -17 -4.5 -28t-6.5 -15h-262v-416h-103v447q0 55 58 55h271z" />
    <glyph glyph-name="afii10069" unicode="&#x434;" horiz-adv-x="669" 
d="M506 502q20 0 30.5 -4t18.5 -12v-400h81v-267h-100v181h-404v-181h-100v267h80q18 56 35 113t27 92q16 59 38 99.5t52 65t70 35.5t93 11h79zM279 294q-11 -38 -27.5 -92t-36.5 -116h238v330h-26q-62 0 -96.5 -28t-51.5 -94z" />
    <glyph glyph-name="afii10070" unicode="&#x435;" horiz-adv-x="592" 
d="M540 326q0 -58 -32 -91t-109 -33h-234q9 -63 52.5 -97t117.5 -34q57 0 93.5 11.5t49.5 19.5l32 -75q-5 -3 -20.5 -10.5t-40 -14.5t-57 -12.5t-70.5 -5.5q-56 0 -104.5 16t-84.5 48t-56.5 81t-20.5 114q0 61 19.5 111.5t54.5 87t83 56.5t106 20q54 0 95.5 -14.5t69 -40
t42 -60.5t14.5 -77zM441 336q0 19 -6.5 38t-21.5 34t-38.5 24.5t-56.5 9.5q-38 0 -67 -15.5t-48.5 -39.5t-29.5 -53.5t-11 -58.5h211q36 0 52 13t16 48z" />
    <glyph glyph-name="afii10072" unicode="&#x436;" horiz-adv-x="741" 
d="M116 352q-19 35 -42 65t-55 37q2 8 5.5 17.5t10.5 17t17.5 12.5t25.5 5q21 0 37 -8.5t29.5 -22.5t24.5 -32t21 -37q17 -31 31 -53t28.5 -36.5t31 -22.5t38.5 -10v171q0 24 14 35.5t40 11.5q17 0 30.5 -4t18.5 -6v-208q22 2 38 9.5t30.5 22.5t28.5 37t31 53l9 16
q9 16 20 31t23.5 27t27 19t32.5 7q15 0 25.5 -5t17.5 -12.5t11 -16.5t6 -18q-32 -7 -55.5 -37t-42.5 -65t-45.5 -61.5t-57.5 -40.5q19 -9 42.5 -25t40.5 -36q13 -15 25 -32t24.5 -32t26 -26.5t29.5 -16.5v-95q-36 7 -63.5 25.5t-50.5 42t-42 49.5t-39 48.5t-42 38t-50 18.5
v-209h-103v209q-8 -1 -14.5 -2t-14.5 -3q-32 -8 -57 -39t-52.5 -67.5t-62.5 -68.5t-87 -42v95q23 8 45.5 32t41.5 50q20 29 47 51.5t55 33.5q-64 30 -104 103z" />
    <glyph glyph-name="afii10073" unicode="&#x437;" horiz-adv-x="548" 
d="M209 214q-49 0 -49 42q0 15 5 25.5t9 15.5h67q65 0 98.5 16.5t33.5 51.5q0 32 -31 51t-90 19q-34 0 -61 -7t-46 -16t-31 -19t-16 -16q-19 9 -31 23t-12 28q0 15 6.5 25.5t17.5 18.5q15 12 58.5 28.5t117.5 16.5q61 0 103.5 -12.5t69 -33t38.5 -46t12 -51.5
q0 -44 -25 -72.5t-71 -42.5q60 -18 85 -53t25 -78q0 -65 -60 -104.5t-176 -39.5q-38 0 -72 5.5t-62 13.5t-49.5 18t-35.5 18l32 75q39 -17 81 -31t99 -14t95.5 16t38.5 56q0 38 -37.5 55.5t-105.5 17.5h-31z" />
    <glyph glyph-name="afii10074" unicode="&#x438;" horiz-adv-x="629" 
d="M82 456q0 24 14 35t40 11q17 0 30 -4t17 -6v-121q0 -68 -0.5 -127.5t-1.5 -117.5h1q20 28 39 58.5t39 58.5q36 51 64 90t49.5 67.5t37 48t26.5 31.5q16 11 31.5 16t35.5 5q14 0 26.5 -2.5t21.5 -6.5v-492h-102v166q0 60 0.5 112t2.5 103h-1q-18 -24 -38.5 -55t-45.5 -68
q-39 -58 -85.5 -125t-98.5 -133h-102v456z" />
    <glyph glyph-name="afii10075" unicode="&#x439;" horiz-adv-x="629" 
d="M82 456q0 24 14 35t40 11q17 0 30 -4t17 -6v-121q0 -68 -0.5 -127.5t-1.5 -117.5h1q20 28 39 58.5t39 58.5q36 51 64 90t49.5 67.5t37 48t26.5 31.5q16 11 31.5 16t35.5 5q14 0 26.5 -2.5t21.5 -6.5v-492h-102v166q0 60 0.5 112t2.5 103h-1q-18 -24 -38.5 -55t-45.5 -68
q-39 -58 -85.5 -125t-98.5 -133h-102v456zM318 630q43 0 70 20t38 55l69 -8q-1 -20 -10 -44t-29 -46t-53.5 -36.5t-84.5 -14.5t-84.5 14.5t-54 36.5t-29 46t-9.5 44l70 8q12 -37 37.5 -56t69.5 -19z" />
    <glyph glyph-name="afii10076" unicode="&#x43a;" horiz-adv-x="544" 
d="M82 455q0 24 14 35.5t40 11.5q17 0 30.5 -4t18.5 -6v-209q27 0 47 7.5t37.5 22.5t34 38t36.5 55q12 19 25 38t27.5 33t31.5 23t38 9q16 0 27 -6t18 -14.5t11 -18t6 -16.5q-37 -7 -62 -37.5t-46 -64.5q-22 -36 -49.5 -61.5t-58.5 -40.5q19 -11 41.5 -25t38.5 -32
q13 -14 26 -31.5t27.5 -33t30.5 -28t36 -17.5v-95q-39 7 -69 26.5t-54.5 44.5t-46 51.5t-44.5 48.5t-49 36.5t-60 14.5v-210h-103v455z" />
    </font>
</defs>
</svg>
